SplineFontDB: 3.0
FontName: Radley
FullName: Radley
FamilyName: Radley
Weight: Book
Copyright: Copyright (c) 2010 by vernon adams. All rights reserved.
Version: 1.000
ItalicAngle: 0
UnderlinePosition: -205
UnderlineWidth: 102
Ascent: 1638
Descent: 410
LayerCount: 2
Layer: 0 1 "Back"  1
Layer: 1 1 "Fore"  0
XUID: [1021 332 469972825 5389754]
FSType: 0
OS2Version: 0
OS2_WeightWidthSlopeOnly: 0
OS2_UseTypoMetrics: 1
CreationTime: 1292240896
ModificationTime: 1296004103
PfmFamily: 17
TTFWeight: 400
TTFWidth: 5
LineGap: 0
VLineGap: 0
Panose: 2 0 5 4 8 0 0 2 0 4
OS2TypoAscent: 1570
OS2TypoAOffset: 0
OS2TypoDescent: -577
OS2TypoDOffset: 0
OS2TypoLinegap: 0
OS2WinAscent: 1570
OS2WinAOffset: 0
OS2WinDescent: 577
OS2WinDOffset: 0
HheadAscent: 1570
HheadAOffset: 0
HheadDescent: -577
HheadDOffset: 0
OS2SubXSize: 1331
OS2SubYSize: 1433
OS2SubXOff: 0
OS2SubYOff: 286
OS2SupXSize: 1331
OS2SupYSize: 1433
OS2SupXOff: 0
OS2SupYOff: 983
OS2StrikeYSize: 102
OS2StrikeYPos: 512
OS2Vendor: 'PfEd'
OS2CodePages: 00000093.00000000
OS2UnicodeRanges: a00000af.4000004b.00000000.00000000
Lookup: 1 0 0 "'onum' Oldstyle Figures in Latin lookup 0"  {"'onum' Oldstyle Figures in Latin lookup 0 subtable" ("oldstyle" ) } ['onum' ('latn' <'dflt' > ) ]
Lookup: 4 0 0 "'dlig' Discretionary Ligatures in Latin lookup 1"  {"'dlig' Discretionary Ligatures in Latin lookup 1 subtable"  } ['dlig' ('latn' <'dflt' > ) ]
Lookup: 4 0 1 "'liga' Standard Ligatures in Latin lookup 2"  {"'liga' Standard Ligatures in Latin lookup 2 subtable"  } ['liga' ('latn' <'dflt' > ) ]
Lookup: 1 0 0 "'smcp' Lowercase to Small Capitals in Latin lookup 3"  {"'smcp' Lowercase to Small Capitals in Latin lookup 3 subtable"  } ['smcp' ('latn' <'dflt' > ) ]

StartChar: B
Encoding: 66 66 4
Width: 1342
Flags: W
HStem: 0 60<59.0625 255.498 502.471 895.683> 582 60<487 855.386> 1116 60<489.969 801.85>
VStem: 272 215<86.4722 582 642 1083.88> 1012 172<742.563 991.304> 1049 216<172.325 438.484>
LayerCount: 2
Fore
SplineSet
487 582 m 1,0,-1
 487 130 l 2,1,2
 487 100 487 100 502 82.5 c 128,-1,3
 517 65 517 65 543 60 c 1,4,-1
 725 60 l 2,5,6
 809 60 809 60 870 80 c 128,-1,7
 931 100 931 100 971 133 c 128,-1,8
 1011 166 1011 166 1030 209 c 128,-1,9
 1049 252 1049 252 1049 298 c 0,10,11
 1049 348 1049 348 1027.5 397 c 128,-1,12
 1006 446 1006 446 964.5 485 c 128,-1,13
 923 524 923 524 863 549 c 128,-1,14
 803 574 803 574 727 576 c 2,15,-1
 487 582 l 1,0,-1
545 1116 m 0,16,17
 525 1116 525 1116 513.5 1112.5 c 128,-1,18
 502 1109 502 1109 496 1100.5 c 128,-1,19
 490 1092 490 1092 488.5 1077 c 128,-1,20
 487 1062 487 1062 487 1040 c 2,21,-1
 487 642 l 1,22,-1
 725 642 l 2,23,24
 792 642 792 642 845.5 661 c 128,-1,25
 899 680 899 680 936 711 c 128,-1,26
 973 742 973 742 992.5 781.5 c 128,-1,27
 1012 821 1012 821 1012 862 c 0,28,29
 1012 908 1012 908 991.5 953.5 c 128,-1,30
 971 999 971 999 918.5 1035 c 128,-1,31
 866 1071 866 1071 775.5 1093.5 c 128,-1,32
 685 1116 685 1116 545 1116 c 0,16,17
895 612 m 1,33,34
 985 603 985 603 1054 575 c 128,-1,35
 1123 547 1123 547 1170 507 c 128,-1,36
 1217 467 1217 467 1241 418 c 128,-1,37
 1265 369 1265 369 1265 318 c 0,38,39
 1265 259 1265 259 1238 202 c 128,-1,40
 1211 145 1211 145 1146 100 c 128,-1,41
 1081 55 1081 55 973 27.5 c 128,-1,42
 865 0 865 0 703 0 c 2,43,-1
 61 0 l 1,44,45
 56 10 56 10 56 18 c 0,46,47
 56 34 56 34 72 41 c 128,-1,48
 88 48 88 48 112 50.5 c 128,-1,49
 136 53 136 53 164 55 c 128,-1,50
 192 57 192 57 216 64 c 128,-1,51
 240 71 240 71 256 86 c 128,-1,52
 272 101 272 101 272 130 c 2,53,-1
 272 1020 l 2,54,55
 272 1046 272 1046 256 1062.5 c 128,-1,56
 240 1079 240 1079 216 1089.5 c 128,-1,57
 192 1100 192 1100 164.5 1107 c 128,-1,58
 137 1114 137 1114 113 1120.5 c 128,-1,59
 89 1127 89 1127 73 1135.5 c 128,-1,60
 57 1144 57 1144 57 1159 c 0,61,62
 57 1161 57 1161 61 1176 c 1,63,-1
 595 1176 l 2,64,65
 719 1176 719 1176 810.5 1163.5 c 128,-1,66
 902 1151 902 1151 967.5 1128.5 c 128,-1,67
 1033 1106 1033 1106 1075 1076 c 128,-1,68
 1117 1046 1117 1046 1141 1011 c 128,-1,69
 1165 976 1165 976 1174.5 938.5 c 128,-1,70
 1184 901 1184 901 1184 863 c 0,71,72
 1184 820 1184 820 1164.5 779 c 128,-1,73
 1145 738 1145 738 1108 704 c 128,-1,74
 1071 670 1071 670 1017 646 c 128,-1,75
 963 622 963 622 895 612 c 1,33,34
EndSplineSet
Validated: 16385
EndChar

StartChar: C
Encoding: 67 67 5
Width: 1223
Flags: W
HStem: -28 134<557.083 913.429> 1140 62<578.293 888.909>
VStem: 90 214<373.566 830.66>
LayerCount: 2
Fore
SplineSet
304 636 m 0,0,1
 304 491 304 491 342 390 c 128,-1,2
 380 289 380 289 445.5 226 c 128,-1,3
 511 163 511 163 599 134.5 c 128,-1,4
 687 106 687 106 788 106 c 0,5,6
 868 106 868 106 952 121.5 c 128,-1,7
 1036 137 1036 137 1122 166 c 1,8,9
 1128 166 1128 166 1131.5 160 c 128,-1,10
 1135 154 1135 154 1135 148 c 0,11,12
 1135 141 1135 141 1130 138 c 0,13,14
 1027 56 1027 56 906.5 14 c 128,-1,15
 786 -28 786 -28 665 -28 c 0,16,17
 552 -28 552 -28 448.5 9.5 c 128,-1,18
 345 47 345 47 265 123.5 c 128,-1,19
 185 200 185 200 137.5 316 c 128,-1,20
 90 432 90 432 90 590 c 0,21,22
 90 693 90 693 116 779 c 128,-1,23
 142 865 142 865 188 933 c 128,-1,24
 234 1001 234 1001 297.5 1051.5 c 128,-1,25
 361 1102 361 1102 435.5 1135.5 c 128,-1,26
 510 1169 510 1169 593 1185.5 c 128,-1,27
 676 1202 676 1202 762 1202 c 0,28,29
 847 1202 847 1202 930 1187 c 128,-1,30
 1013 1172 1013 1172 1095 1138 c 1,31,-1
 1126 868 l 1,32,33
 1115 866 1115 866 1110.5 865 c 128,-1,34
 1106 864 1106 864 1101 864 c 0,35,36
 1083 864 1083 864 1068 886.5 c 128,-1,37
 1053 909 1053 909 1040 938 c 128,-1,38
 1027 967 1027 967 1015 996 c 128,-1,39
 1003 1025 1003 1025 991 1037 c 0,40,41
 961 1068 961 1068 929 1088 c 128,-1,42
 897 1108 897 1108 863.5 1119.5 c 128,-1,43
 830 1131 830 1131 795.5 1135.5 c 128,-1,44
 761 1140 761 1140 728 1140 c 0,45,46
 644 1140 644 1140 567 1104.5 c 128,-1,47
 490 1069 490 1069 431.5 1003.5 c 128,-1,48
 373 938 373 938 338.5 845 c 128,-1,49
 304 752 304 752 304 636 c 0,0,1
EndSplineSet
Validated: 16385
EndChar

StartChar: D
Encoding: 68 68 6
Width: 1420
Flags: W
HStem: 0 62<59.5596 255.498 487.922 827.195> 1112 64<487 821.434>
VStem: 272 215<86.4722 1083.19> 1114 215<351.501 825.589>
LayerCount: 2
Fore
SplineSet
61 0 m 1,0,1
 56 10 56 10 56 18 c 0,2,3
 56 34 56 34 72 41 c 128,-1,4
 88 48 88 48 112 50.5 c 128,-1,5
 136 53 136 53 164 55 c 128,-1,6
 192 57 192 57 216 64 c 128,-1,7
 240 71 240 71 256 86 c 128,-1,8
 272 101 272 101 272 130 c 2,9,-1
 272 1020 l 2,10,11
 272 1046 272 1046 256 1062 c 128,-1,12
 240 1078 240 1078 216 1089 c 128,-1,13
 192 1100 192 1100 164.5 1106.5 c 128,-1,14
 137 1113 137 1113 113 1120 c 128,-1,15
 89 1127 89 1127 73 1135.5 c 128,-1,16
 57 1144 57 1144 57 1159 c 0,17,18
 57 1161 57 1161 61 1176 c 1,19,-1
 595 1176 l 2,20,21
 760 1176 760 1176 895.5 1140.5 c 128,-1,22
 1031 1105 1031 1105 1127 1032 c 128,-1,23
 1223 959 1223 959 1276 849 c 128,-1,24
 1329 739 1329 739 1329 590 c 0,25,26
 1329 455 1329 455 1282 345.5 c 128,-1,27
 1235 236 1235 236 1151.5 159.5 c 128,-1,28
 1068 83 1068 83 952.5 41.5 c 128,-1,29
 837 0 837 0 700 0 c 2,30,-1
 61 0 l 1,0,1
487 1112 m 1,31,-1
 487 77 l 1,32,33
 516 73 516 73 546 69 c 0,34,35
 572 66 572 66 602 64 c 128,-1,36
 632 62 632 62 659 62 c 0,37,38
 739 62 739 62 803.5 84 c 128,-1,39
 868 106 868 106 918.5 142.5 c 128,-1,40
 969 179 969 179 1006 228 c 128,-1,41
 1043 277 1043 277 1067 330.5 c 128,-1,42
 1091 384 1091 384 1102.5 439.5 c 128,-1,43
 1114 495 1114 495 1114 546 c 0,44,45
 1114 1112 1114 1112 615 1112 c 2,46,-1
 487 1112 l 1,31,-1
EndSplineSet
Validated: 16385
EndChar

StartChar: E
Encoding: 69 69 7
Width: 1326
Flags: W
HStem: -23 21G<1193.5 1201.5> 0 55<70 1075.67> 584 59<485 917.989> 874 21G<1176.5 1190.5> 1131 45<491.13 1068.73> 1176 20G<1179 1194>
VStem: 270 215<84.4727 584 643 1084.13> 1138.5 70.5<876.325 1060.03>
LayerCount: 2
Fore
SplineSet
70 0 m 2,0,1
 65 0 65 0 65 10 c 0,2,3
 65 30 65 30 80 38 c 128,-1,4
 95 46 95 46 118 49.5 c 128,-1,5
 141 53 141 53 167.5 54.5 c 128,-1,6
 194 56 194 56 217 62.5 c 128,-1,7
 240 69 240 69 255 84 c 128,-1,8
 270 99 270 99 270 130 c 2,9,-1
 270 1020 l 2,10,11
 270 1046 270 1046 254.5 1062 c 128,-1,12
 239 1078 239 1078 216.5 1089 c 128,-1,13
 194 1100 194 1100 167 1106.5 c 128,-1,14
 140 1113 140 1113 117.5 1120 c 128,-1,15
 95 1127 95 1127 79.5 1135.5 c 128,-1,16
 64 1144 64 1144 64 1159 c 0,17,18
 64 1163 64 1163 67 1169 c 0,19,20
 68 1173 68 1173 70 1176 c 1,21,-1
 1046 1176 l 2,22,23
 1065 1176 1065 1176 1090.5 1179 c 128,-1,24
 1116 1182 1116 1182 1139 1186 c 0,25,26
 1165 1190 1165 1190 1193 1196 c 1,27,28
 1195 1195 1195 1195 1198 1194 c 0,29,30
 1203 1192 1203 1192 1209 1188 c 1,31,-1
 1209 880 l 1,32,33
 1195 874 1195 874 1186 874 c 0,34,35
 1167 874 1167 874 1156.5 892 c 128,-1,36
 1146 910 1146 910 1138.5 937 c 128,-1,37
 1131 964 1131 964 1124 996 c 128,-1,38
 1117 1028 1117 1028 1105 1056.5 c 128,-1,39
 1093 1085 1093 1085 1073 1105 c 128,-1,40
 1053 1125 1053 1125 1020 1129 c 1,41,-1
 542 1131 l 2,42,43
 523 1131 523 1131 511.5 1127 c 128,-1,44
 500 1123 500 1123 494 1114 c 128,-1,45
 488 1105 488 1105 486.5 1090 c 128,-1,46
 485 1075 485 1075 485 1053 c 2,47,-1
 485 643 l 1,48,-1
 876 653 l 2,49,50
 904 654 904 654 921 675.5 c 128,-1,51
 938 697 938 697 951.5 722.5 c 128,-1,52
 965 748 965 748 979 769.5 c 128,-1,53
 993 791 993 791 1015 791 c 0,54,55
 1017 791 1017 791 1021.5 790 c 128,-1,56
 1026 789 1026 789 1037 786 c 1,57,-1
 1037 444 l 1,58,59
 1025 438 1025 438 1015 438 c 0,60,61
 998 438 998 438 984 459.5 c 128,-1,62
 970 481 970 481 955 507.5 c 128,-1,63
 940 534 940 534 921 557 c 128,-1,64
 902 580 902 580 876 584 c 1,65,-1
 485 584 l 1,66,-1
 485 136 l 2,67,68
 485 122 485 122 486.5 108 c 128,-1,69
 488 94 488 94 492 82 c 128,-1,70
 496 70 496 70 502.5 62.5 c 128,-1,71
 509 55 509 55 518 55 c 2,72,-1
 520 55 l 1,73,-1
 995 67 l 2,74,75
 1027 67 1027 67 1050.5 72.5 c 128,-1,76
 1074 78 1074 78 1091.5 93.5 c 128,-1,77
 1109 109 1109 109 1121.5 136 c 128,-1,78
 1134 163 1134 163 1145 207 c 0,79,80
 1151 232 1151 232 1158 256.5 c 128,-1,81
 1165 281 1165 281 1173.5 301 c 128,-1,82
 1182 321 1182 321 1191 333.5 c 128,-1,83
 1200 346 1200 346 1210 346 c 0,84,85
 1212 346 1212 346 1215.5 345 c 128,-1,86
 1219 344 1219 344 1230 342 c 0,87,88
 1231 342 1231 342 1232 341.5 c 128,-1,89
 1233 341 1233 341 1234 341 c 2,90,-1
 1206 -18 l 2,91,92
 1206 -23 1206 -23 1197 -23 c 0,93,94
 1190 -23 1190 -23 1184 -20 c 256,95,96
 1178 -17 1178 -17 1160 -13.5 c 128,-1,97
 1142 -10 1142 -10 1120 -7 c 128,-1,98
 1098 -4 1098 -4 1076 -2 c 128,-1,99
 1054 0 1054 0 1039 0 c 2,100,-1
 70 0 l 2,0,1
EndSplineSet
Validated: 8404993
EndChar

StartChar: F
Encoding: 70 70 8
Width: 1181
Flags: W
HStem: 0 41.5<56.1406 210.702 567.314 729.644> 605 59<487 866.389> 875 21G<1097 1108> 1128 53<490.812 990.038>
VStem: 272 215<85.4724 605 664 1083.88>
LayerCount: 2
Fore
SplineSet
487 130 m 2,0,1
 487 103 487 103 505 88.5 c 128,-1,2
 523 74 523 74 550 66.5 c 128,-1,3
 577 59 577 59 608.5 55.5 c 128,-1,4
 640 52 640 52 667 48.5 c 128,-1,5
 694 45 694 45 712 38.5 c 128,-1,6
 730 32 730 32 730 17 c 0,7,8
 730 13 730 13 729.5 9 c 128,-1,9
 729 5 729 5 726 0 c 1,10,-1
 60 0 l 1,11,12
 56 8 56 8 56 18 c 0,13,14
 56 35 56 35 72 41.5 c 128,-1,15
 88 48 88 48 112 50.5 c 128,-1,16
 136 53 136 53 164 55 c 128,-1,17
 192 57 192 57 216 63.5 c 128,-1,18
 240 70 240 70 256 85 c 128,-1,19
 272 100 272 100 272 130 c 2,20,-1
 272 1020 l 2,21,22
 272 1046 272 1046 256 1062.5 c 128,-1,23
 240 1079 240 1079 216 1089.5 c 128,-1,24
 192 1100 192 1100 164 1107 c 128,-1,25
 136 1114 136 1114 112 1120.5 c 128,-1,26
 88 1127 88 1127 72 1135.5 c 128,-1,27
 56 1144 56 1144 56 1159 c 0,28,29
 56 1161 56 1161 57 1165 c 128,-1,30
 58 1169 58 1169 60 1181 c 1,31,-1
 970 1181 l 2,32,33
 1031 1181 1031 1181 1060.5 1186.5 c 128,-1,34
 1090 1192 1090 1192 1107 1192 c 0,35,36
 1111 1192 1111 1192 1123 1188 c 1,37,-1
 1130 880 l 1,38,39
 1125 878 1125 878 1117.5 876.5 c 128,-1,40
 1110 875 1110 875 1106 875 c 0,41,42
 1088 875 1088 875 1077.5 893 c 128,-1,43
 1067 911 1067 911 1059.5 937.5 c 128,-1,44
 1052 964 1052 964 1045 995.5 c 128,-1,45
 1038 1027 1038 1027 1025.5 1054 c 128,-1,46
 1013 1081 1013 1081 993.5 1099 c 128,-1,47
 974 1117 974 1117 942 1118 c 2,48,-1
 544 1128 l 2,49,50
 523 1128 523 1128 511 1123 c 128,-1,51
 499 1118 499 1118 494 1109 c 128,-1,52
 489 1100 489 1100 488 1087 c 128,-1,53
 487 1074 487 1074 487 1058 c 2,54,-1
 487 664 l 1,55,-1
 826 676 l 2,56,57
 854 677 854 677 871 698.5 c 128,-1,58
 888 720 888 720 901.5 745.5 c 128,-1,59
 915 771 915 771 929 792.5 c 128,-1,60
 943 814 943 814 965 814 c 0,61,62
 967 814 967 814 971.5 813 c 128,-1,63
 976 812 976 812 987 809 c 1,64,-1
 987 467 l 1,65,66
 975 461 975 461 965 461 c 0,67,68
 954 461 954 461 944 471.5 c 128,-1,69
 934 482 934 482 924.5 497 c 128,-1,70
 915 512 915 512 905 530 c 128,-1,71
 895 548 895 548 883 563 c 128,-1,72
 871 578 871 578 857 588.5 c 128,-1,73
 843 599 843 599 826 599 c 2,74,-1
 487 605 l 1,75,-1
 487 130 l 2,0,1
EndSplineSet
Validated: 16385
EndChar

StartChar: G
Encoding: 71 71 9
Width: 1360
Flags: W
HStem: -28 88<565.219 933.591> 589 49<1207.73 1320.07> 1140 62<606.447 944.625>
VStem: 90 215<357.639 829.974> 962 215<92.6008 566.233>
LayerCount: 2
Fore
SplineSet
765 60 m 0,0,1
 800 60 800 60 824.5 61.5 c 128,-1,2
 849 63 849 63 866 65 c 0,3,4
 885 68 885 68 898 71 c 1,5,6
 921 73 921 73 934 92 c 128,-1,7
 947 111 947 111 953 159 c 128,-1,8
 959 207 959 207 960.5 290 c 128,-1,9
 962 373 962 373 962 502 c 0,10,11
 962 528 962 528 949 543 c 128,-1,12
 936 558 936 558 916.5 566.5 c 128,-1,13
 897 575 897 575 874 579.5 c 128,-1,14
 851 584 851 584 831.5 588.5 c 128,-1,15
 812 593 812 593 799 599.5 c 128,-1,16
 786 606 786 606 786 620 c 0,17,18
 786 626 786 626 791 638 c 1,19,-1
 1317 638 l 1,20,21
 1321 623 1321 623 1321 621 c 0,22,23
 1321 607 1321 607 1310.5 600 c 128,-1,24
 1300 593 1300 593 1284 589 c 128,-1,25
 1268 585 1268 585 1249 581 c 128,-1,26
 1230 577 1230 577 1214 568.5 c 128,-1,27
 1198 560 1198 560 1187.5 544.5 c 128,-1,28
 1177 529 1177 529 1177 502 c 2,29,-1
 1177 123 l 2,30,31
 1177 97 1177 97 1141 70 c 128,-1,32
 1105 43 1105 43 1044.5 21.5 c 128,-1,33
 984 0 984 0 904 -14 c 128,-1,34
 824 -28 824 -28 737 -28 c 0,35,36
 662 -28 662 -28 584.5 -15.5 c 128,-1,37
 507 -3 507 -3 435.5 25.5 c 128,-1,38
 364 54 364 54 301 100.5 c 128,-1,39
 238 147 238 147 191 216 c 128,-1,40
 144 285 144 285 117 377.5 c 128,-1,41
 90 470 90 470 90 590 c 0,42,43
 90 747 90 747 149 862 c 128,-1,44
 208 977 208 977 306 1052.5 c 128,-1,45
 404 1128 404 1128 530.5 1165 c 128,-1,46
 657 1202 657 1202 793 1202 c 0,47,48
 851 1202 851 1202 898.5 1198 c 128,-1,49
 946 1194 946 1194 988 1186.5 c 128,-1,50
 1030 1179 1030 1179 1069.5 1166.5 c 128,-1,51
 1109 1154 1109 1154 1150 1138 c 1,52,-1
 1181 869 l 1,53,54
 1163 864 1163 864 1158 864 c 0,55,56
 1139 864 1139 864 1123.5 886.5 c 128,-1,57
 1108 909 1108 909 1095.5 938 c 128,-1,58
 1083 967 1083 967 1071.5 995.5 c 128,-1,59
 1060 1024 1060 1024 1049 1036 c 0,60,61
 1017 1070 1017 1070 981.5 1090.5 c 128,-1,62
 946 1111 946 1111 910.5 1122 c 128,-1,63
 875 1133 875 1133 841.5 1136.5 c 128,-1,64
 808 1140 808 1140 780 1140 c 0,65,66
 673 1140 673 1140 585 1101 c 128,-1,67
 497 1062 497 1062 435 994 c 128,-1,68
 373 926 373 926 339 834 c 128,-1,69
 305 742 305 742 305 636 c 0,70,71
 305 508 305 508 335 402.5 c 128,-1,72
 365 297 365 297 423 220.5 c 128,-1,73
 481 144 481 144 567 102 c 128,-1,74
 653 60 653 60 765 60 c 0,0,1
EndSplineSet
Validated: 16385
EndChar

StartChar: H
Encoding: 72 72 10
Width: 1624
Flags: W
HStem: 0 50.5<64.9375 241.061 512.243 706.194 931.969 1112.17 1382.48 1561.33> 576 60<484 1141> 1123 53<536.977 703.389 1458 1558.23>
VStem: 269 215<86.4722 576 636 1091.57> 1141 215<86.4722 576 636 1092.37>
LayerCount: 2
Fore
SplineSet
700 1176 m 1,0,1
 705 1161 705 1161 705 1158 c 0,2,3
 705 1143 705 1143 688.5 1135.5 c 128,-1,4
 672 1128 672 1128 647.5 1123 c 128,-1,5
 623 1118 623 1118 594.5 1113 c 128,-1,6
 566 1108 566 1108 541.5 1098.5 c 128,-1,7
 517 1089 517 1089 500.5 1073 c 128,-1,8
 484 1057 484 1057 484 1030 c 2,9,-1
 484 636 l 1,10,-1
 1141 636 l 1,11,-1
 1141 1030 l 2,12,13
 1141 1056 1141 1056 1125.5 1071.5 c 128,-1,14
 1110 1087 1110 1087 1087 1096.5 c 128,-1,15
 1064 1106 1064 1106 1036.5 1111.5 c 128,-1,16
 1009 1117 1009 1117 986 1122.5 c 128,-1,17
 963 1128 963 1128 947.5 1136 c 128,-1,18
 932 1144 932 1144 932 1159 c 0,19,20
 932 1161 932 1161 936 1176 c 1,21,-1
 1555 1176 l 1,22,23
 1560 1161 1560 1161 1560 1158 c 0,24,25
 1560 1144 1560 1144 1545 1136.5 c 128,-1,26
 1530 1129 1530 1129 1507 1123.5 c 128,-1,27
 1484 1118 1484 1118 1458 1112 c 128,-1,28
 1432 1106 1432 1106 1409 1096.5 c 128,-1,29
 1386 1087 1386 1087 1371 1071 c 128,-1,30
 1356 1055 1356 1055 1356 1030 c 2,31,-1
 1356 124 l 2,32,33
 1356 98 1356 98 1371.5 84 c 128,-1,34
 1387 70 1387 70 1410 63 c 128,-1,35
 1433 56 1433 56 1459.5 53 c 128,-1,36
 1486 50 1486 50 1509 46.5 c 128,-1,37
 1532 43 1532 43 1547.5 37 c 128,-1,38
 1563 31 1563 31 1563 17 c 0,39,40
 1563 13 1563 13 1559 0 c 1,41,-1
 936 0 l 1,42,43
 931 10 931 10 931 18 c 0,44,45
 931 34 931 34 946.5 41 c 128,-1,46
 962 48 962 48 985.5 50.5 c 128,-1,47
 1009 53 1009 53 1036 55 c 128,-1,48
 1063 57 1063 57 1086.5 64 c 128,-1,49
 1110 71 1110 71 1125.5 86 c 128,-1,50
 1141 101 1141 101 1141 130 c 2,51,-1
 1141 576 l 1,52,-1
 484 576 l 1,53,-1
 484 124 l 2,54,55
 484 98 484 98 500.5 84 c 128,-1,56
 517 70 517 70 542 63 c 128,-1,57
 567 56 567 56 596 53 c 128,-1,58
 625 50 625 50 650 46.5 c 128,-1,59
 675 43 675 43 691.5 37 c 128,-1,60
 708 31 708 31 708 17 c 0,61,62
 708 13 708 13 704 0 c 1,63,-1
 69 0 l 1,64,65
 64 10 64 10 64 18 c 0,66,67
 64 34 64 34 79 41 c 128,-1,68
 94 48 94 48 117 50.5 c 128,-1,69
 140 53 140 53 166.5 55 c 128,-1,70
 193 57 193 57 216 64 c 128,-1,71
 239 71 239 71 254 86 c 128,-1,72
 269 101 269 101 269 130 c 2,73,-1
 269 1030 l 2,74,75
 269 1055 269 1055 254 1070.5 c 128,-1,76
 239 1086 239 1086 216 1095.5 c 128,-1,77
 193 1105 193 1105 167 1110.5 c 128,-1,78
 141 1116 141 1116 118 1122 c 128,-1,79
 95 1128 95 1128 80 1136 c 128,-1,80
 65 1144 65 1144 65 1159 c 0,81,82
 65 1161 65 1161 69 1176 c 1,83,-1
 700 1176 l 1,0,1
EndSplineSet
Validated: 16385
EndChar

StartChar: I
Encoding: 73 73 11
Width: 764
Flags: W
HStem: 0 38.5<52.1007 182.468 563.903 730.996> 1122 54<517.9 720.765>
VStem: 273 215<81.9564 1095.41>
LayerCount: 2
Fore
SplineSet
273 1038 m 2,0,1
 273 1065 273 1065 256 1079 c 128,-1,2
 239 1093 239 1093 213.5 1101 c 128,-1,3
 188 1109 188 1109 158.5 1112.5 c 128,-1,4
 129 1116 129 1116 103.5 1120.5 c 128,-1,5
 78 1125 78 1125 61 1133.5 c 128,-1,6
 44 1142 44 1142 44 1159 c 0,7,8
 44 1161 44 1161 48 1176 c 1,9,-1
 718 1176 l 1,10,11
 722 1165 722 1165 722 1157 c 0,12,13
 722 1140 722 1140 704.5 1132.5 c 128,-1,14
 687 1125 687 1125 661 1122 c 128,-1,15
 635 1119 635 1119 605 1117 c 128,-1,16
 575 1115 575 1115 549 1108 c 128,-1,17
 523 1101 523 1101 505.5 1086.5 c 128,-1,18
 488 1072 488 1072 488 1044 c 2,19,-1
 488 124 l 2,20,21
 488 96 488 96 506 81.5 c 128,-1,22
 524 67 524 67 551 60.5 c 128,-1,23
 578 54 578 54 609.5 52.5 c 128,-1,24
 641 51 641 51 668 49 c 128,-1,25
 695 47 695 47 713 41 c 128,-1,26
 731 35 731 35 731 19 c 0,27,28
 731 15 731 15 726 0 c 1,29,-1
 56 0 l 1,30,31
 52 13 52 13 52 17 c 0,32,33
 52 32 52 32 68.5 38.5 c 128,-1,34
 85 45 85 45 109.5 48.5 c 128,-1,35
 134 52 134 52 162.5 55 c 128,-1,36
 191 58 191 58 215.5 65.5 c 128,-1,37
 240 73 240 73 256.5 88 c 128,-1,38
 273 103 273 103 273 130 c 2,39,-1
 273 1038 l 2,0,1
EndSplineSet
Validated: 16385
EndChar

StartChar: J
Encoding: 74 74 12
Width: 728
Flags: W
HStem: -310 73<120.832 213.856> 1137.5 38.5<27.0439 132.735 596.265 701.882>
VStem: -40 159<-236.375 -147.658> 257 215<-123.019 1097.79>
LayerCount: 2
Fore
SplineSet
472 117 m 2,0,1
 472 -7 472 -7 441.5 -89 c 128,-1,2
 411 -171 411 -171 363.5 -220 c 128,-1,3
 316 -269 316 -269 258.5 -289.5 c 128,-1,4
 201 -310 201 -310 146 -310 c 0,5,6
 97 -310 97 -310 61.5 -299.5 c 128,-1,7
 26 -289 26 -289 3.5 -273 c 128,-1,8
 -19 -257 -19 -257 -29.5 -237 c 128,-1,9
 -40 -217 -40 -217 -40 -197 c 0,10,11
 -40 -168 -40 -168 -18.5 -147 c 128,-1,12
 3 -126 3 -126 42 -126 c 0,13,14
 71 -126 71 -126 95 -143 c 128,-1,15
 119 -160 119 -160 119 -189 c 0,16,17
 119 -205 119 -205 132.5 -221 c 128,-1,18
 146 -237 146 -237 166 -237 c 0,19,20
 181 -237 181 -237 197 -223 c 128,-1,21
 213 -209 213 -209 226.5 -173 c 128,-1,22
 240 -137 240 -137 248.5 -76 c 128,-1,23
 257 -15 257 -15 257 79 c 2,24,-1
 257 1040 l 2,25,26
 257 1065 257 1065 240 1080 c 128,-1,27
 223 1095 223 1095 197.5 1104 c 128,-1,28
 172 1113 172 1113 142 1117 c 128,-1,29
 112 1121 112 1121 86.5 1126 c 128,-1,30
 61 1131 61 1131 44 1137.5 c 128,-1,31
 27 1144 27 1144 27 1158 c 0,32,33
 27 1164 27 1164 32 1176 c 1,34,-1
 698 1176 l 1,35,36
 702 1161 702 1161 702 1159 c 0,37,38
 702 1144 702 1144 685 1137 c 128,-1,39
 668 1130 668 1130 642.5 1125.5 c 128,-1,40
 617 1121 617 1121 587 1117 c 128,-1,41
 557 1113 557 1113 531.5 1104.5 c 128,-1,42
 506 1096 506 1096 489 1081 c 128,-1,43
 472 1066 472 1066 472 1040 c 2,44,-1
 472 117 l 2,0,1
EndSplineSet
Validated: 16385
EndChar

StartChar: K
Encoding: 75 75 13
Width: 1470
Flags: W
HStem: 0 46<46.8213 220.873 523.884 724.654 780.821 930.406> 580 56<488 574> 1125.5 50.5<537.056 718.34 1271.94 1430>
VStem: 273 215<80.9567 580 636 1097.89>
LayerCount: 2
Fore
SplineSet
488 636 m 1,0,-1
 574 636 l 1,1,-1
 1070 1052 l 1,2,3
 1074 1067 1074 1067 1074 1074 c 0,4,5
 1074 1093 1074 1093 1059.5 1103 c 128,-1,6
 1045 1113 1045 1113 1024 1117.5 c 128,-1,7
 1003 1122 1003 1122 977.5 1124 c 128,-1,8
 952 1126 952 1126 931 1128.5 c 128,-1,9
 910 1131 910 1131 895.5 1137.5 c 128,-1,10
 881 1144 881 1144 881 1158 c 0,11,12
 881 1164 881 1164 886 1176 c 1,13,-1
 1430 1176 l 1,14,-1
 1434 1158 l 1,15,16
 1434 1151 1434 1151 1422 1144 c 128,-1,17
 1410 1137 1410 1137 1390.5 1130.5 c 128,-1,18
 1371 1124 1371 1124 1345 1117.5 c 128,-1,19
 1319 1111 1319 1111 1292 1105 c 0,20,21
 1241 1094 1241 1094 1206 1078.5 c 128,-1,22
 1171 1063 1171 1063 1150 1046 c 2,23,-1
 742 704 l 1,24,-1
 1230 130 l 2,25,26
 1240 119 1240 119 1261.5 109 c 128,-1,27
 1283 99 1283 99 1310.5 89.5 c 128,-1,28
 1338 80 1338 80 1367 71.5 c 128,-1,29
 1396 63 1396 63 1419.5 54.5 c 128,-1,30
 1443 46 1443 46 1458.5 37 c 128,-1,31
 1474 28 1474 28 1474 18 c 256,32,33
 1474 8 1474 8 1470 0 c 1,34,-1
 786 0 l 1,35,36
 782 8 782 8 781 11.5 c 128,-1,37
 780 15 780 15 780 17 c 0,38,39
 780 30 780 30 793 36 c 128,-1,40
 806 42 806 42 825 46 c 128,-1,41
 844 50 844 50 867 52.5 c 128,-1,42
 890 55 890 55 909 60.5 c 128,-1,43
 928 66 928 66 941 75.5 c 128,-1,44
 954 85 954 85 954 102 c 0,45,46
 954 105 954 105 950.5 113 c 128,-1,47
 947 121 947 121 937 134 c 2,48,-1
 578 580 l 1,49,-1
 488 580 l 1,50,-1
 488 124 l 2,51,52
 488 95 488 95 505.5 80.5 c 128,-1,53
 523 66 523 66 549.5 60 c 128,-1,54
 576 54 576 54 606.5 52.5 c 128,-1,55
 637 51 637 51 663.5 49 c 128,-1,56
 690 47 690 47 707.5 41 c 128,-1,57
 725 35 725 35 725 19 c 0,58,59
 725 15 725 15 720 0 c 1,60,-1
 50 0 l 1,61,62
 46 13 46 13 46 17 c 0,63,64
 46 32 46 32 63 38.5 c 128,-1,65
 80 45 80 45 105 48.5 c 128,-1,66
 130 52 130 52 159.5 55.5 c 128,-1,67
 189 59 189 59 214 66.5 c 128,-1,68
 239 74 239 74 256 88.5 c 128,-1,69
 273 103 273 103 273 130 c 2,70,-1
 273 1040 l 2,71,72
 273 1065 273 1065 256 1080 c 128,-1,73
 239 1095 239 1095 214 1104 c 128,-1,74
 189 1113 189 1113 159 1117 c 128,-1,75
 129 1121 129 1121 104 1126 c 128,-1,76
 79 1131 79 1131 62 1137.5 c 128,-1,77
 45 1144 45 1144 45 1158 c 0,78,79
 45 1164 45 1164 50 1176 c 1,80,-1
 716 1176 l 1,81,82
 720 1161 720 1161 720 1159 c 0,83,84
 720 1144 720 1144 703 1137 c 128,-1,85
 686 1130 686 1130 660 1125.5 c 128,-1,86
 634 1121 634 1121 604 1117 c 128,-1,87
 574 1113 574 1113 548 1104.5 c 128,-1,88
 522 1096 522 1096 505 1081 c 128,-1,89
 488 1066 488 1066 488 1040 c 2,90,-1
 488 636 l 1,0,-1
EndSplineSet
Validated: 16385
EndChar

StartChar: L
Encoding: 76 76 14
Width: 1121
Flags: W
HStem: -26 21G<1032.5 1046> 0 61<47.0625 250.564 496.357 933.345> 1133 43<562.748 725.882>
VStem: 276 215<98.4722 1087.04>
LayerCount: 2
Fore
SplineSet
491 136 m 2,0,1
 491 121 491 121 493 106.5 c 128,-1,2
 495 92 495 92 500.5 80.5 c 128,-1,3
 506 69 506 69 514.5 62.5 c 128,-1,4
 523 56 523 56 536 56 c 2,5,-1
 842 67 l 2,6,7
 874 68 874 68 897.5 74 c 128,-1,8
 921 80 921 80 938.5 95 c 128,-1,9
 956 110 956 110 968.5 136.5 c 128,-1,10
 981 163 981 163 992 207 c 0,11,12
 998 232 998 232 1005 256.5 c 128,-1,13
 1012 281 1012 281 1020.5 301 c 128,-1,14
 1029 321 1029 321 1038 333.5 c 128,-1,15
 1047 346 1047 346 1057 346 c 0,16,17
 1059 346 1059 346 1062.5 345 c 128,-1,18
 1066 344 1066 344 1077 342 c 0,19,20
 1078 342 1078 342 1079 341.5 c 128,-1,21
 1080 341 1080 341 1081 341 c 2,22,-1
 1053 -20 l 2,23,24
 1052 -24 1052 -24 1049 -25 c 0,25,26
 1047 -26 1047 -26 1045 -26 c 0,27,28
 1020 -19 1020 -19 994 -13 c 0,29,30
 971 -8 971 -8 943 -4 c 128,-1,31
 915 0 915 0 886 0 c 2,32,-1
 50 0 l 1,33,34
 46 12 46 12 46 22 c 0,35,36
 46 41 46 41 63 49 c 128,-1,37
 80 57 80 57 105.5 61 c 128,-1,38
 131 65 131 65 161 67 c 128,-1,39
 191 69 191 69 216.5 76 c 128,-1,40
 242 83 242 83 259 98 c 128,-1,41
 276 113 276 113 276 142 c 2,42,-1
 276 1038 l 2,43,44
 276 1065 276 1065 262.5 1079.5 c 128,-1,45
 249 1094 249 1094 228 1102 c 128,-1,46
 207 1110 207 1110 181 1113.5 c 128,-1,47
 155 1117 155 1117 129.5 1121.5 c 128,-1,48
 104 1126 104 1126 82 1134 c 128,-1,49
 60 1142 60 1142 48 1159 c 1,50,51
 48 1161 48 1161 52 1176 c 1,52,-1
 722 1176 l 1,53,54
 726 1165 726 1165 726 1157 c 0,55,56
 726 1140 726 1140 708.5 1133 c 128,-1,57
 691 1126 691 1126 665 1123 c 128,-1,58
 639 1120 639 1120 608.5 1118 c 128,-1,59
 578 1116 578 1116 552 1109 c 128,-1,60
 526 1102 526 1102 508.5 1087.5 c 128,-1,61
 491 1073 491 1073 491 1044 c 2,62,-1
 491 136 l 2,0,1
EndSplineSet
Validated: 16385
EndChar

StartChar: M
Encoding: 77 77 15
Width: 1756
Flags: W
HStem: 0 50<40.9688 224.154 361.721 525.045> 0 36.5<1090 1211.86 1584.48 1728.96> 1138 38<1572.6 1695.96>
VStem: 257 84<80.9567 700.65> 280.5 66.5<533.638 912> 1288 183<602.274 1047> 1305 196<84.9879 561.726>
LayerCount: 2
Fore
SplineSet
807 0 m 1,0,-1
 347 912 l 1,1,-1
 341 124 l 2,2,3
 341 95 341 95 355.5 80.5 c 128,-1,4
 370 66 370 66 392.5 59.5 c 128,-1,5
 415 53 415 53 440.5 52 c 128,-1,6
 466 51 466 51 488.5 49 c 128,-1,7
 511 47 511 47 525.5 40.5 c 128,-1,8
 540 34 540 34 540 17 c 0,9,10
 540 15 540 15 536 0 c 1,11,-1
 45 0 l 1,12,13
 40 12 40 12 40 18 c 0,14,15
 40 34 40 34 55.5 40.5 c 128,-1,16
 71 47 71 47 95 50 c 128,-1,17
 119 53 119 53 146.5 55 c 128,-1,18
 174 57 174 57 198.5 64 c 128,-1,19
 223 71 223 71 239.5 86 c 128,-1,20
 256 101 256 101 257 130 c 0,21,22
 264 355 264 355 268.5 509 c 128,-1,23
 273 663 273 663 276 763 c 128,-1,24
 279 863 279 863 280.5 917.5 c 128,-1,25
 282 972 282 972 283 997 c 128,-1,26
 284 1022 284 1022 284 1026.5 c 128,-1,27
 284 1031 284 1031 284 1031 c 2,28,29
 284 1059 284 1059 267.5 1075 c 128,-1,30
 251 1091 251 1091 226.5 1100.5 c 128,-1,31
 202 1110 202 1110 173.5 1114.5 c 128,-1,32
 145 1119 145 1119 120.5 1124 c 128,-1,33
 96 1129 96 1129 79.5 1136.5 c 128,-1,34
 63 1144 63 1144 63 1159 c 1,35,36
 67 1176 l 1,37,-1
 431 1176 l 1,38,-1
 899 227 l 1,39,-1
 1285 1176 l 1,40,-1
 1691 1176 l 1,41,42
 1696 1159 1696 1159 1696 1158 c 0,43,44
 1696 1144 1696 1144 1679.5 1138 c 128,-1,45
 1663 1132 1663 1132 1638 1128 c 128,-1,46
 1613 1124 1613 1124 1583.5 1120.5 c 128,-1,47
 1554 1117 1554 1117 1529 1108.5 c 128,-1,48
 1504 1100 1504 1100 1487.5 1084 c 128,-1,49
 1471 1068 1471 1068 1471 1040 c 2,50,-1
 1501 124 l 2,51,52
 1502 97 1502 97 1519 82 c 128,-1,53
 1536 67 1536 67 1561.5 60 c 128,-1,54
 1587 53 1587 53 1616 50.5 c 128,-1,55
 1645 48 1645 48 1670.5 45 c 128,-1,56
 1696 42 1696 42 1712.5 36.5 c 128,-1,57
 1729 31 1729 31 1729 17 c 0,58,59
 1729 15 1729 15 1725 0 c 1,60,-1
 1095 0 l 1,61,62
 1090 12 1090 12 1090 18 c 0,63,64
 1090 34 1090 34 1106 40.5 c 128,-1,65
 1122 47 1122 47 1146 49.5 c 128,-1,66
 1170 52 1170 52 1197.5 53.5 c 128,-1,67
 1225 55 1225 55 1249 62 c 128,-1,68
 1273 69 1273 69 1289 84.5 c 128,-1,69
 1305 100 1305 100 1305 130 c 2,70,-1
 1288 1047 l 1,71,-1
 863 0 l 1,72,-1
 807 0 l 1,0,-1
EndSplineSet
Validated: 16385
EndChar

StartChar: N
Encoding: 78 78 16
Width: 1569
Flags: W
HStem: -16 21G<1263.5 1289.5> 0 59.5<48 220.219> 1116.5 59.5<1371.62 1521.98>
VStem: 263 99<99.0509 560.624> 288 46<541.376 952> 1235 91<406.291 1085.11> 1250 52<319 602.709>
LayerCount: 2
Fore
SplineSet
1519 1176 m 1,0,1
 1523 1167 1523 1167 1523 1154 c 0,2,3
 1523 1138 1523 1138 1508.5 1130 c 128,-1,4
 1494 1122 1494 1122 1472 1116.5 c 128,-1,5
 1450 1111 1450 1111 1424.5 1106 c 128,-1,6
 1399 1101 1399 1101 1377 1090 c 128,-1,7
 1355 1079 1355 1079 1340.5 1060 c 128,-1,8
 1326 1041 1326 1041 1326 1009 c 2,9,-1
 1302 0 l 2,10,11
 1301 -16 1301 -16 1278 -16 c 0,12,13
 1249 -16 1249 -16 1234 0 c 2,14,-1
 334 952 l 1,15,-1
 362 150 l 1,16,17
 362 116 362 116 379 98.5 c 128,-1,18
 396 81 396 81 422 72.5 c 128,-1,19
 448 64 448 64 477.5 62.5 c 128,-1,20
 507 61 507 61 533 57.5 c 128,-1,21
 559 54 559 54 576 46.5 c 128,-1,22
 593 39 593 39 593 20 c 0,23,24
 593 17 593 17 592 13 c 128,-1,25
 591 9 591 9 587 0 c 1,26,-1
 51 0 l 1,27,28
 47 9 47 9 47 22 c 0,29,30
 47 39 47 39 63 47 c 128,-1,31
 79 55 79 55 102.5 59.5 c 128,-1,32
 126 64 126 64 154 68.5 c 128,-1,33
 182 73 182 73 206 82.5 c 128,-1,34
 230 92 230 92 246 109 c 128,-1,35
 262 126 262 126 263 157 c 2,36,-1
 288 1020 l 2,37,38
 288 1047 288 1047 274 1063.5 c 128,-1,39
 260 1080 260 1080 238 1090.5 c 128,-1,40
 216 1101 216 1101 189.5 1107.5 c 128,-1,41
 163 1114 163 1114 137.5 1120.5 c 128,-1,42
 112 1127 112 1127 91.5 1135 c 128,-1,43
 71 1143 71 1143 62 1158 c 1,44,-1
 66 1176 l 1,45,-1
 438 1176 l 1,46,-1
 1250 319 l 1,47,-1
 1235 1009 l 2,48,49
 1235 1042 1235 1042 1219 1061 c 128,-1,50
 1203 1080 1203 1080 1179.5 1090.5 c 128,-1,51
 1156 1101 1156 1101 1128 1106 c 128,-1,52
 1100 1111 1100 1111 1076.5 1116 c 128,-1,53
 1053 1121 1053 1121 1037 1129.5 c 128,-1,54
 1021 1138 1021 1138 1021 1156 c 0,55,56
 1021 1158 1021 1158 1022 1161.5 c 128,-1,57
 1023 1165 1023 1165 1027 1176 c 1,58,-1
 1519 1176 l 1,0,1
EndSplineSet
Validated: 16385
EndChar

StartChar: O
Encoding: 79 79 17
Width: 1466
Flags: W
HStem: -28 64<622.241 921.059> 1140 62<554.152 853.649>
VStem: 88 215<370.792 830.115> 1162 215<345.489 815.971>
LayerCount: 2
Fore
SplineSet
303 636 m 0,0,1
 303 490 303 490 344.5 378.5 c 128,-1,2
 386 267 386 267 453.5 190.5 c 128,-1,3
 521 114 521 114 605 75 c 128,-1,4
 689 36 689 36 775 36 c 0,5,6
 850 36 850 36 920 67 c 128,-1,7
 990 98 990 98 1043.5 161 c 128,-1,8
 1097 224 1097 224 1129.5 320 c 128,-1,9
 1162 416 1162 416 1162 546 c 0,10,11
 1162 694 1162 694 1122 805 c 128,-1,12
 1082 916 1082 916 1016.5 990.5 c 128,-1,13
 951 1065 951 1065 869 1102.5 c 128,-1,14
 787 1140 787 1140 703 1140 c 0,15,16
 626 1140 626 1140 554 1109 c 128,-1,17
 482 1078 482 1078 426.5 1015 c 128,-1,18
 371 952 371 952 337 857.5 c 128,-1,19
 303 763 303 763 303 636 c 0,0,1
88 590 m 0,20,21
 88 691 88 691 113.5 776 c 128,-1,22
 139 861 139 861 184 929 c 128,-1,23
 229 997 229 997 291 1048 c 128,-1,24
 353 1099 353 1099 425 1133.5 c 128,-1,25
 497 1168 497 1168 576.5 1185 c 128,-1,26
 656 1202 656 1202 737 1202 c 0,27,28
 817 1202 817 1202 895.5 1185 c 128,-1,29
 974 1168 974 1168 1045.5 1134.5 c 128,-1,30
 1117 1101 1117 1101 1177.5 1050 c 128,-1,31
 1238 999 1238 999 1282.5 931 c 128,-1,32
 1327 863 1327 863 1352 777.5 c 128,-1,33
 1377 692 1377 692 1377 590 c 0,34,35
 1377 487 1377 487 1351.5 401 c 128,-1,36
 1326 315 1326 315 1281.5 246.5 c 128,-1,37
 1237 178 1237 178 1176 126.5 c 128,-1,38
 1115 75 1115 75 1043.5 40.5 c 128,-1,39
 972 6 972 6 893 -11 c 128,-1,40
 814 -28 814 -28 734 -28 c 0,41,42
 653 -28 653 -28 574 -11 c 128,-1,43
 495 6 495 6 423 40.5 c 128,-1,44
 351 75 351 75 290 126.5 c 128,-1,45
 229 178 229 178 184 247 c 128,-1,46
 139 316 139 316 113.5 401.5 c 128,-1,47
 88 487 88 487 88 590 c 0,20,21
EndSplineSet
Validated: 16385
EndChar

StartChar: P
Encoding: 80 80 18
Width: 1285
Flags: W
HStem: 0 50.5<56 242.279> 439 57<585.246 865.325> 1118 60<487 792.864>
VStem: 272 215<86.4722 1085.88> 1019 215<636.871 976.749>
LayerCount: 2
Fore
SplineSet
487 130 m 2,0,1
 487 101 487 101 503 86 c 128,-1,2
 519 71 519 71 543 64 c 128,-1,3
 567 57 567 57 595.5 55 c 128,-1,4
 624 53 624 53 648 50.5 c 128,-1,5
 672 48 672 48 688 41 c 128,-1,6
 704 34 704 34 704 18 c 0,7,8
 704 10 704 10 699 0 c 1,9,-1
 60 0 l 1,10,11
 55 10 55 10 55 18 c 0,12,13
 55 34 55 34 71 41 c 128,-1,14
 87 48 87 48 111 50.5 c 128,-1,15
 135 53 135 53 163.5 55 c 128,-1,16
 192 57 192 57 216 64 c 128,-1,17
 240 71 240 71 256 86 c 128,-1,18
 272 101 272 101 272 130 c 2,19,-1
 272 1022 l 2,20,21
 272 1048 272 1048 256 1064.5 c 128,-1,22
 240 1081 240 1081 216 1091.5 c 128,-1,23
 192 1102 192 1102 164 1109 c 128,-1,24
 136 1116 136 1116 112 1122.5 c 128,-1,25
 88 1129 88 1129 72 1137.5 c 128,-1,26
 56 1146 56 1146 56 1161 c 0,27,28
 56 1163 56 1163 60 1178 c 1,29,-1
 474 1178 l 2,30,31
 575 1178 575 1178 670.5 1173 c 128,-1,32
 766 1168 766 1168 850.5 1154 c 128,-1,33
 935 1140 935 1140 1005.5 1115 c 128,-1,34
 1076 1090 1076 1090 1127 1050.5 c 128,-1,35
 1178 1011 1178 1011 1206 955 c 128,-1,36
 1234 899 1234 899 1234 823 c 0,37,38
 1234 727 1234 727 1199 655 c 128,-1,39
 1164 583 1164 583 1099.5 535 c 128,-1,40
 1035 487 1035 487 945 463 c 128,-1,41
 855 439 855 439 744 439 c 0,42,43
 699 439 699 439 661.5 446.5 c 128,-1,44
 624 454 624 454 597 463 c 0,45,46
 565 474 565 474 540 487 c 1,47,-1
 542 515 l 1,48,49
 566 509 566 509 593 505 c 0,50,51
 616 501 616 501 646.5 498.5 c 128,-1,52
 677 496 677 496 712 496 c 0,53,54
 796 496 796 496 854.5 519 c 128,-1,55
 913 542 913 542 949.5 584.5 c 128,-1,56
 986 627 986 627 1002.5 687.5 c 128,-1,57
 1019 748 1019 748 1019 823 c 0,58,59
 1019 893 1019 893 995 942 c 128,-1,60
 971 991 971 991 930 1023.5 c 128,-1,61
 889 1056 889 1056 835.5 1075 c 128,-1,62
 782 1094 782 1094 723 1103.5 c 128,-1,63
 664 1113 664 1113 603 1115.5 c 128,-1,64
 542 1118 542 1118 487 1118 c 1,65,-1
 487 130 l 2,0,1
EndSplineSet
Validated: 16385
EndChar

StartChar: Q
Encoding: 81 81 19
Width: 1467
Flags: W
HStem: -346 125<1137.28 1458.68> 1140 62<561.471 858.413>
VStem: 89 215<370.337 831.667> 1162 215<356.932 819.724>
LayerCount: 2
Fore
SplineSet
89 590 m 0,0,1
 89 692 89 692 114.5 777 c 128,-1,2
 140 862 140 862 185 930 c 128,-1,3
 230 998 230 998 291.5 1049 c 128,-1,4
 353 1100 353 1100 425 1134 c 128,-1,5
 497 1168 497 1168 576.5 1185 c 128,-1,6
 656 1202 656 1202 737 1202 c 0,7,8
 817 1202 817 1202 895.5 1185 c 128,-1,9
 974 1168 974 1168 1045.5 1134.5 c 128,-1,10
 1117 1101 1117 1101 1177.5 1050 c 128,-1,11
 1238 999 1238 999 1282.5 931 c 128,-1,12
 1327 863 1327 863 1352 777.5 c 128,-1,13
 1377 692 1377 692 1377 590 c 0,14,15
 1377 499 1377 499 1354.5 420.5 c 128,-1,16
 1332 342 1332 342 1292 277 c 128,-1,17
 1252 212 1252 212 1198 161 c 128,-1,18
 1144 110 1144 110 1082 72 c 128,-1,19
 1020 34 1020 34 952 10.5 c 128,-1,20
 884 -13 884 -13 817 -22 c 1,21,-1
 1121 -169 l 2,22,23
 1179 -197 1179 -197 1235.5 -209 c 128,-1,24
 1292 -221 1292 -221 1350 -221 c 0,25,26
 1381 -221 1381 -221 1411 -219 c 128,-1,27
 1441 -217 1441 -217 1472 -215 c 0,28,29
 1477 -214 1477 -214 1483 -214 c 128,-1,30
 1489 -214 1489 -214 1497 -214 c 0,31,32
 1515 -214 1515 -214 1532.5 -218.5 c 128,-1,33
 1550 -223 1550 -223 1550 -237 c 0,34,35
 1550 -253 1550 -253 1545 -260 c 128,-1,36
 1540 -267 1540 -267 1532 -271 c 0,37,38
 1502 -286 1502 -286 1463.5 -299.5 c 128,-1,39
 1425 -313 1425 -313 1384 -323.5 c 128,-1,40
 1343 -334 1343 -334 1302 -340 c 128,-1,41
 1261 -346 1261 -346 1227 -346 c 0,42,43
 1184 -346 1184 -346 1147 -334.5 c 128,-1,44
 1110 -323 1110 -323 1065 -303 c 0,45,46
 1048 -296 1048 -296 1016 -277 c 128,-1,47
 984 -258 984 -258 945 -233 c 128,-1,48
 906 -208 906 -208 863 -178.5 c 128,-1,49
 820 -149 820 -149 781 -120.5 c 128,-1,50
 742 -92 742 -92 711 -67 c 128,-1,51
 680 -42 680 -42 665 -24 c 1,52,53
 555 -14 555 -14 451 33.5 c 128,-1,54
 347 81 347 81 266.5 160.5 c 128,-1,55
 186 240 186 240 137.5 349 c 128,-1,56
 89 458 89 458 89 590 c 0,0,1
304 636 m 0,57,58
 304 490 304 490 345.5 378 c 128,-1,59
 387 266 387 266 454 190 c 128,-1,60
 521 114 521 114 605 75 c 128,-1,61
 689 36 689 36 774 36 c 0,62,63
 849 36 849 36 919 67 c 128,-1,64
 989 98 989 98 1043 161 c 128,-1,65
 1097 224 1097 224 1129.5 320 c 128,-1,66
 1162 416 1162 416 1162 546 c 0,67,68
 1162 695 1162 695 1122.5 806.5 c 128,-1,69
 1083 918 1083 918 1019 992 c 128,-1,70
 955 1066 955 1066 873.5 1103 c 128,-1,71
 792 1140 792 1140 709 1140 c 0,72,73
 632 1140 632 1140 559 1108.5 c 128,-1,74
 486 1077 486 1077 429.5 1014 c 128,-1,75
 373 951 373 951 338.5 856.5 c 128,-1,76
 304 762 304 762 304 636 c 0,57,58
EndSplineSet
Validated: 16385
EndChar

StartChar: R
Encoding: 82 82 20
Width: 1332
Flags: W
HStem: 0 51<67.0936 244.455 1198.69 1337> 606 38<487 576.274> 1118 60<487 798.857>
VStem: 272 215<86.4722 606 644 1085.37> 949 215<752.027 1015.55>
LayerCount: 2
Fore
SplineSet
487 130 m 2,0,1
 487 101 487 101 503 86 c 128,-1,2
 519 71 519 71 543 64 c 128,-1,3
 567 57 567 57 595.5 55 c 128,-1,4
 624 53 624 53 648 50.5 c 128,-1,5
 672 48 672 48 688 41 c 128,-1,6
 704 34 704 34 704 18 c 0,7,8
 704 10 704 10 699 0 c 1,9,-1
 71 0 l 1,10,11
 66 10 66 10 66 18 c 0,12,13
 66 34 66 34 81.5 41 c 128,-1,14
 97 48 97 48 119.5 51 c 128,-1,15
 142 54 142 54 169 56 c 128,-1,16
 196 58 196 58 218.5 64.5 c 128,-1,17
 241 71 241 71 256.5 86 c 128,-1,18
 272 101 272 101 272 130 c 2,19,-1
 272 1022 l 2,20,21
 272 1047 272 1047 257 1063 c 128,-1,22
 242 1079 242 1079 219 1089.5 c 128,-1,23
 196 1100 196 1100 169.5 1107 c 128,-1,24
 143 1114 143 1114 120 1121 c 128,-1,25
 97 1128 97 1128 82 1137 c 128,-1,26
 67 1146 67 1146 67 1161 c 0,27,28
 67 1163 67 1163 71 1178 c 1,29,-1
 485 1178 l 2,30,31
 561 1178 561 1178 641 1174 c 128,-1,32
 721 1170 721 1170 796.5 1158.5 c 128,-1,33
 872 1147 872 1147 938.5 1126.5 c 128,-1,34
 1005 1106 1005 1106 1055.5 1073 c 128,-1,35
 1106 1040 1106 1040 1135 993 c 128,-1,36
 1164 946 1164 946 1164 882 c 0,37,38
 1164 811 1164 811 1133 760 c 128,-1,39
 1102 709 1102 709 1052.5 674.5 c 128,-1,40
 1003 640 1003 640 942 621 c 128,-1,41
 881 602 881 602 822 596 c 1,42,-1
 1108 150 l 2,43,44
 1124 124 1124 124 1150 105 c 128,-1,45
 1176 86 1176 86 1205 73.5 c 128,-1,46
 1234 61 1234 61 1263.5 54.5 c 128,-1,47
 1293 48 1293 48 1317 47 c 0,48,49
 1334 46 1334 46 1338.5 36.5 c 128,-1,50
 1343 27 1343 27 1344 19 c 0,51,52
 1344 14 1344 14 1340 6 c 2,53,-1
 1337 0 l 1,54,-1
 946 0 l 1,55,56
 928 25 928 25 904.5 65.5 c 128,-1,57
 881 106 881 106 854 155 c 128,-1,58
 827 204 827 204 797 260 c 128,-1,59
 767 316 767 316 737 372.5 c 128,-1,60
 707 429 707 429 678 483 c 128,-1,61
 649 537 649 537 624 584 c 1,62,-1
 487 606 l 1,63,-1
 487 130 l 2,0,1
487 644 m 1,64,65
 600 649 600 649 686.5 661.5 c 128,-1,66
 773 674 773 674 831.5 700.5 c 128,-1,67
 890 727 890 727 919.5 772 c 128,-1,68
 949 817 949 817 949 887 c 0,69,70
 949 963 949 963 917.5 1008.5 c 128,-1,71
 886 1054 886 1054 827 1078.5 c 128,-1,72
 768 1103 768 1103 682 1110.5 c 128,-1,73
 596 1118 596 1118 487 1118 c 1,74,-1
 487 644 l 1,64,65
EndSplineSet
Validated: 16385
EndChar

StartChar: S
Encoding: 83 83 21
Width: 1041
Flags: W
HStem: -28 64<388.712 693.94> 876 21G<853 862.5> 1140 62<366.963 671.532>
VStem: 118 59.5<208.688 368.607> 119 157<840 1047.02> 781 174<143.705 333.047>
LayerCount: 2
Fore
SplineSet
334 581 m 2,0,1
 224 643 224 643 171.5 718.5 c 128,-1,2
 119 794 119 794 119 886 c 0,3,4
 119 972 119 972 154 1032 c 128,-1,5
 189 1092 189 1092 247.5 1130 c 128,-1,6
 306 1168 306 1168 381.5 1185 c 128,-1,7
 457 1202 457 1202 537 1202 c 0,8,9
 622 1202 622 1202 704.5 1185 c 128,-1,10
 787 1168 787 1168 855 1138 c 1,11,-1
 885 881 l 1,12,13
 867 876 867 876 858 876 c 0,14,15
 848 876 848 876 839 884.5 c 128,-1,16
 830 893 830 893 822.5 906 c 128,-1,17
 815 919 815 919 809.5 934 c 128,-1,18
 804 949 804 949 801 961 c 0,19,20
 791 1007 791 1007 763 1041 c 128,-1,21
 735 1075 735 1075 696 1097 c 128,-1,22
 657 1119 657 1119 610.5 1129.5 c 128,-1,23
 564 1140 564 1140 517 1140 c 256,24,25
 470 1140 470 1140 427 1130 c 128,-1,26
 384 1120 384 1120 350 1100.5 c 128,-1,27
 316 1081 316 1081 296 1053.5 c 128,-1,28
 276 1026 276 1026 276 990 c 0,29,30
 276 950 276 950 301.5 912.5 c 128,-1,31
 327 875 327 875 383 842 c 2,32,-1
 719 641 l 2,33,34
 790 599 790 599 835.5 562.5 c 128,-1,35
 881 526 881 526 907.5 489 c 128,-1,36
 934 452 934 452 944.5 411 c 128,-1,37
 955 370 955 370 955 319 c 0,38,39
 955 224 955 224 918.5 158 c 128,-1,40
 882 92 882 92 821.5 50.5 c 128,-1,41
 761 9 761 9 682 -9.5 c 128,-1,42
 603 -28 603 -28 518 -28 c 0,43,44
 461 -28 461 -28 403 -20.5 c 128,-1,45
 345 -13 345 -13 290.5 1.5 c 128,-1,46
 236 16 236 16 186.5 36 c 128,-1,47
 137 56 137 56 97 80 c 1,48,-1
 118 366 l 1,49,50
 135 371 135 371 139 371 c 0,51,52
 148 371 148 371 155.5 362 c 128,-1,53
 163 353 163 353 168.5 339.5 c 128,-1,54
 174 326 174 326 177.5 310.5 c 128,-1,55
 181 295 181 295 183 282 c 0,56,57
 190 226 190 226 226 181 c 128,-1,58
 262 136 262 136 315 103.5 c 128,-1,59
 368 71 368 71 431 53.5 c 128,-1,60
 494 36 494 36 555 36 c 0,61,62
 601 36 601 36 642 47 c 128,-1,63
 683 58 683 58 714 80.5 c 128,-1,64
 745 103 745 103 763 138 c 128,-1,65
 781 173 781 173 781 222 c 0,66,67
 781 259 781 259 767.5 288 c 128,-1,68
 754 317 754 317 725.5 344 c 128,-1,69
 697 371 697 371 652.5 399 c 128,-1,70
 608 427 608 427 545 462 c 2,71,-1
 334 581 l 2,0,1
EndSplineSet
Validated: 16385
EndChar

StartChar: T
Encoding: 84 84 22
Width: 1180
Flags: W
HStem: 0 41.5<241.149 404.874 753.392 918.654> 868 21G<55 61 1123.5 1131.5> 1112 61<172.665 470 685 1022.75>
VStem: 470 215<85.4724 1120>
LayerCount: 2
Fore
SplineSet
73 1189 m 1,0,1
 82 1189 82 1189 89 1190 c 0,2,3
 95 1190 95 1190 101 1190.5 c 128,-1,4
 107 1191 107 1191 109 1191 c 0,5,6
 140 1191 140 1191 166 1184.5 c 128,-1,7
 192 1178 192 1178 225 1173 c 1,8,-1
 581 1176 l 1,9,-1
 979 1179 l 2,10,11
 989 1179 989 1179 1002.5 1181 c 128,-1,12
 1016 1183 1016 1183 1029.5 1186 c 128,-1,13
 1043 1189 1043 1189 1054.5 1191 c 128,-1,14
 1066 1193 1066 1193 1072 1193 c 2,15,-1
 1100 1193 l 1,16,-1
 1145 872 l 1,17,18
 1136 868 1136 868 1127 868 c 0,19,20
 1120 868 1120 868 1112.5 877.5 c 128,-1,21
 1105 887 1105 887 1098 902 c 128,-1,22
 1091 917 1091 917 1084.5 934.5 c 128,-1,23
 1078 952 1078 952 1073 969 c 0,24,25
 1063 1002 1063 1002 1053 1028 c 128,-1,26
 1043 1054 1043 1054 1030 1072.5 c 128,-1,27
 1017 1091 1017 1091 999.5 1101 c 128,-1,28
 982 1111 982 1111 958 1112 c 2,29,-1
 685 1120 l 1,30,-1
 685 124 l 2,31,32
 685 98 685 98 702.5 84.5 c 128,-1,33
 720 71 720 71 746 64 c 128,-1,34
 772 57 772 57 802 54.5 c 128,-1,35
 832 52 832 52 858 49 c 128,-1,36
 884 46 884 46 901.5 39 c 128,-1,37
 919 32 919 32 919 17 c 0,38,39
 919 13 919 13 915 0 c 1,40,-1
 245 0 l 1,41,42
 241 8 241 8 241 18 c 0,43,44
 241 35 241 35 258 41.5 c 128,-1,45
 275 48 275 48 300.5 50.5 c 128,-1,46
 326 53 326 53 355.5 55 c 128,-1,47
 385 57 385 57 410.5 63.5 c 128,-1,48
 436 70 436 70 453 85 c 128,-1,49
 470 100 470 100 470 130 c 2,50,-1
 470 1120 l 1,51,-1
 239 1112 l 2,52,53
 214 1111 214 1111 196 1100.5 c 128,-1,54
 178 1090 178 1090 164 1071.5 c 128,-1,55
 150 1053 150 1053 138.5 1027 c 128,-1,56
 127 1001 127 1001 116 969 c 0,57,58
 110 952 110 952 103 934 c 128,-1,59
 96 916 96 916 88.5 901.5 c 128,-1,60
 81 887 81 887 73 877.5 c 128,-1,61
 65 868 65 868 57 868 c 0,62,63
 53 868 53 868 40 872 c 1,64,-1
 73 1189 l 1,0,1
EndSplineSet
Validated: 16385
EndChar

StartChar: U
Encoding: 85 85 23
Width: 1550
Flags: W
HStem: -28 89<678.902 997.606> 1123 53<495.793 668.329 1359.63 1562.62>
VStem: 226 215<319.234 1083.95> 1257 68<323.359 1091.2>
LayerCount: 2
Fore
SplineSet
1325 526 m 2,0,1
 1325 434 1325 434 1303 356.5 c 128,-1,2
 1281 279 1281 279 1242.5 217.5 c 128,-1,3
 1204 156 1204 156 1151.5 110 c 128,-1,4
 1099 64 1099 64 1037 33.5 c 128,-1,5
 975 3 975 3 907 -12.5 c 128,-1,6
 839 -28 839 -28 770 -28 c 0,7,8
 668 -28 668 -28 570 5.5 c 128,-1,9
 472 39 472 39 395.5 106 c 128,-1,10
 319 173 319 173 272.5 273.5 c 128,-1,11
 226 374 226 374 226 508 c 2,12,-1
 226 1020 l 2,13,14
 226 1046 226 1046 210.5 1062 c 128,-1,15
 195 1078 195 1078 171.5 1089 c 128,-1,16
 148 1100 148 1100 120.5 1106.5 c 128,-1,17
 93 1113 93 1113 69.5 1120 c 128,-1,18
 46 1127 46 1127 30.5 1135.5 c 128,-1,19
 15 1144 15 1144 15 1159 c 0,20,21
 15 1162 15 1162 16 1165 c 128,-1,22
 17 1168 17 1168 21 1176 c 1,23,-1
 665 1176 l 1,24,25
 670 1161 670 1161 670 1158 c 0,26,27
 670 1143 670 1143 653 1135.5 c 128,-1,28
 636 1128 636 1128 610.5 1123 c 128,-1,29
 585 1118 585 1118 555.5 1113 c 128,-1,30
 526 1108 526 1108 500.5 1098.5 c 128,-1,31
 475 1089 475 1089 458 1073 c 128,-1,32
 441 1057 441 1057 441 1030 c 2,33,-1
 441 554 l 2,34,35
 441 431 441 431 477 339 c 128,-1,36
 513 247 513 247 572.5 185 c 128,-1,37
 632 123 632 123 707 92 c 128,-1,38
 782 61 782 61 860 61 c 0,39,40
 935 61 935 61 1006.5 90 c 128,-1,41
 1078 119 1078 119 1133.5 177 c 128,-1,42
 1189 235 1189 235 1223 323 c 128,-1,43
 1257 411 1257 411 1257 528 c 2,44,-1
 1257 1036 l 2,45,46
 1257 1063 1257 1063 1240.5 1078.5 c 128,-1,47
 1224 1094 1224 1094 1199 1102.5 c 128,-1,48
 1174 1111 1174 1111 1145 1115.5 c 128,-1,49
 1116 1120 1116 1120 1091 1124.5 c 128,-1,50
 1066 1129 1066 1129 1049.5 1136.5 c 128,-1,51
 1033 1144 1033 1144 1033 1159 c 0,52,53
 1033 1161 1033 1161 1037 1176 c 1,54,-1
 1559 1176 l 1,55,56
 1564 1161 1564 1161 1564 1157 c 0,57,58
 1564 1142 1564 1142 1546.5 1135 c 128,-1,59
 1529 1128 1529 1128 1502 1124.5 c 128,-1,60
 1475 1121 1475 1121 1444.5 1118 c 128,-1,61
 1414 1115 1414 1115 1387 1107.5 c 128,-1,62
 1360 1100 1360 1100 1342.5 1085 c 128,-1,63
 1325 1070 1325 1070 1325 1042 c 2,64,-1
 1325 526 l 2,0,1
EndSplineSet
Validated: 16385
EndChar

StartChar: V
Encoding: 86 86 24
Width: 1345
Flags: W
HStem: -12 21G<664 693> 1115.5 60.5<1201.88 1390.47> 1135 41<812.385 864.609>
LayerCount: 2
Fore
SplineSet
191 1020 m 2,0,1
 177 1050 177 1050 150 1066.5 c 128,-1,2
 123 1083 123 1083 91 1094 c 128,-1,3
 59 1105 59 1105 27 1116 c 128,-1,4
 -5 1127 -5 1127 -29 1146 c 1,5,-1
 -23 1176 l 1,6,-1
 605 1176 l 1,7,8
 606 1173 606 1173 608.5 1167 c 128,-1,9
 611 1161 611 1161 613 1155.5 c 128,-1,10
 615 1150 615 1150 617 1145.5 c 128,-1,11
 619 1141 619 1141 619 1140 c 0,12,13
 619 1128 619 1128 598 1120 c 128,-1,14
 577 1112 577 1112 548.5 1106.5 c 128,-1,15
 520 1101 520 1101 490 1097 c 128,-1,16
 460 1093 460 1093 442 1089 c 0,17,18
 400 1080 400 1080 400 1050 c 0,19,20
 400 1041 400 1041 405 1028 c 2,21,-1
 740 209 l 1,22,-1
 1041 997 l 2,23,24
 1047 1012 1047 1012 1049.5 1023.5 c 128,-1,25
 1052 1035 1052 1035 1052 1044 c 0,26,27
 1052 1069 1052 1069 1032.5 1078 c 128,-1,28
 1013 1087 1013 1087 980.5 1091.5 c 128,-1,29
 948 1096 948 1096 906 1103.5 c 128,-1,30
 864 1111 864 1111 819 1135 c 1,31,32
 812 1136 812 1136 812 1150 c 0,33,34
 812 1162 812 1162 819 1176 c 1,35,-1
 1385 1176 l 1,36,37
 1391 1166 1391 1166 1391 1150 c 0,38,39
 1391 1139 1391 1139 1378.5 1130.5 c 128,-1,40
 1366 1122 1366 1122 1347.5 1115.5 c 128,-1,41
 1329 1109 1329 1109 1306.5 1105 c 128,-1,42
 1284 1101 1284 1101 1265 1099 c 1,43,44
 1228 1093 1228 1093 1207 1087 c 128,-1,45
 1186 1081 1186 1081 1173 1071.5 c 128,-1,46
 1160 1062 1160 1062 1152.5 1047 c 128,-1,47
 1145 1032 1145 1032 1136 1009 c 2,48,-1
 1128 989 l 1,49,-1
 717 8 l 2,50,51
 708 -12 708 -12 678 -12 c 0,52,53
 650 -12 650 -12 641 8 c 2,54,-1
 191 1020 l 2,0,1
EndSplineSet
Validated: 16385
EndChar

StartChar: W
Encoding: 87 87 25
Width: 1834
Flags: W
HStem: -12 21G<576 607 1267 1299> 1126.5 49.5<420.102 561.25 1123.89 1270.11> 1148 28<701 730.361 1395.44 1431.55>
LayerCount: 2
Fore
SplineSet
939 900 m 1,0,-1
 629 8 l 2,1,2
 623 -12 623 -12 591 -12 c 0,3,4
 561 -12 561 -12 553 8 c 2,5,-1
 173 1020 l 2,6,7
 161 1053 161 1053 135 1071.5 c 128,-1,8
 109 1090 109 1090 79.5 1102.5 c 128,-1,9
 50 1115 50 1115 21 1126 c 128,-1,10
 -8 1137 -8 1137 -27 1156 c 1,11,-1
 -21 1176 l 1,12,-1
 557 1176 l 1,13,14
 562 1161 562 1161 562 1158 c 0,15,16
 562 1143 562 1143 550 1136.5 c 128,-1,17
 538 1130 538 1130 520.5 1126.5 c 128,-1,18
 503 1123 503 1123 482.5 1121 c 128,-1,19
 462 1119 462 1119 444.5 1113.5 c 128,-1,20
 427 1108 427 1108 415 1098 c 128,-1,21
 403 1088 403 1088 403 1068 c 0,22,23
 403 1057 403 1057 407 1046 c 2,24,-1
 663 324 l 1,25,-1
 905 969 l 1,26,-1
 861 1077 l 1,27,28
 847 1090 847 1090 827.5 1098.5 c 128,-1,29
 808 1107 808 1107 787 1114.5 c 128,-1,30
 766 1122 766 1122 743.5 1129.5 c 128,-1,31
 721 1137 721 1137 701 1148 c 1,32,33
 695 1149 695 1149 695 1158 c 1,34,-1
 701 1176 l 1,35,-1
 1278 1176 l 1,36,37
 1283 1161 1283 1161 1283 1158 c 0,38,39
 1283 1142 1283 1142 1270.5 1135 c 128,-1,40
 1258 1128 1258 1128 1238.5 1125 c 128,-1,41
 1219 1122 1219 1122 1197 1121 c 128,-1,42
 1175 1120 1175 1120 1155.5 1116 c 128,-1,43
 1136 1112 1136 1112 1123.5 1102.5 c 128,-1,44
 1111 1093 1111 1093 1111 1074 c 0,45,46
 1111 1060 1111 1060 1116 1046 c 2,47,-1
 1345 326 l 1,48,-1
 1578 1052 l 2,49,50
 1581 1064 1581 1064 1581 1073 c 0,51,52
 1581 1101 1581 1101 1565.5 1109.5 c 128,-1,53
 1550 1118 1550 1118 1524.5 1120.5 c 128,-1,54
 1499 1123 1499 1123 1466.5 1126.5 c 128,-1,55
 1434 1130 1434 1130 1400 1148 c 0,56,57
 1395 1150 1395 1150 1395 1158 c 0,58,59
 1395 1164 1395 1164 1400 1176 c 1,60,-1
 1865 1176 l 1,61,62
 1881 1172 1881 1172 1881 1166 c 0,63,64
 1881 1154 1881 1154 1864.5 1147 c 128,-1,65
 1848 1140 1848 1140 1823 1134 c 128,-1,66
 1798 1128 1798 1128 1768.5 1122 c 128,-1,67
 1739 1116 1739 1116 1711.5 1107 c 128,-1,68
 1684 1098 1684 1098 1663 1083.5 c 128,-1,69
 1642 1069 1642 1069 1635 1046 c 2,70,-1
 1321 8 l 2,71,72
 1315 -10 1315 -10 1283 -10 c 256,73,74
 1251 -10 1251 -10 1245 8 c 2,75,-1
 939 900 l 1,0,-1
EndSplineSet
Validated: 16385
EndChar

StartChar: X
Encoding: 88 88 26
Width: 1281
Flags: W
HStem: 0 48.5<8.0874 158.125 657.367 805.925> 1126 50<516.245 652.031 1147 1234.05>
LayerCount: 2
Fore
SplineSet
1232 1176 m 1,0,1
 1236 1165 1236 1165 1236 1157 c 0,2,3
 1236 1150 1236 1150 1226.5 1144 c 128,-1,4
 1217 1138 1217 1138 1203 1133 c 128,-1,5
 1189 1128 1189 1128 1174 1124 c 128,-1,6
 1159 1120 1159 1120 1147 1117 c 0,7,8
 1096 1105 1096 1105 1057 1090 c 128,-1,9
 1018 1075 1018 1075 992 1040 c 2,10,-1
 713 666 l 1,11,-1
 1066 124 l 2,12,13
 1078 105 1078 105 1091 93 c 128,-1,14
 1104 81 1104 81 1120 73.5 c 128,-1,15
 1136 66 1136 66 1156 61.5 c 128,-1,16
 1176 57 1176 57 1203 53 c 0,17,18
 1216 51 1216 51 1231.5 48 c 128,-1,19
 1247 45 1247 45 1261 40.5 c 128,-1,20
 1275 36 1275 36 1284.5 30 c 128,-1,21
 1294 24 1294 24 1294 17 c 0,22,23
 1294 13 1294 13 1290 0 c 1,24,-1
 660 0 l 1,25,26
 656 8 656 8 656 18 c 0,27,28
 656 29 656 29 670 36 c 128,-1,29
 684 43 684 43 705.5 48.5 c 128,-1,30
 727 54 727 54 751.5 59 c 128,-1,31
 776 64 776 64 797.5 70 c 128,-1,32
 819 76 819 76 833 85 c 128,-1,33
 847 94 847 94 847 107 c 0,34,35
 847 117 847 117 840 130 c 1,36,-1
 593 506 l 1,37,-1
 308 124 l 2,38,39
 298 111 298 111 298 103 c 0,40,41
 298 89 298 89 318 80.5 c 128,-1,42
 338 72 338 72 365.5 65 c 128,-1,43
 393 58 393 58 422.5 50 c 128,-1,44
 452 42 452 42 472 28 c 0,45,46
 476 25 476 25 476 17 c 0,47,48
 476 13 476 13 472 0 c 1,49,-1
 10 0 l 1,50,51
 6 8 6 8 6 18 c 0,52,53
 6 25 6 25 15.5 31 c 128,-1,54
 25 37 25 37 38.5 42 c 128,-1,55
 52 47 52 47 67.5 51 c 128,-1,56
 83 55 83 55 95 57 c 0,57,58
 121 61 121 61 140 66.5 c 128,-1,59
 159 72 159 72 174.5 80 c 128,-1,60
 190 88 190 88 203 100 c 128,-1,61
 216 112 216 112 230 130 c 2,62,-1
 556 563 l 1,63,-1
 244 1030 l 2,64,65
 232 1047 232 1047 211.5 1059 c 128,-1,66
 191 1071 191 1071 167.5 1079.5 c 128,-1,67
 144 1088 144 1088 119.5 1094.5 c 128,-1,68
 95 1101 95 1101 75 1108.5 c 128,-1,69
 55 1116 55 1116 42.5 1125.5 c 128,-1,70
 30 1135 30 1135 30 1149 c 0,71,72
 30 1151 30 1151 31 1155.5 c 128,-1,73
 32 1160 32 1160 34 1176 c 1,74,-1
 650 1176 l 1,75,76
 654 1165 654 1165 654 1158 c 0,77,78
 654 1148 654 1148 640 1140.5 c 128,-1,79
 626 1133 626 1133 604.5 1126 c 128,-1,80
 583 1119 583 1119 558 1113 c 128,-1,81
 533 1107 533 1107 511.5 1099.5 c 128,-1,82
 490 1092 490 1092 476 1083 c 128,-1,83
 462 1074 462 1074 462 1062 c 0,84,85
 462 1054 462 1054 470 1040 c 2,86,-1
 676 722 l 1,87,-1
 916 1040 l 2,88,89
 925 1052 925 1052 925 1063 c 0,90,91
 925 1077 925 1077 902.5 1086.5 c 128,-1,92
 880 1096 880 1096 849 1105 c 128,-1,93
 818 1114 818 1114 786.5 1124 c 128,-1,94
 755 1134 755 1134 736 1148 c 0,95,96
 732 1151 732 1151 732 1159 c 0,97,98
 732 1161 732 1161 736 1176 c 1,99,-1
 1232 1176 l 1,0,1
EndSplineSet
Validated: 16385
EndChar

StartChar: Y
Encoding: 89 89 27
Width: 1139
Flags: W
HStem: 0 37<234.017 355.911 777.023 912.932> 1126 50<472.322 603.031 1023.28 1184.56>
VStem: 465 215<86.4722 530>
LayerCount: 2
Fore
SplineSet
465 530 m 1,0,-1
 185 1030 l 2,1,2
 180 1039 180 1039 162.5 1050.5 c 128,-1,3
 145 1062 145 1062 121 1075.5 c 128,-1,4
 97 1089 97 1089 70.5 1102.5 c 128,-1,5
 44 1116 44 1116 22 1127.5 c 128,-1,6
 0 1139 0 1139 -14.5 1147.5 c 128,-1,7
 -29 1156 -29 1156 -29 1159 c 0,8,9
 -29 1161 -29 1161 -25 1176 c 1,10,-1
 601 1176 l 1,11,12
 605 1165 605 1165 605 1158 c 0,13,14
 605 1148 605 1148 591 1140.5 c 128,-1,15
 577 1133 577 1133 556 1126 c 128,-1,16
 535 1119 535 1119 510.5 1112.5 c 128,-1,17
 486 1106 486 1106 465 1098.5 c 128,-1,18
 444 1091 444 1091 430 1081.5 c 128,-1,19
 416 1072 416 1072 416 1059 c 0,20,21
 416 1050 416 1050 421 1040 c 2,22,-1
 651 630 l 1,23,-1
 865 1040 l 2,24,25
 871 1050 871 1050 871 1060 c 0,26,27
 871 1078 871 1078 850.5 1088 c 128,-1,28
 830 1098 830 1098 801 1105.5 c 128,-1,29
 772 1113 772 1113 740.5 1122 c 128,-1,30
 709 1131 709 1131 687 1148 c 0,31,32
 683 1151 683 1151 683 1159 c 0,33,34
 683 1161 683 1161 687 1176 c 1,35,-1
 1183 1176 l 1,36,37
 1187 1165 1187 1165 1187 1157 c 0,38,39
 1187 1151 1187 1151 1177.5 1145 c 128,-1,40
 1168 1139 1168 1139 1154 1133.5 c 128,-1,41
 1140 1128 1140 1128 1124 1124.5 c 128,-1,42
 1108 1121 1108 1121 1096 1119 c 0,43,44
 1042 1110 1042 1110 1005 1094 c 128,-1,45
 968 1078 968 1078 946 1040 c 2,46,-1
 680 580 l 1,47,-1
 680 124 l 2,48,49
 680 98 680 98 697.5 84 c 128,-1,50
 715 70 715 70 740.5 63 c 128,-1,51
 766 56 766 56 796.5 53 c 128,-1,52
 827 50 827 50 852.5 46.5 c 128,-1,53
 878 43 878 43 895.5 37 c 128,-1,54
 913 31 913 31 913 17 c 0,55,56
 913 13 913 13 909 0 c 1,57,-1
 239 0 l 1,58,59
 234 10 234 10 234 18 c 0,60,61
 234 34 234 34 251 41 c 128,-1,62
 268 48 268 48 294 50.5 c 128,-1,63
 320 53 320 53 349.5 55 c 128,-1,64
 379 57 379 57 405 64 c 128,-1,65
 431 71 431 71 448 86 c 128,-1,66
 465 101 465 101 465 130 c 2,67,-1
 465 530 l 1,0,-1
EndSplineSet
Validated: 16385
EndChar

StartChar: a
Encoding: 97 97 28
Width: 991
Flags: W
HStem: -17 81<298 485.562> 426 33<564.461 616> 846 56<325.75 543.44>
VStem: 68 217<84.7387 288.768> 103 175<636.507 801.49> 616 206<99.3462 135 136.277 426 452.665 755.163>
LayerCount: 2
Fore
SplineSet
440 846 m 0,0,1
 421 846 421 846 393 840.5 c 128,-1,2
 365 835 365 835 339.5 824.5 c 128,-1,3
 314 814 314 814 296 798.5 c 128,-1,4
 278 783 278 783 278 764 c 0,5,6
 278 746 278 746 288 723 c 128,-1,7
 298 700 298 700 298 674 c 0,8,9
 298 625 298 625 271 602 c 128,-1,10
 244 579 244 579 210 579 c 0,11,12
 190 579 190 579 171 586 c 128,-1,13
 152 593 152 593 137 607 c 128,-1,14
 122 621 122 621 112.5 641.5 c 128,-1,15
 103 662 103 662 103 689 c 0,16,17
 103 734 103 734 122.5 767.5 c 128,-1,18
 142 801 142 801 173 824.5 c 128,-1,19
 204 848 204 848 243.5 863 c 128,-1,20
 283 878 283 878 323 886.5 c 128,-1,21
 363 895 363 895 399.5 898.5 c 128,-1,22
 436 902 436 902 463 902 c 0,23,24
 551 902 551 902 618.5 882.5 c 128,-1,25
 686 863 686 863 731 819 c 128,-1,26
 776 775 776 775 799 703.5 c 128,-1,27
 822 632 822 632 822 528 c 2,28,-1
 822 131 l 2,29,30
 822 110 822 110 833 99 c 128,-1,31
 844 88 844 88 860.5 83 c 128,-1,32
 877 78 877 78 896.5 76.5 c 128,-1,33
 916 75 916 75 932.5 73.5 c 128,-1,34
 949 72 949 72 960 68 c 128,-1,35
 971 64 971 64 971 53 c 0,36,37
 971 36 971 36 951.5 23 c 128,-1,38
 932 10 932 10 900.5 1 c 128,-1,39
 869 -8 869 -8 830 -12.5 c 128,-1,40
 791 -17 791 -17 752 -17 c 0,41,42
 719 -17 719 -17 694.5 -3.5 c 128,-1,43
 670 10 670 10 654 32 c 128,-1,44
 638 54 638 54 630 81 c 128,-1,45
 622 108 622 108 622 135 c 1,46,47
 601 100 601 100 565.5 71.5 c 128,-1,48
 530 43 530 43 486.5 23.5 c 128,-1,49
 443 4 443 4 394 -6.5 c 128,-1,50
 345 -17 345 -17 298 -17 c 0,51,52
 238 -17 238 -17 194.5 -3.5 c 128,-1,53
 151 10 151 10 123 33.5 c 128,-1,54
 95 57 95 57 81.5 87.5 c 128,-1,55
 68 118 68 118 68 153 c 0,56,57
 68 224 68 224 101 273.5 c 128,-1,58
 134 323 134 323 201.5 357.5 c 128,-1,59
 269 392 269 392 372 415.5 c 128,-1,60
 475 439 475 439 616 459 c 1,61,-1
 616 588 l 2,62,63
 616 637 616 637 611.5 683.5 c 128,-1,64
 607 730 607 730 589.5 766 c 128,-1,65
 572 802 572 802 537 824 c 128,-1,66
 502 846 502 846 440 846 c 0,0,1
616 426 m 1,67,68
 521 399 521 399 457.5 372.5 c 128,-1,69
 394 346 394 346 356 317 c 128,-1,70
 318 288 318 288 301.5 255 c 128,-1,71
 285 222 285 222 285 183 c 0,72,73
 285 117 285 117 313 90.5 c 128,-1,74
 341 64 341 64 384 64 c 0,75,76
 410 64 410 64 440 72.5 c 128,-1,77
 470 81 470 81 501 95.5 c 128,-1,78
 532 110 532 110 561.5 129.5 c 128,-1,79
 591 149 591 149 616 171 c 1,80,-1
 616 426 l 1,67,68
EndSplineSet
Validated: 16385
Substitution2: "'smcp' Lowercase to Small Capitals in Latin lookup 3 subtable" a.sc
EndChar

StartChar: b
Encoding: 98 98 29
Width: 1114
Flags: W
HStem: -17 81<410.009 724.24> 790 112<502.122 733.712> 1294 20G<247.286 361>
VStem: 155 206<105.802 691.398 729 1170.4> 832 205<208.251 657.283>
LayerCount: 2
Fore
SplineSet
155 1122 m 2,0,1
 155 1139 155 1139 140.5 1151.5 c 128,-1,2
 126 1164 126 1164 104 1173 c 128,-1,3
 82 1182 82 1182 57 1188.5 c 128,-1,4
 32 1195 32 1195 10 1201 c 128,-1,5
 -12 1207 -12 1207 -26.5 1213 c 128,-1,6
 -41 1219 -41 1219 -41 1227 c 256,7,8
 -41 1235 -41 1235 -37 1244 c 1,9,-1
 361 1314 l 1,10,-1
 361 729 l 1,11,12
 397 777 397 777 443 815 c 0,13,14
 462 831 462 831 485 846.5 c 128,-1,15
 508 862 508 862 534.5 874.5 c 128,-1,16
 561 887 561 887 590.5 894.5 c 128,-1,17
 620 902 620 902 652 902 c 0,18,19
 726 902 726 902 795.5 868 c 128,-1,20
 865 834 865 834 918.5 773.5 c 128,-1,21
 972 713 972 713 1004.5 628.5 c 128,-1,22
 1037 544 1037 544 1037 443 c 0,23,24
 1037 326 1037 326 1005 239.5 c 128,-1,25
 973 153 973 153 918 96 c 128,-1,26
 863 39 863 39 790 11 c 128,-1,27
 717 -17 717 -17 635 -17 c 0,28,29
 574 -17 574 -17 515.5 -6.5 c 128,-1,30
 457 4 457 4 410 17 c 0,31,32
 355 32 355 32 306 51 c 1,33,34
 296 43 296 43 279.5 31.5 c 128,-1,35
 263 20 263 20 244.5 9.5 c 128,-1,36
 226 -1 226 -1 208 -9 c 128,-1,37
 190 -17 190 -17 176 -17 c 256,38,39
 162 -17 162 -17 158.5 -6.5 c 128,-1,40
 155 4 155 4 155 20 c 2,41,-1
 155 1122 l 2,0,1
832 433 m 0,42,43
 832 527 832 527 815.5 594.5 c 128,-1,44
 799 662 799 662 769 705.5 c 128,-1,45
 739 749 739 749 696.5 769.5 c 128,-1,46
 654 790 654 790 602 790 c 0,47,48
 549 790 549 790 505 766 c 128,-1,49
 461 742 461 742 429 713 c 0,50,51
 391 680 391 680 361 637 c 1,52,-1
 361 134 l 1,53,54
 385 114 385 114 421 99 c 1,55,56
 452 85 452 85 498.5 74.5 c 128,-1,57
 545 64 545 64 610 64 c 0,58,59
 667 64 667 64 709 92.5 c 128,-1,60
 751 121 751 121 778.5 170.5 c 128,-1,61
 806 220 806 220 819 287.5 c 128,-1,62
 832 355 832 355 832 433 c 0,42,43
EndSplineSet
Validated: 16385
Substitution2: "'smcp' Lowercase to Small Capitals in Latin lookup 3 subtable" b.sc
EndChar

StartChar: c
Encoding: 99 99 30
Width: 940
Flags: W
HStem: -17 112<415.133 754.336> 846 56<466.523 685.494>
VStem: 75 206<242.57 647.622> 708 177<657.795 813.448>
LayerCount: 2
Fore
SplineSet
708 774 m 0,0,1
 708 808 708 808 673 827 c 128,-1,2
 638 846 638 846 586 846 c 0,3,4
 539 846 539 846 485.5 826.5 c 128,-1,5
 432 807 432 807 386.5 763 c 128,-1,6
 341 719 341 719 311 647.5 c 128,-1,7
 281 576 281 576 281 472 c 0,8,9
 281 384 281 384 299.5 314 c 128,-1,10
 318 244 318 244 354.5 195.5 c 128,-1,11
 391 147 391 147 446 121 c 128,-1,12
 501 95 501 95 575 95 c 0,13,14
 617 95 617 95 649 97 c 128,-1,15
 681 99 681 99 710.5 103.5 c 128,-1,16
 740 108 740 108 771 115 c 128,-1,17
 802 122 802 122 842 131 c 1,18,19
 854 131 854 131 854 119 c 0,20,21
 854 117 854 117 854.5 114.5 c 128,-1,22
 855 112 855 112 855 108 c 0,23,24
 855 103 855 103 854 98.5 c 128,-1,25
 853 94 853 94 849 90 c 0,26,27
 791 36 791 36 706.5 9.5 c 128,-1,28
 622 -17 622 -17 529 -17 c 0,29,30
 431 -17 431 -17 348 15 c 128,-1,31
 265 47 265 47 204 106.5 c 128,-1,32
 143 166 143 166 109 251 c 128,-1,33
 75 336 75 336 75 442 c 0,34,35
 75 563 75 563 121 650.5 c 128,-1,36
 167 738 167 738 239.5 793.5 c 128,-1,37
 312 849 312 849 401 875.5 c 128,-1,38
 490 902 490 902 576 902 c 0,39,40
 638 902 638 902 694 889 c 128,-1,41
 750 876 750 876 792.5 851 c 128,-1,42
 835 826 835 826 860 789.5 c 128,-1,43
 885 753 885 753 885 707 c 0,44,45
 885 682 885 682 875.5 663 c 128,-1,46
 866 644 866 644 850 631 c 128,-1,47
 834 618 834 618 814.5 611 c 128,-1,48
 795 604 795 604 776 604 c 0,49,50
 741 604 741 604 714.5 625.5 c 128,-1,51
 688 647 688 647 688 691 c 0,52,53
 688 716 688 716 698 736.5 c 128,-1,54
 708 757 708 757 708 774 c 0,0,1
EndSplineSet
Validated: 16385
Substitution2: "'smcp' Lowercase to Small Capitals in Latin lookup 3 subtable" c.sc
EndChar

StartChar: d
Encoding: 100 100 31
Width: 1187
Flags: W
HStem: -17 95<404.889 676.336> 833 69<418.995 642.433> 1294 20G<877.286 991>
VStem: 77 206<209.893 657.397> 785 206<156.07 730.845 775 1170.4>
LayerCount: 2
Fore
SplineSet
527 833 m 0,0,1
 462 833 462 833 415.5 797 c 128,-1,2
 369 761 369 761 339.5 702.5 c 128,-1,3
 310 644 310 644 296.5 569 c 128,-1,4
 283 494 283 494 283 416 c 0,5,6
 283 329 283 329 304 265.5 c 128,-1,7
 325 202 325 202 361.5 160.5 c 128,-1,8
 398 119 398 119 448 98.5 c 128,-1,9
 498 78 498 78 555 78 c 256,10,11
 612 78 612 78 654.5 98 c 128,-1,12
 697 118 697 118 726 143 c 0,13,14
 760 172 760 172 785 209 c 1,15,-1
 785 683 l 1,16,17
 750 725 750 725 710 758 c 0,18,19
 675 786 675 786 628 809.5 c 128,-1,20
 581 833 581 833 527 833 c 0,0,1
785 1122 m 2,21,22
 785 1139 785 1139 770.5 1151.5 c 128,-1,23
 756 1164 756 1164 734 1173 c 128,-1,24
 712 1182 712 1182 687 1188.5 c 128,-1,25
 662 1195 662 1195 640 1201 c 128,-1,26
 618 1207 618 1207 603.5 1213 c 128,-1,27
 589 1219 589 1219 589 1227 c 256,28,29
 589 1235 589 1235 593 1244 c 1,30,-1
 991 1314 l 1,31,-1
 991 184 l 2,32,33
 991 158 991 158 1004.5 142 c 128,-1,34
 1018 126 1018 126 1038 115.5 c 128,-1,35
 1058 105 1058 105 1082 98.5 c 128,-1,36
 1106 92 1106 92 1126 85.5 c 128,-1,37
 1146 79 1146 79 1159.5 70 c 128,-1,38
 1173 61 1173 61 1173 46 c 0,39,40
 1173 38 1173 38 1168 28 c 1,41,-1
 818 -5 l 1,42,-1
 798 158 l 1,43,44
 769 114 769 114 739 81.5 c 128,-1,45
 709 49 709 49 675.5 27 c 128,-1,46
 642 5 642 5 603 -6 c 128,-1,47
 564 -17 564 -17 516 -17 c 0,48,49
 424 -17 424 -17 344 10 c 128,-1,50
 264 37 264 37 205 91 c 128,-1,51
 146 145 146 145 111.5 225.5 c 128,-1,52
 77 306 77 306 77 412 c 0,53,54
 77 527 77 527 107 618 c 128,-1,55
 137 709 137 709 191 772 c 128,-1,56
 245 835 245 835 321 868.5 c 128,-1,57
 397 902 397 902 489 902 c 0,58,59
 553 902 553 902 607 882 c 128,-1,60
 661 862 661 862 701 838 c 0,61,62
 748 810 748 810 785 775 c 1,63,-1
 785 1122 l 2,21,22
EndSplineSet
Validated: 16385
Substitution2: "'smcp' Lowercase to Small Capitals in Latin lookup 3 subtable" d.sc
EndChar

StartChar: e
Encoding: 101 101 32
Width: 955
Flags: W
HStem: -17 112<408.755 738.451> 472 60<408.299 700.718> 846 56<432.413 627.55>
VStem: 75 203<227.884 645.573> 710 179<523.5 727.476>
LayerCount: 2
Fore
SplineSet
281 472 m 1,0,1
 278 442 278 442 278 415 c 0,2,3
 278 325 278 325 303.5 264 c 128,-1,4
 329 203 329 203 372.5 165.5 c 128,-1,5
 416 128 416 128 474.5 111.5 c 128,-1,6
 533 95 533 95 598 95 c 0,7,8
 652 95 652 95 708.5 104.5 c 128,-1,9
 765 114 765 114 823 131 c 1,10,11
 834 131 834 131 834 117 c 256,12,13
 834 103 834 103 833 98 c 128,-1,14
 832 93 832 93 829 90 c 0,15,16
 772 37 772 37 698 10 c 128,-1,17
 624 -17 624 -17 532 -17 c 0,18,19
 433 -17 433 -17 349.5 15 c 128,-1,20
 266 47 266 47 205 106.5 c 128,-1,21
 144 166 144 166 109.5 251 c 128,-1,22
 75 336 75 336 75 442 c 0,23,24
 75 553 75 553 116 638.5 c 128,-1,25
 157 724 157 724 222 782.5 c 128,-1,26
 287 841 287 841 369 871.5 c 128,-1,27
 451 902 451 902 533 902 c 0,28,29
 602 902 602 902 666.5 879.5 c 128,-1,30
 731 857 731 857 780.5 811.5 c 128,-1,31
 830 766 830 766 859.5 696 c 128,-1,32
 889 626 889 626 889 531 c 0,33,34
 889 516 889 516 888 501.5 c 128,-1,35
 887 487 887 487 885 472 c 1,36,-1
 281 472 l 1,0,1
710 568 m 0,37,38
 710 631 710 631 700.5 682.5 c 128,-1,39
 691 734 691 734 670 770.5 c 128,-1,40
 649 807 649 807 615 826.5 c 128,-1,41
 581 846 581 846 531 846 c 0,42,43
 473 846 473 846 429 816.5 c 128,-1,44
 385 787 385 787 354.5 740 c 128,-1,45
 324 693 324 693 306 632.5 c 128,-1,46
 288 572 288 572 282 511 c 1,47,-1
 680 532 l 2,48,49
 692 532 692 532 701 542 c 128,-1,50
 710 552 710 552 710 568 c 0,37,38
EndSplineSet
Validated: 16385
Substitution2: "'smcp' Lowercase to Small Capitals in Latin lookup 3 subtable" e.sc
EndChar

StartChar: h
Encoding: 104 104 33
Width: 1239
Flags: W
HStem: 0 49.5<4.18652 168.232 704.418 785> 833 69<574.118 795.495> 1294 20G<299 413>
VStem: 206 207<71.1859 703.707 737 1170.4> 867 206<65.0137 713.802>
LayerCount: 2
Fore
SplineSet
206 1122 m 2,0,1
 206 1139 206 1139 191.5 1151.5 c 128,-1,2
 177 1164 177 1164 155 1173 c 128,-1,3
 133 1182 133 1182 108 1188.5 c 128,-1,4
 83 1195 83 1195 61 1201 c 128,-1,5
 39 1207 39 1207 24.5 1213 c 128,-1,6
 10 1219 10 1219 10 1227 c 256,7,8
 10 1235 10 1235 14 1244 c 1,9,-1
 413 1314 l 1,10,-1
 413 737 l 1,11,12
 446 783 446 783 493 819 c 0,13,14
 533 850 533 850 592 876 c 128,-1,15
 651 902 651 902 730 902 c 0,16,17
 808 902 808 902 871.5 875.5 c 128,-1,18
 935 849 935 849 979.5 795 c 128,-1,19
 1024 741 1024 741 1048.5 658 c 128,-1,20
 1073 575 1073 575 1073 462 c 2,21,-1
 1073 122 l 2,22,23
 1073 99 1073 99 1084.5 86 c 128,-1,24
 1096 73 1096 73 1113 66 c 128,-1,25
 1130 59 1130 59 1150.5 55.5 c 128,-1,26
 1171 52 1171 52 1188 47.5 c 128,-1,27
 1205 43 1205 43 1216.5 36.5 c 128,-1,28
 1228 30 1228 30 1228 17 c 0,29,30
 1228 13 1228 13 1224 0 c 1,31,-1
 708 0 l 1,32,33
 703 10 703 10 703 18 c 0,34,35
 703 29 703 29 715 35 c 128,-1,36
 727 41 727 41 745.5 45 c 128,-1,37
 764 49 764 49 785 53.5 c 128,-1,38
 806 58 806 58 824.5 66 c 128,-1,39
 843 74 843 74 855 87 c 128,-1,40
 867 100 867 100 867 122 c 2,41,-1
 867 538 l 2,42,43
 867 595 867 595 862 648 c 128,-1,44
 857 701 857 701 838.5 742 c 128,-1,45
 820 783 820 783 783.5 808 c 128,-1,46
 747 833 747 833 684 833 c 0,47,48
 655 833 655 833 628 825 c 128,-1,49
 601 817 601 817 576.5 803.5 c 128,-1,50
 552 790 552 790 530.5 773.5 c 128,-1,51
 509 757 509 757 491 739 c 0,52,53
 448 698 448 698 413 645 c 1,54,-1
 413 120 l 2,55,56
 413 98 413 98 427 85.5 c 128,-1,57
 441 73 441 73 462 66 c 128,-1,58
 483 59 483 59 507.5 55 c 128,-1,59
 532 51 532 51 553 47 c 128,-1,60
 574 43 574 43 588 36.5 c 128,-1,61
 602 30 602 30 602 17 c 0,62,63
 602 13 602 13 598 0 c 1,64,-1
 8 0 l 1,65,66
 3 10 3 10 3 18 c 0,67,68
 3 31 3 31 18 38 c 128,-1,69
 33 45 33 45 56 49.5 c 128,-1,70
 79 54 79 54 105 57.5 c 128,-1,71
 131 61 131 61 154 68.5 c 128,-1,72
 177 76 177 76 192 89.5 c 128,-1,73
 207 103 207 103 207 126 c 2,74,-1
 206 1122 l 2,0,1
EndSplineSet
Validated: 16385
Substitution2: "'smcp' Lowercase to Small Capitals in Latin lookup 3 subtable" h.sc
EndChar

StartChar: i
Encoding: 105 105 34
Width: 618
Flags: W
HStem: 0 49.5<34.3184 182.974> 863 20G<321.647 424> 983 245<206.406 396.312>
VStem: 179 245<1009.96 1200.5> 218 206<69.7054 758.996>
LayerCount: 2
Fore
SplineSet
424 120 m 2,0,1
 424 97 424 97 437 84 c 128,-1,2
 450 71 450 71 470 63.5 c 128,-1,3
 490 56 490 56 513 52.5 c 128,-1,4
 536 49 536 49 556 45.5 c 128,-1,5
 576 42 576 42 589 36 c 128,-1,6
 602 30 602 30 602 18 c 0,7,8
 602 9 602 9 598 0 c 1,9,-1
 37 0 l 1,10,11
 33 13 33 13 33 17 c 0,12,13
 33 31 33 31 46.5 38 c 128,-1,14
 60 45 60 45 81 49.5 c 128,-1,15
 102 54 102 54 125.5 57.5 c 128,-1,16
 149 61 149 61 170 68.5 c 128,-1,17
 191 76 191 76 204.5 89 c 128,-1,18
 218 102 218 102 218 126 c 2,19,-1
 218 705 l 2,20,21
 218 726 218 726 207 738 c 128,-1,22
 196 750 196 750 180 756.5 c 128,-1,23
 164 763 164 763 144.5 766 c 128,-1,24
 125 769 125 769 109 772 c 128,-1,25
 93 775 93 775 82 780.5 c 128,-1,26
 71 786 71 786 71 797 c 0,27,28
 71 803 71 803 76 815 c 1,29,-1
 424 883 l 1,30,-1
 424 120 l 2,0,1
179 1104 m 256,31,32
 179 1130 179 1130 188.5 1152.5 c 128,-1,33
 198 1175 198 1175 214 1192 c 128,-1,34
 230 1209 230 1209 252 1218.5 c 128,-1,35
 274 1228 274 1228 300 1228 c 256,36,37
 326 1228 326 1228 349 1218.5 c 128,-1,38
 372 1209 372 1209 388.5 1192 c 128,-1,39
 405 1175 405 1175 414.5 1152.5 c 128,-1,40
 424 1130 424 1130 424 1104 c 256,41,42
 424 1078 424 1078 414.5 1056 c 128,-1,43
 405 1034 405 1034 388.5 1018 c 128,-1,44
 372 1002 372 1002 349 992.5 c 128,-1,45
 326 983 326 983 300 983 c 256,46,47
 274 983 274 983 252 992.5 c 128,-1,48
 230 1002 230 1002 214 1018 c 128,-1,49
 198 1034 198 1034 188.5 1056 c 128,-1,50
 179 1078 179 1078 179 1104 c 256,31,32
EndSplineSet
Validated: 16385
Substitution2: "'smcp' Lowercase to Small Capitals in Latin lookup 3 subtable" i.sc
EndChar

StartChar: l
Encoding: 108 108 35
Width: 596
Flags: W
HStem: 0 49.5<13.3184 161.199> 1294 20G<288 402>
VStem: 196 206<69.601 1169.8>
LayerCount: 2
Fore
SplineSet
195 1122 m 2,0,1
 195 1139 195 1139 180.5 1151.5 c 128,-1,2
 166 1164 166 1164 144 1173 c 128,-1,3
 122 1182 122 1182 97 1188.5 c 128,-1,4
 72 1195 72 1195 50 1201 c 128,-1,5
 28 1207 28 1207 13.5 1213 c 128,-1,6
 -1 1219 -1 1219 -1 1227 c 256,7,8
 -1 1235 -1 1235 3 1244 c 1,9,-1
 402 1314 l 1,10,-1
 402 120 l 2,11,12
 402 97 402 97 415 84 c 128,-1,13
 428 71 428 71 448 63.5 c 128,-1,14
 468 56 468 56 491 52.5 c 128,-1,15
 514 49 514 49 534 45.5 c 128,-1,16
 554 42 554 42 567 36 c 128,-1,17
 580 30 580 30 580 18 c 0,18,19
 580 9 580 9 576 0 c 1,20,-1
 16 0 l 1,21,22
 12 13 12 13 12 17 c 0,23,24
 12 31 12 31 25.5 38 c 128,-1,25
 39 45 39 45 59.5 49.5 c 128,-1,26
 80 54 80 54 104 57.5 c 128,-1,27
 128 61 128 61 148.5 68.5 c 128,-1,28
 169 76 169 76 182.5 89 c 128,-1,29
 196 102 196 102 196 126 c 2,30,-1
 195 1122 l 2,0,1
EndSplineSet
Validated: 16385
Substitution2: "'smcp' Lowercase to Small Capitals in Latin lookup 3 subtable" l.sc
EndChar

StartChar: m
Encoding: 109 109 36
Width: 1762
Flags: W
HStem: 0 49.5<52.8311 133.5 645.55 767.353 1232.49 1351.68> 811.5 34.5<29.0308 140.312> 833 69<562.773 744.065 1118.54 1316.48> 864 20G<208.316 404.963>
VStem: 216 206<67.4609 706.707> 803 206<70.2406 665.654> 1386 206<69.6221 734.625>
LayerCount: 2
Fore
SplineSet
402 884 m 1,0,-1
 422 749 l 1,1,2
 450 792 450 792 492 825 c 0,3,4
 528 854 528 854 583 878 c 128,-1,5
 638 902 638 902 714 902 c 0,6,7
 809 902 809 902 878 857 c 128,-1,8
 947 812 947 812 976 734 c 1,9,10
 1004 781 1004 781 1044 818 c 0,11,12
 1061 834 1061 834 1083 849 c 128,-1,13
 1105 864 1105 864 1131.5 876 c 128,-1,14
 1158 888 1158 888 1189.5 895 c 128,-1,15
 1221 902 1221 902 1257 902 c 0,16,17
 1345 902 1345 902 1408.5 876 c 128,-1,18
 1472 850 1472 850 1512.5 796 c 128,-1,19
 1553 742 1553 742 1572.5 658.5 c 128,-1,20
 1592 575 1592 575 1592 460 c 2,21,-1
 1592 122 l 2,22,23
 1592 101 1592 101 1602.5 88 c 128,-1,24
 1613 75 1613 75 1629.5 67 c 128,-1,25
 1646 59 1646 59 1664.5 54.5 c 128,-1,26
 1683 50 1683 50 1699.5 45.5 c 128,-1,27
 1716 41 1716 41 1726.5 35 c 128,-1,28
 1737 29 1737 29 1737 18 c 0,29,30
 1737 13 1737 13 1732 0 c 1,31,-1
 1235 0 l 1,32,33
 1231 13 1231 13 1231 17 c 0,34,35
 1231 29 1231 29 1242.5 36.5 c 128,-1,36
 1254 44 1254 44 1271 49.5 c 128,-1,37
 1288 55 1288 55 1308.5 59.5 c 128,-1,38
 1329 64 1329 64 1346 71.5 c 128,-1,39
 1363 79 1363 79 1374.5 91 c 128,-1,40
 1386 103 1386 103 1386 122 c 2,41,-1
 1386 514 l 2,42,43
 1386 578 1386 578 1383.5 636 c 128,-1,44
 1381 694 1381 694 1365.5 738 c 128,-1,45
 1350 782 1350 782 1317.5 807.5 c 128,-1,46
 1285 833 1285 833 1225 833 c 0,47,48
 1200 833 1200 833 1176.5 826 c 128,-1,49
 1153 819 1153 819 1132 807 c 128,-1,50
 1111 795 1111 795 1093 780 c 128,-1,51
 1075 765 1075 765 1060 750 c 0,52,53
 1024 713 1024 713 996 667 c 1,54,55
 1006 624 1006 624 1007.5 572 c 128,-1,56
 1009 520 1009 520 1009 460 c 2,57,-1
 1009 122 l 2,58,59
 1009 101 1009 101 1021.5 88 c 128,-1,60
 1034 75 1034 75 1053 67.5 c 128,-1,61
 1072 60 1072 60 1093.5 55.5 c 128,-1,62
 1115 51 1115 51 1134 46.5 c 128,-1,63
 1153 42 1153 42 1165.5 35.5 c 128,-1,64
 1178 29 1178 29 1178 18 c 0,65,66
 1178 9 1178 9 1174 0 c 1,67,-1
 648 0 l 1,68,69
 644 13 644 13 644 17 c 0,70,71
 644 29 644 29 656 36.5 c 128,-1,72
 668 44 668 44 685.5 49.5 c 128,-1,73
 703 55 703 55 723.5 59.5 c 128,-1,74
 744 64 744 64 761.5 71.5 c 128,-1,75
 779 79 779 79 791 91 c 128,-1,76
 803 103 803 103 803 122 c 2,77,-1
 803 551 l 2,78,79
 803 600 803 600 799 650.5 c 128,-1,80
 795 701 795 701 780 741.5 c 128,-1,81
 765 782 765 782 736.5 807.5 c 128,-1,82
 708 833 708 833 660 833 c 0,83,84
 636 833 636 833 613 824.5 c 128,-1,85
 590 816 590 816 568.5 802.5 c 128,-1,86
 547 789 547 789 528 772 c 128,-1,87
 509 755 509 755 493 737 c 0,88,89
 454 695 454 695 422 641 c 1,90,-1
 422 120 l 2,91,92
 422 99 422 99 434 86 c 128,-1,93
 446 73 446 73 464.5 65.5 c 128,-1,94
 483 58 483 58 504.5 54 c 128,-1,95
 526 50 526 50 544.5 46 c 128,-1,96
 563 42 563 42 575 35.5 c 128,-1,97
 587 29 587 29 587 18 c 0,98,99
 587 9 587 9 583 0 c 1,100,-1
 55 0 l 1,101,102
 51 13 51 13 51 17 c 0,103,104
 51 28 51 28 63 34.5 c 128,-1,105
 75 41 75 41 93.5 45.5 c 128,-1,106
 112 50 112 50 133.5 55 c 128,-1,107
 155 60 155 60 173.5 68.5 c 128,-1,108
 192 77 192 77 204 90.5 c 128,-1,109
 216 104 216 104 216 126 c 2,110,-1
 216 736 l 2,111,112
 216 757 216 757 202 769 c 128,-1,113
 188 781 188 781 167.5 787.5 c 128,-1,114
 147 794 147 794 122.5 797 c 128,-1,115
 98 800 98 800 77.5 803 c 128,-1,116
 57 806 57 806 43 811.5 c 128,-1,117
 29 817 29 817 29 828 c 0,118,119
 29 834 29 834 34 846 c 1,120,-1
 402 884 l 1,0,-1
EndSplineSet
Validated: 16385
Substitution2: "'smcp' Lowercase to Small Capitals in Latin lookup 3 subtable" m.sc
EndChar

StartChar: n
Encoding: 110 110 37
Width: 1244
Flags: W
HStem: 0 46.5<712.949 834.313> 0 28<51.3528 85.1108> 807.5 34.5<29.0308 140.312> 833 69<584.032 798.697> 860 20G<208.316 404.778>
VStem: 216 206<79.9266 702.707> 871 206<75.8947 715.54>
LayerCount: 2
Fore
SplineSet
402 880 m 1,0,-1
 422 736 l 1,1,2
 454 782 454 782 502 819 c 0,3,4
 542 850 542 850 602.5 876 c 128,-1,5
 663 902 663 902 744 902 c 0,6,7
 909 902 909 902 993 787.5 c 128,-1,8
 1077 673 1077 673 1077 463 c 2,9,-1
 1077 117 l 2,10,11
 1077 88 1077 88 1092 75.5 c 128,-1,12
 1107 63 1107 63 1128.5 56.5 c 128,-1,13
 1150 50 1150 50 1175 45.5 c 128,-1,14
 1200 41 1200 41 1220 28 c 1,15,16
 1224 24 1224 24 1224 17 c 256,17,18
 1224 10 1224 10 1220 0 c 1,19,-1
 716 0 l 1,20,21
 712 13 712 13 712 17 c 0,22,23
 712 29 712 29 724 35.5 c 128,-1,24
 736 42 736 42 753.5 46.5 c 128,-1,25
 771 51 771 51 791.5 55.5 c 128,-1,26
 812 60 812 60 829.5 67.5 c 128,-1,27
 847 75 847 75 859 87.5 c 128,-1,28
 871 100 871 100 871 122 c 2,29,-1
 871 453 l 2,30,31
 871 538 871 538 867.5 608.5 c 128,-1,32
 864 679 864 679 846.5 728.5 c 128,-1,33
 829 778 829 778 791 805.5 c 128,-1,34
 753 833 753 833 684 833 c 0,35,36
 657 833 657 833 631.5 825 c 128,-1,37
 606 817 606 817 582.5 803.5 c 128,-1,38
 559 790 559 790 538 773 c 128,-1,39
 517 756 517 756 499 738 c 0,40,41
 457 697 457 697 422 644 c 1,42,-1
 422 120 l 2,43,44
 422 97 422 97 436 84 c 128,-1,45
 450 71 450 71 471 63.5 c 128,-1,46
 492 56 492 56 516 52.5 c 128,-1,47
 540 49 540 49 561 45.5 c 128,-1,48
 582 42 582 42 596 36 c 128,-1,49
 610 30 610 30 610 18 c 0,50,51
 610 9 610 9 606 0 c 1,52,-1
 56 0 l 1,53,54
 55 3 55 3 53 8 c 128,-1,55
 51 13 51 13 51 18 c 0,56,57
 51 25 51 25 56 28 c 0,58,59
 83 44 83 44 111.5 49 c 128,-1,60
 140 54 140 54 163.5 60 c 128,-1,61
 187 66 187 66 201.5 79.5 c 128,-1,62
 216 93 216 93 216 126 c 2,63,-1
 216 732 l 2,64,65
 216 753 216 753 202 765 c 128,-1,66
 188 777 188 777 167.5 783.5 c 128,-1,67
 147 790 147 790 122.5 793 c 128,-1,68
 98 796 98 796 77.5 799 c 128,-1,69
 57 802 57 802 43 807.5 c 128,-1,70
 29 813 29 813 29 824 c 0,71,72
 29 830 29 830 34 842 c 1,73,-1
 402 880 l 1,0,-1
EndSplineSet
Validated: 16385
Substitution2: "'smcp' Lowercase to Small Capitals in Latin lookup 3 subtable" n.sc
EndChar

StartChar: o
Encoding: 111 111 38
Width: 1112
Flags: W
HStem: -17 81<434.224 694.66> 846 56<443.427 656.528>
VStem: 74 206<239.113 647.898> 832 206<235.598 647.719>
LayerCount: 2
Fore
SplineSet
280 474 m 0,0,1
 280 370 280 370 304.5 293 c 128,-1,2
 329 216 329 216 369 165 c 128,-1,3
 409 114 409 114 460 89 c 128,-1,4
 511 64 511 64 564 64 c 0,5,6
 633 64 633 64 683.5 96 c 128,-1,7
 734 128 734 128 767 178.5 c 128,-1,8
 800 229 800 229 816 291.5 c 128,-1,9
 832 354 832 354 832 415 c 0,10,11
 832 526 832 526 807.5 607 c 128,-1,12
 783 688 783 688 743.5 741.5 c 128,-1,13
 704 795 704 795 653 820.5 c 128,-1,14
 602 846 602 846 550 846 c 0,15,16
 499 846 499 846 450.5 822 c 128,-1,17
 402 798 402 798 364 751.5 c 128,-1,18
 326 705 326 705 303 635 c 128,-1,19
 280 565 280 565 280 474 c 0,0,1
74 442 m 256,20,21
 74 556 74 556 115.5 642.5 c 128,-1,22
 157 729 157 729 224.5 786.5 c 128,-1,23
 292 844 292 844 378.5 873 c 128,-1,24
 465 902 465 902 555 902 c 256,25,26
 645 902 645 902 732 873 c 128,-1,27
 819 844 819 844 887 786 c 128,-1,28
 955 728 955 728 996.5 642 c 128,-1,29
 1038 556 1038 556 1038 442 c 0,30,31
 1038 327 1038 327 996.5 241 c 128,-1,32
 955 155 955 155 887.5 97.5 c 128,-1,33
 820 40 820 40 734 11.5 c 128,-1,34
 648 -17 648 -17 558 -17 c 0,35,36
 467 -17 467 -17 380 12 c 128,-1,37
 293 41 293 41 225 98.5 c 128,-1,38
 157 156 157 156 115.5 242 c 128,-1,39
 74 328 74 328 74 442 c 256,20,21
EndSplineSet
Validated: 16385
Substitution2: "'smcp' Lowercase to Small Capitals in Latin lookup 3 subtable" o.sc
EndChar

StartChar: p
Encoding: 112 112 39
Width: 1173
Flags: W
HStem: -360 49<29.0283 159.932> -17 81<529.796 790.836> 790 112<540.772 786.128> 864 20G<131 377>
VStem: 203 204<-285.906 126 177.207 691.267> 889 206<206.464 670.943>
LayerCount: 2
Fore
SplineSet
673 64 m 0,0,1
 736 64 736 64 777.5 93.5 c 128,-1,2
 819 123 819 123 843.5 174.5 c 128,-1,3
 868 226 868 226 878.5 295 c 128,-1,4
 889 364 889 364 889 444 c 0,5,6
 889 522 889 522 874.5 586 c 128,-1,7
 860 650 860 650 830.5 695.5 c 128,-1,8
 801 741 801 741 755.5 765.5 c 128,-1,9
 710 790 710 790 647 790 c 0,10,11
 595 790 595 790 551.5 766.5 c 128,-1,12
 508 743 508 743 476 714 c 0,13,14
 438 681 438 681 407 638 c 1,15,-1
 407 258 l 1,16,17
 429 203 429 203 465 161 c 0,18,19
 480 143 480 143 500.5 125.5 c 128,-1,20
 521 108 521 108 546.5 94.5 c 128,-1,21
 572 81 572 81 603.5 72.5 c 128,-1,22
 635 64 635 64 673 64 c 0,0,1
203 708 m 1,23,24
 201 732 201 732 186 747 c 128,-1,25
 171 762 171 762 149 771.5 c 128,-1,26
 127 781 127 781 101.5 787.5 c 128,-1,27
 76 794 76 794 54.5 800 c 128,-1,28
 33 806 33 806 19 814.5 c 128,-1,29
 5 823 5 823 5 837 c 0,30,31
 5 839 5 839 9 854 c 1,32,-1
 375 884 l 1,33,-1
 393 704 l 1,34,35
 427 759 427 759 472 803 c 0,36,37
 491 821 491 821 514.5 839 c 128,-1,38
 538 857 538 857 566 871 c 128,-1,39
 594 885 594 885 626.5 893.5 c 128,-1,40
 659 902 659 902 695 902 c 0,41,42
 782 902 782 902 855.5 872.5 c 128,-1,43
 929 843 929 843 982 784.5 c 128,-1,44
 1035 726 1035 726 1065 638.5 c 128,-1,45
 1095 551 1095 551 1095 434 c 0,46,47
 1095 324 1095 324 1064 239.5 c 128,-1,48
 1033 155 1033 155 977.5 98 c 128,-1,49
 922 41 922 41 845 12 c 128,-1,50
 768 -17 768 -17 677 -17 c 0,51,52
 583 -17 583 -17 517.5 16.5 c 128,-1,53
 452 50 452 50 406 126 c 1,54,-1
 406 -228 l 2,55,56
 406 -252 406 -252 420.5 -266 c 128,-1,57
 435 -280 435 -280 457 -288 c 128,-1,58
 479 -296 479 -296 504.5 -300.5 c 128,-1,59
 530 -305 530 -305 552 -309.5 c 128,-1,60
 574 -314 574 -314 588.5 -321.5 c 128,-1,61
 603 -329 603 -329 603 -343 c 0,62,63
 603 -347 603 -347 599 -360 c 1,64,-1
 33 -360 l 1,65,66
 28 -350 28 -350 28 -342 c 0,67,68
 28 -329 28 -329 41 -322.5 c 128,-1,69
 54 -316 54 -316 73 -311 c 128,-1,70
 92 -306 92 -306 115 -301 c 128,-1,71
 138 -296 138 -296 157 -288 c 128,-1,72
 176 -280 176 -280 189 -266 c 128,-1,73
 202 -252 202 -252 202 -228 c 2,74,-1
 203 708 l 1,23,24
EndSplineSet
Validated: 16385
Substitution2: "'smcp' Lowercase to Small Capitals in Latin lookup 3 subtable" p.sc
EndChar

StartChar: u
Encoding: 117 117 40
Width: 1213
Flags: W
HStem: -17 81<451.448 668.443> 860 20G<330.5 383 962.5 1014.94>
VStem: 177 206<154.5 779.765> 809 204<157.206 778.998>
LayerCount: 2
Fore
SplineSet
1013 184 m 2,0,1
 1013 158 1013 158 1026.5 142 c 128,-1,2
 1040 126 1040 126 1060 115.5 c 128,-1,3
 1080 105 1080 105 1104 98.5 c 128,-1,4
 1128 92 1128 92 1148 85.5 c 128,-1,5
 1168 79 1168 79 1181.5 70 c 128,-1,6
 1195 61 1195 61 1195 46 c 0,7,8
 1195 38 1195 38 1190 28 c 1,9,-1
 840 -5 l 1,10,-1
 820 158 l 1,11,12
 788 111 788 111 749 77.5 c 128,-1,13
 710 44 710 44 668.5 23 c 128,-1,14
 627 2 627 2 584.5 -7.5 c 128,-1,15
 542 -17 542 -17 504 -17 c 0,16,17
 438 -17 438 -17 378.5 3 c 128,-1,18
 319 23 319 23 274.5 72 c 128,-1,19
 230 121 230 121 203.5 202 c 128,-1,20
 177 283 177 283 177 406 c 2,21,-1
 177 721 l 2,22,23
 177 743 177 743 164.5 757 c 128,-1,24
 152 771 152 771 133 779.5 c 128,-1,25
 114 788 114 788 91.5 793 c 128,-1,26
 69 798 69 798 50 802.5 c 128,-1,27
 31 807 31 807 18.5 813.5 c 128,-1,28
 6 820 6 820 6 832 c 0,29,30
 6 837 6 837 6.5 839 c 128,-1,31
 7 841 7 841 9 849 c 1,32,33
 37 851 37 851 68 854 c 0,34,35
 94 856 94 856 127.5 859 c 128,-1,36
 161 862 161 862 196 865 c 0,37,38
 278 872 278 872 383 880 c 1,39,-1
 383 408 l 2,40,41
 383 305 383 305 395.5 238.5 c 128,-1,42
 408 172 408 172 430 133 c 128,-1,43
 452 94 452 94 481.5 79 c 128,-1,44
 511 64 511 64 544 64 c 256,45,46
 577 64 577 64 612.5 72.5 c 128,-1,47
 648 81 648 81 682.5 99 c 128,-1,48
 717 117 717 117 749.5 144 c 128,-1,49
 782 171 782 171 809 208 c 1,50,-1
 809 724 l 2,51,52
 809 745 809 745 796 758 c 128,-1,53
 783 771 783 771 764 779 c 128,-1,54
 745 787 745 787 722 791.5 c 128,-1,55
 699 796 699 796 680 801 c 128,-1,56
 661 806 661 806 648 813.5 c 128,-1,57
 635 821 635 821 635 834 c 2,58,-1
 635 838 l 2,59,60
 635 840 635 840 635.5 842 c 128,-1,61
 636 844 636 844 638 849 c 1,62,63
 638 849 638 849 654.5 850.5 c 128,-1,64
 671 852 671 852 697.5 854 c 128,-1,65
 724 856 724 856 758 859 c 128,-1,66
 792 862 792 862 827 865 c 0,67,68
 910 872 910 872 1015 880 c 1,69,-1
 1013 184 l 2,0,1
EndSplineSet
Validated: 16385
Substitution2: "'smcp' Lowercase to Small Capitals in Latin lookup 3 subtable" u.sc
EndChar

StartChar: Thorn
Encoding: 222 222 46
Width: 1287
Flags: W
HStem: 0 50.5<64.9375 241.061 512.243 706.194> 280 58<485.968 851.836> 298 52<484 651.656 655.186 725.187 730.34 874.907> 900 60<484 789.864> 1123 53<536.977 703.389>
VStem: 269 215<86.4722 298 345.111 900 960 1091.57> 1016 215<451.685 758.723>
LayerCount: 2
Fore
SplineSet
700 1176 m 1,0,1
 705 1161 705 1161 705 1158 c 0,2,3
 705 1143 705 1143 688.5 1135.5 c 128,-1,4
 672 1128 672 1128 647.5 1123 c 128,-1,5
 623 1118 623 1118 594.5 1113 c 128,-1,6
 566 1108 566 1108 541.5 1098.5 c 128,-1,7
 517 1089 517 1089 500.5 1073 c 128,-1,8
 484 1057 484 1057 484 1030 c 2,9,-1
 484 960 l 1,10,11
 583 960 583 960 677.5 954.5 c 128,-1,12
 772 949 772 949 855 934.5 c 128,-1,13
 938 920 938 920 1007 895 c 128,-1,14
 1076 870 1076 870 1126 830.5 c 128,-1,15
 1176 791 1176 791 1203.5 735.5 c 128,-1,16
 1231 680 1231 680 1231 605 c 0,17,18
 1231 516 1231 516 1192.5 454 c 128,-1,19
 1154 392 1154 392 1086 353.5 c 128,-1,20
 1018 315 1018 315 926 297.5 c 128,-1,21
 834 280 834 280 727 280 c 0,22,23
 669 280 669 280 608 284.5 c 128,-1,24
 547 289 547 289 484 298 c 1,25,-1
 484 124 l 2,26,27
 484 98 484 98 500.5 84 c 128,-1,28
 517 70 517 70 542 63 c 128,-1,29
 567 56 567 56 596 53 c 128,-1,30
 625 50 625 50 650 46.5 c 128,-1,31
 675 43 675 43 691.5 37 c 128,-1,32
 708 31 708 31 708 17 c 0,33,34
 708 13 708 13 704 0 c 1,35,-1
 69 0 l 1,36,37
 64 10 64 10 64 18 c 0,38,39
 64 34 64 34 79 41 c 128,-1,40
 94 48 94 48 117 50.5 c 128,-1,41
 140 53 140 53 166.5 55 c 128,-1,42
 193 57 193 57 216 64 c 128,-1,43
 239 71 239 71 254 86 c 128,-1,44
 269 101 269 101 269 130 c 2,45,-1
 269 1030 l 2,46,47
 269 1055 269 1055 254 1070.5 c 128,-1,48
 239 1086 239 1086 216 1095.5 c 128,-1,49
 193 1105 193 1105 167 1110.5 c 128,-1,50
 141 1116 141 1116 118 1122 c 128,-1,51
 95 1128 95 1128 80 1136 c 128,-1,52
 65 1144 65 1144 65 1159 c 0,53,54
 65 1161 65 1161 69 1176 c 1,55,-1
 700 1176 l 1,0,1
1016 605 m 0,56,57
 1016 675 1016 675 992 724 c 128,-1,58
 968 773 968 773 927 805.5 c 128,-1,59
 886 838 886 838 832.5 857 c 128,-1,60
 779 876 779 876 720 885.5 c 128,-1,61
 661 895 661 895 600 897.5 c 128,-1,62
 539 900 539 900 484 900 c 1,63,-1
 484 350 l 1,64,65
 525 345 525 345 567.5 341.5 c 128,-1,66
 610 338 610 338 653 338 c 0,67,68
 723 338 723 338 788.5 349.5 c 128,-1,69
 854 361 854 361 904.5 391 c 128,-1,70
 955 421 955 421 985.5 473 c 128,-1,71
 1016 525 1016 525 1016 605 c 0,56,57
EndSplineSet
Validated: 16385
EndChar

StartChar: germandbls
Encoding: 223 223 47
Width: 1235
Flags: W
HStem: -22 58<706.067 862.663> 0 50.5<42.3765 168.709 414.609 513.202> 580 62<613.282 761.987> 1116 60<503.403 738.179>
VStem: 191 206<62.9368 989.747> 552 131<51.7953 187.126> 849 170<716.404 1024.21> 960 206<123.955 450.668>
LayerCount: 2
Fore
SplineSet
683 100 m 256,0,1
 683 88 683 88 693.5 76.5 c 128,-1,2
 704 65 704 65 719.5 56 c 128,-1,3
 735 47 735 47 753 41.5 c 128,-1,4
 771 36 771 36 785 36 c 0,5,6
 816 36 816 36 847.5 53.5 c 128,-1,7
 879 71 879 71 904 104 c 128,-1,8
 929 137 929 137 944.5 184.5 c 128,-1,9
 960 232 960 232 960 292 c 0,10,11
 960 359 960 359 941.5 412.5 c 128,-1,12
 923 466 923 466 888.5 503 c 128,-1,13
 854 540 854 540 803.5 560 c 128,-1,14
 753 580 753 580 689 580 c 2,15,-1
 636 580 l 2,16,17
 622 580 622 580 613 589 c 128,-1,18
 604 598 604 598 604 612 c 0,19,20
 604 624 604 624 612.5 633 c 128,-1,21
 621 642 621 642 635 642 c 0,22,23
 748 642 748 642 798.5 704.5 c 128,-1,24
 849 767 849 767 849 884 c 0,25,26
 849 948 849 948 828 992.5 c 128,-1,27
 807 1037 807 1037 772.5 1064.5 c 128,-1,28
 738 1092 738 1092 693.5 1104 c 128,-1,29
 649 1116 649 1116 602 1116 c 0,30,31
 547 1116 547 1116 508 1090 c 128,-1,32
 469 1064 469 1064 444.5 1017.5 c 128,-1,33
 420 971 420 971 408.5 908 c 128,-1,34
 397 845 397 845 397 770 c 2,35,-1
 397 130 l 2,36,37
 397 101 397 101 406.5 86 c 128,-1,38
 416 71 416 71 430 64 c 128,-1,39
 444 57 444 57 460 55 c 128,-1,40
 476 53 476 53 490 50.5 c 128,-1,41
 504 48 504 48 513.5 41 c 128,-1,42
 523 34 523 34 523 18 c 0,43,44
 523 10 523 10 518 0 c 1,45,-1
 35 0 l 1,46,47
 30 10 30 10 30 18 c 0,48,49
 30 34 30 34 42 41 c 128,-1,50
 54 48 54 48 72 50.5 c 128,-1,51
 90 53 90 53 110.5 55 c 128,-1,52
 131 57 131 57 149 64 c 128,-1,53
 167 71 167 71 179 86 c 128,-1,54
 191 101 191 101 191 130 c 2,55,-1
 191 773 l 2,56,57
 191 968 191 968 294 1072 c 128,-1,58
 397 1176 397 1176 598 1176 c 0,59,60
 687 1176 687 1176 764 1156 c 128,-1,61
 841 1136 841 1136 897.5 1098 c 128,-1,62
 954 1060 954 1060 986.5 1005.5 c 128,-1,63
 1019 951 1019 951 1019 882 c 0,64,65
 1019 819 1019 819 1002.5 772.5 c 128,-1,66
 986 726 986 726 957 693 c 128,-1,67
 928 660 928 660 889 640.5 c 128,-1,68
 850 621 850 621 805 612 c 1,69,70
 868 604 868 604 932 583 c 128,-1,71
 996 562 996 562 1048 525 c 128,-1,72
 1100 488 1100 488 1133 432.5 c 128,-1,73
 1166 377 1166 377 1166 300 c 0,74,75
 1166 142 1166 142 1065.5 60 c 128,-1,76
 965 -22 965 -22 781 -22 c 0,77,78
 732 -22 732 -22 690 -9 c 128,-1,79
 648 4 648 4 617.5 27 c 128,-1,80
 587 50 587 50 569.5 81.5 c 128,-1,81
 552 113 552 113 552 150 c 0,82,83
 552 181 552 181 575.5 202.5 c 128,-1,84
 599 224 599 224 630 224 c 0,85,86
 657 224 657 224 677.5 203.5 c 128,-1,87
 698 183 698 183 698 158 c 0,88,89
 698 140 698 140 690.5 126 c 128,-1,90
 683 112 683 112 683 100 c 256,0,1
EndSplineSet
Validated: 16385
EndChar

StartChar: OE
Encoding: 338 338 48
Width: 2065
Flags: W
HStem: 0 64<581.423 1048.03 1566.61 1853.91> 0 43<1276.02 1751.55> 582 60<1264 1656.63> 874 21G<1915.5 1929.5> 1111.5 64.5<553.753 866.5 969 1048 1264.88 1321 1441 1829.22>
VStem: 90 215<350.035 815.928> 1049 215<70.6826 582 642 1110> 1877.5 70.5<876.325 1056.9> 1897 71<110.136 278.277>
LayerCount: 2
Fore
SplineSet
90 590 m 0,0,1
 90 685 90 685 116 766 c 128,-1,2
 142 847 142 847 187 912 c 128,-1,3
 232 977 232 977 294 1026.5 c 128,-1,4
 356 1076 356 1076 427.5 1109 c 128,-1,5
 499 1142 499 1142 577.5 1159 c 128,-1,6
 656 1176 656 1176 735 1176 c 0,7,8
 1022 1177 1022 1177 1250 1178 c 0,9,10
 1347 1178 1347 1178 1441 1178.5 c 128,-1,11
 1535 1179 1535 1179 1609.5 1179.5 c 128,-1,12
 1684 1180 1684 1180 1732 1180.5 c 128,-1,13
 1780 1181 1780 1181 1785 1181 c 0,14,15
 1808 1181 1808 1181 1825 1184 c 128,-1,16
 1842 1187 1842 1187 1857 1192.5 c 128,-1,17
 1872 1198 1872 1198 1886.5 1205.5 c 128,-1,18
 1901 1213 1901 1213 1920 1223 c 0,19,20
 1922 1223 1922 1223 1927.5 1222 c 128,-1,21
 1933 1221 1933 1221 1948 1218 c 1,22,-1
 1948 880 l 1,23,24
 1934 874 1934 874 1925 874 c 0,25,26
 1906 874 1906 874 1895.5 892 c 128,-1,27
 1885 910 1885 910 1877.5 936.5 c 128,-1,28
 1870 963 1870 963 1863 994.5 c 128,-1,29
 1856 1026 1856 1026 1844 1053.5 c 128,-1,30
 1832 1081 1832 1081 1812 1099 c 128,-1,31
 1792 1117 1792 1117 1759 1118 c 2,32,-1
 1321 1126 l 2,33,34
 1302 1126 1302 1126 1290.5 1123 c 128,-1,35
 1279 1120 1279 1120 1273 1111 c 128,-1,36
 1267 1102 1267 1102 1265.5 1087 c 128,-1,37
 1264 1072 1264 1072 1264 1050 c 2,38,-1
 1264 642 l 1,39,-1
 1615 653 l 2,40,41
 1643 654 1643 654 1660 675.5 c 128,-1,42
 1677 697 1677 697 1690.5 722.5 c 128,-1,43
 1704 748 1704 748 1718 769.5 c 128,-1,44
 1732 791 1732 791 1754 791 c 0,45,46
 1756 791 1756 791 1760.5 790 c 128,-1,47
 1765 789 1765 789 1776 786 c 1,48,-1
 1776 444 l 1,49,50
 1764 438 1764 438 1754 438 c 0,51,52
 1743 438 1743 438 1733 448.5 c 128,-1,53
 1723 459 1723 459 1713.5 474 c 128,-1,54
 1704 489 1704 489 1694 507 c 128,-1,55
 1684 525 1684 525 1672 540 c 128,-1,56
 1660 555 1660 555 1646 565.5 c 128,-1,57
 1632 576 1632 576 1615 576 c 2,58,-1
 1264 582 l 1,59,-1
 1264 124 l 2,60,61
 1264 109 1264 109 1266.5 94.5 c 128,-1,62
 1269 80 1269 80 1274 68.5 c 128,-1,63
 1279 57 1279 57 1288 50 c 128,-1,64
 1297 43 1297 43 1310 43 c 2,65,-1
 1772 58 l 2,66,67
 1811 59 1811 59 1833.5 76 c 128,-1,68
 1856 93 1856 93 1868 117.5 c 128,-1,69
 1880 142 1880 142 1885.5 170.5 c 128,-1,70
 1891 199 1891 199 1897 223.5 c 128,-1,71
 1903 248 1903 248 1913.5 264 c 128,-1,72
 1924 280 1924 280 1945 280 c 0,73,74
 1947 280 1947 280 1951.5 279 c 128,-1,75
 1956 278 1956 278 1968 275 c 1,76,-1
 1940 -47 l 1,77,78
 1923 -52 1923 -52 1917 -52 c 0,79,80
 1897 -52 1897 -52 1883 -44 c 128,-1,81
 1869 -36 1869 -36 1854 -26 c 128,-1,82
 1839 -16 1839 -16 1820.5 -8 c 128,-1,83
 1802 0 1802 0 1772 0 c 2,84,-1
 734 0 l 2,85,86
 605 0 605 0 488.5 37 c 128,-1,87
 372 74 372 74 283.5 148 c 128,-1,88
 195 222 195 222 142.5 332.5 c 128,-1,89
 90 443 90 443 90 590 c 0,0,1
305 636 m 0,90,91
 305 355 305 355 424 209.5 c 128,-1,92
 543 64 543 64 765 64 c 0,93,94
 834 64 834 64 887 65.5 c 128,-1,95
 940 67 940 67 976 69 c 0,96,97
 1018 71 1018 71 1049 74 c 1,98,-1
 1049 1110 l 1,99,100
 1017 1110 1017 1110 969 1111 c 0,101,102
 928 1111 928 1111 866.5 1111.5 c 128,-1,103
 805 1112 805 1112 720 1112 c 0,104,105
 619 1112 619 1112 541.5 1074 c 128,-1,106
 464 1036 464 1036 411.5 971 c 128,-1,107
 359 906 359 906 332 819.5 c 128,-1,108
 305 733 305 733 305 636 c 0,90,91
EndSplineSet
Validated: 16385
EndChar

StartChar: Oslash
Encoding: 216 216 55
Width: 1463
Flags: W
HStem: -28 64<625.422 923.059> 1140 62<556.152 854.649>
VStem: 90 215<369.763 830.115> 985 157<1183.17 1356.84> 1164 215<345.489 816.839>
LayerCount: 2
Fore
SplineSet
457 26 m 1,0,1
 379 58 379 58 312 109.5 c 128,-1,2
 245 161 245 161 195.5 231.5 c 128,-1,3
 146 302 146 302 118 392 c 128,-1,4
 90 482 90 482 90 590 c 0,5,6
 90 691 90 691 115.5 776 c 128,-1,7
 141 861 141 861 186 929 c 128,-1,8
 231 997 231 997 293 1048 c 128,-1,9
 355 1099 355 1099 427 1133.5 c 128,-1,10
 499 1168 499 1168 578.5 1185 c 128,-1,11
 658 1202 658 1202 739 1202 c 0,12,13
 790 1202 790 1202 841 1195 c 128,-1,14
 892 1188 892 1188 942 1174 c 1,15,16
 959 1216 959 1216 972 1256.5 c 128,-1,17
 985 1297 985 1297 985 1316 c 0,18,19
 985 1321 985 1321 988 1328.5 c 128,-1,20
 991 1336 991 1336 1001 1343.5 c 128,-1,21
 1011 1351 1011 1351 1028.5 1356.5 c 128,-1,22
 1046 1362 1046 1362 1076 1362 c 0,23,24
 1098 1362 1098 1362 1111 1357 c 128,-1,25
 1124 1352 1124 1352 1131 1344.5 c 128,-1,26
 1138 1337 1138 1337 1140 1326.5 c 128,-1,27
 1142 1316 1142 1316 1142 1306 c 0,28,29
 1142 1300 1142 1300 1141.5 1294 c 128,-1,30
 1141 1288 1141 1288 1141 1283 c 0,31,32
 1141 1270 1141 1270 1122 1232 c 128,-1,33
 1103 1194 1103 1194 1068 1124 c 1,34,35
 1135 1089 1135 1089 1192 1038 c 128,-1,36
 1249 987 1249 987 1290.5 920.5 c 128,-1,37
 1332 854 1332 854 1355.5 771.5 c 128,-1,38
 1379 689 1379 689 1379 590 c 0,39,40
 1379 487 1379 487 1353.5 401 c 128,-1,41
 1328 315 1328 315 1283.5 246.5 c 128,-1,42
 1239 178 1239 178 1178 126.5 c 128,-1,43
 1117 75 1117 75 1045.5 40.5 c 128,-1,44
 974 6 974 6 895 -11 c 128,-1,45
 816 -28 816 -28 736 -28 c 0,46,47
 700 -28 700 -28 665 -24.5 c 128,-1,48
 630 -21 630 -21 595 -14 c 1,49,50
 581 -52 581 -52 568 -90 c 128,-1,51
 555 -128 555 -128 541 -168 c 0,52,53
 532 -194 532 -194 520 -208.5 c 128,-1,54
 508 -223 508 -223 495 -229.5 c 128,-1,55
 482 -236 482 -236 468 -237.5 c 128,-1,56
 454 -239 454 -239 442 -239 c 2,57,-1
 437 -239 l 2,58,59
 417 -239 417 -239 401 -218 c 128,-1,60
 385 -197 385 -197 385 -165 c 0,61,62
 385 -145 385 -145 394 -122 c 2,63,-1
 457 26 l 1,0,1
305 636 m 0,64,65
 305 550 305 550 320 476 c 128,-1,66
 335 402 335 402 361.5 340 c 128,-1,67
 388 278 388 278 424.5 228 c 128,-1,68
 461 178 461 178 505 141 c 1,69,-1
 906 1084 l 1,70,71
 809 1140 809 1140 705 1140 c 0,72,73
 628 1140 628 1140 556 1109 c 128,-1,74
 484 1078 484 1078 428.5 1015 c 128,-1,75
 373 952 373 952 339 857.5 c 128,-1,76
 305 763 305 763 305 636 c 0,64,65
1164 546 m 0,77,78
 1164 700 1164 700 1121 813.5 c 128,-1,79
 1078 927 1078 927 1009 1002 c 1,80,81
 975 931 975 931 934 840 c 128,-1,82
 893 749 893 749 844.5 633.5 c 128,-1,83
 796 518 796 518 740.5 377 c 128,-1,84
 685 236 685 236 624 67 c 1,85,86
 698 36 698 36 777 36 c 0,87,88
 852 36 852 36 922 67 c 128,-1,89
 992 98 992 98 1045.5 161 c 128,-1,90
 1099 224 1099 224 1131.5 320 c 128,-1,91
 1164 416 1164 416 1164 546 c 0,77,78
EndSplineSet
Validated: 16385
EndChar

StartChar: AE
Encoding: 198 198 63
Width: 1856
Flags: W
HStem: 0 58<1134.83 1636.78> 0 43<1080.53 1543.17> 514 60<544 830> 582 71<1032 1459.12> 874 21G<1706.5 1720.5> 1126 55<1016.32 1607.28>
VStem: 830 202<378.766 514 574 582 653 880.656> 830 176<659.203 1011> 1668.5 70.5<876.325 1059.47> 1688 71<110.136 278.277>
LayerCount: 2
Fore
SplineSet
1563 58 m 2,0,1
 1602 59 1602 59 1624.5 76 c 128,-1,2
 1647 93 1647 93 1659 117.5 c 128,-1,3
 1671 142 1671 142 1676.5 170.5 c 128,-1,4
 1682 199 1682 199 1688 223.5 c 128,-1,5
 1694 248 1694 248 1704.5 264 c 128,-1,6
 1715 280 1715 280 1736 280 c 0,7,8
 1738 280 1738 280 1742.5 279 c 128,-1,9
 1747 278 1747 278 1759 275 c 1,10,-1
 1731 -47 l 1,11,12
 1714 -52 1714 -52 1708 -52 c 0,13,14
 1688 -52 1688 -52 1674 -44 c 128,-1,15
 1660 -36 1660 -36 1645 -26 c 128,-1,16
 1630 -16 1630 -16 1611.5 -8 c 128,-1,17
 1593 0 1593 0 1563 0 c 2,18,-1
 623 0 l 1,19,20
 622 3 622 3 622 9 c 256,21,22
 622 15 622 15 624 18 c 1,23,24
 627 29 627 29 651 37 c 128,-1,25
 675 45 675 45 704 51.5 c 128,-1,26
 733 58 733 58 761.5 63 c 128,-1,27
 790 68 790 68 802 73 c 0,28,29
 824 81 824 81 832 103 c 0,30,31
 833 107 833 107 833 116 c 0,32,33
 833 119 833 119 833 122.5 c 128,-1,34
 833 126 833 126 832 130 c 1,35,-1
 832 514 l 1,36,-1
 503 514 l 1,37,-1
 233 124 l 2,38,39
 229 118 229 118 226 112 c 128,-1,40
 223 106 223 106 221 100 c 0,41,42
 219 92 219 92 219 89 c 0,43,44
 219 71 219 71 240 64.5 c 128,-1,45
 261 58 261 58 291.5 54.5 c 128,-1,46
 322 51 322 51 355.5 46.5 c 128,-1,47
 389 42 389 42 415 28 c 0,48,49
 417 26 417 26 417 25 c 256,50,51
 417 24 417 24 416.5 23 c 128,-1,52
 416 22 416 22 416 20 c 2,53,-1
 416 17 l 1,54,-1
 411 6 l 1,55,-1
 407 0 l 1,56,-1
 -61 0 l 1,57,58
 -61 2 -61 2 -61.5 3.5 c 128,-1,59
 -62 5 -62 5 -62 7 c 0,60,61
 -62 12 -62 12 -59 18 c 1,62,63
 -53 38 -53 38 -27.5 45.5 c 128,-1,64
 -2 53 -2 53 31 60.5 c 128,-1,65
 64 68 64 68 98 82 c 128,-1,66
 132 96 132 96 156 130 c 2,67,-1
 830 1098 l 2,68,69
 856 1136 856 1136 874.5 1160.5 c 128,-1,70
 893 1185 893 1185 907 1199.5 c 128,-1,71
 921 1214 921 1214 933 1220 c 128,-1,72
 945 1226 945 1226 959 1226 c 0,73,74
 961 1226 961 1226 964.5 1225.5 c 128,-1,75
 968 1225 968 1225 972 1220.5 c 128,-1,76
 976 1216 976 1216 980 1207 c 128,-1,77
 984 1198 984 1198 988 1181 c 1,78,-1
 1576 1181 l 2,79,80
 1599 1181 1599 1181 1616 1184 c 128,-1,81
 1633 1187 1633 1187 1648 1192.5 c 128,-1,82
 1663 1198 1663 1198 1677.5 1205.5 c 128,-1,83
 1692 1213 1692 1213 1711 1223 c 0,84,85
 1713 1223 1713 1223 1718.5 1222 c 128,-1,86
 1724 1221 1724 1221 1739 1218 c 1,87,-1
 1739 880 l 1,88,89
 1725 874 1725 874 1716 874 c 0,90,91
 1697 874 1697 874 1686.5 892 c 128,-1,92
 1676 910 1676 910 1668.5 937 c 128,-1,93
 1661 964 1661 964 1654 996 c 128,-1,94
 1647 1028 1647 1028 1635 1056 c 128,-1,95
 1623 1084 1623 1084 1603 1103.5 c 128,-1,96
 1583 1123 1583 1123 1550 1126 c 1,97,-1
 1055 1126 l 2,98,99
 1026 1126 1026 1126 1016 1115 c 128,-1,100
 1006 1104 1006 1104 1006 1075 c 0,101,102
 1006 1070 1006 1070 1006 1063.5 c 128,-1,103
 1006 1057 1006 1057 1007 1050 c 2,104,-1
 1032 653 l 1,105,-1
 1406 653 l 2,106,107
 1434 653 1434 653 1451 674.5 c 128,-1,108
 1468 696 1468 696 1481.5 722 c 128,-1,109
 1495 748 1495 748 1509 769.5 c 128,-1,110
 1523 791 1523 791 1545 791 c 0,111,112
 1547 791 1547 791 1551.5 790 c 128,-1,113
 1556 789 1556 789 1567 786 c 1,114,-1
 1567 444 l 1,115,116
 1555 438 1555 438 1545 438 c 0,117,118
 1528 438 1528 438 1514 460 c 128,-1,119
 1500 482 1500 482 1485 508 c 128,-1,120
 1470 534 1470 534 1451 557 c 128,-1,121
 1432 580 1432 580 1406 582 c 1,122,-1
 1032 582 l 1,123,-1
 1066 100 l 1,124,125
 1071 80 1071 80 1081.5 62.5 c 128,-1,126
 1092 45 1092 45 1115 43 c 1,127,-1
 1563 58 l 2,0,1
544 574 m 1,128,-1
 830 574 l 1,129,-1
 830 1011 l 1,130,-1
 544 574 l 1,128,-1
EndSplineSet
Validated: 16385
EndChar

StartChar: q
Encoding: 113 113 64
Width: 1113
Flags: W
HStem: -360 50.5<559.561 712.628> -17 112<388.529 622.733> 833 69<399.807 676.5>
VStem: 77 205<227.717 676.381> 753 206<-286.447 156 189.396 782.886>
LayerCount: 2
Fore
SplineSet
562 -360 m 1,0,1
 558 -347 558 -347 558 -343 c 0,2,3
 558 -329 558 -329 572.5 -321.5 c 128,-1,4
 587 -314 587 -314 609 -309.5 c 128,-1,5
 631 -305 631 -305 656.5 -300.5 c 128,-1,6
 682 -296 682 -296 704 -288 c 128,-1,7
 726 -280 726 -280 740.5 -266 c 128,-1,8
 755 -252 755 -252 755 -228 c 2,9,-1
 755 156 l 1,10,11
 692 65 692 65 616 24 c 128,-1,12
 540 -17 540 -17 462 -17 c 0,13,14
 388 -17 388 -17 318.5 17 c 128,-1,15
 249 51 249 51 195.5 111.5 c 128,-1,16
 142 172 142 172 109.5 256.5 c 128,-1,17
 77 341 77 341 77 442 c 0,18,19
 77 559 77 559 109 645.5 c 128,-1,20
 141 732 141 732 196 789 c 128,-1,21
 251 846 251 846 324 874 c 128,-1,22
 397 902 397 902 479 902 c 0,23,24
 539 902 539 902 598 891.5 c 128,-1,25
 657 881 657 881 704 868 c 0,26,27
 759 853 759 853 808 834 c 1,28,-1
 815 839 l 2,29,30
 826 847 826 847 842 858 c 128,-1,31
 858 869 858 869 875 878.5 c 128,-1,32
 892 888 892 888 908.5 895 c 128,-1,33
 925 902 925 902 938 902 c 0,34,35
 952 902 952 902 955.5 891.5 c 128,-1,36
 959 881 959 881 959 865 c 2,37,-1
 959 -228 l 2,38,39
 959 -252 959 -252 972 -266 c 128,-1,40
 985 -280 985 -280 1004 -288 c 128,-1,41
 1023 -296 1023 -296 1046 -301 c 128,-1,42
 1069 -306 1069 -306 1088 -311 c 128,-1,43
 1107 -316 1107 -316 1120 -322.5 c 128,-1,44
 1133 -329 1133 -329 1133 -342 c 0,45,46
 1133 -350 1133 -350 1128 -360 c 1,47,-1
 562 -360 l 1,0,1
282 452 m 0,48,49
 282 358 282 358 301 290.5 c 128,-1,50
 320 223 320 223 351.5 179.5 c 128,-1,51
 383 136 383 136 425 115.5 c 128,-1,52
 467 95 467 95 512 95 c 0,53,54
 576 95 576 95 640.5 132.5 c 128,-1,55
 705 170 705 170 753 248 c 1,56,-1
 753 750 l 1,57,58
 729 773 729 773 693 791 c 0,59,60
 662 807 662 807 615 820 c 128,-1,61
 568 833 568 833 504 833 c 0,62,63
 447 833 447 833 405 803 c 128,-1,64
 363 773 363 773 335.5 721 c 128,-1,65
 308 669 308 669 295 599.5 c 128,-1,66
 282 530 282 530 282 452 c 0,48,49
EndSplineSet
Validated: 16385
Substitution2: "'smcp' Lowercase to Small Capitals in Latin lookup 3 subtable" q.sc
EndChar

StartChar: oe
Encoding: 339 339 65
Width: 1706
Flags: W
HStem: -18 113<1166.15 1489.32> -18 54<457.275 687.897> 472 60<1046.8 1451.72> 472 45<1029 1413.2> 850 52<427.748 660.633 1185.68 1373.27>
VStem: 73 206<242.751 643.029> 831 196<248.529 472 517 686.311> 1461 179<523.5 721.641>
LayerCount: 2
Fore
SplineSet
73 442 m 0,0,1
 73 547 73 547 112.5 632 c 128,-1,2
 152 717 152 717 217 777 c 128,-1,3
 282 837 282 837 367 869.5 c 128,-1,4
 452 902 452 902 544 902 c 0,5,6
 654 902 654 902 753.5 850.5 c 128,-1,7
 853 799 853 799 921 694 c 1,8,9
 986 802 986 802 1084 854 c 128,-1,10
 1182 906 1182 906 1297 906 c 0,11,12
 1376 906 1376 906 1440 875.5 c 128,-1,13
 1504 845 1504 845 1548 793 c 128,-1,14
 1592 741 1592 741 1616 673.5 c 128,-1,15
 1640 606 1640 606 1640 531 c 0,16,17
 1640 516 1640 516 1639 501.5 c 128,-1,18
 1638 487 1638 487 1636 472 c 1,19,-1
 1027 472 l 1,20,21
 1027 385 1027 385 1046.5 315 c 128,-1,22
 1066 245 1066 245 1104 196.5 c 128,-1,23
 1142 148 1142 148 1198 121.5 c 128,-1,24
 1254 95 1254 95 1328 95 c 0,25,26
 1375 95 1375 95 1407.5 98 c 128,-1,27
 1440 101 1440 101 1466 106 c 128,-1,28
 1492 111 1492 111 1517 117.5 c 128,-1,29
 1542 124 1542 124 1574 131 c 1,30,31
 1585 131 1585 131 1585 117 c 256,32,33
 1585 103 1585 103 1584 98 c 128,-1,34
 1583 93 1583 93 1580 90 c 0,35,36
 1523 37 1523 37 1449 9.5 c 128,-1,37
 1375 -18 1375 -18 1283 -18 c 0,38,39
 1225 -18 1225 -18 1172.5 -6.5 c 128,-1,40
 1120 5 1120 5 1074 30 c 128,-1,41
 1028 55 1028 55 989.5 94 c 128,-1,42
 951 133 951 133 921 188 c 1,43,44
 861 82 861 82 775 32 c 128,-1,45
 689 -18 689 -18 586 -18 c 0,46,47
 480 -18 480 -18 386.5 14 c 128,-1,48
 293 46 293 46 223.5 106 c 128,-1,49
 154 166 154 166 113.5 251 c 128,-1,50
 73 336 73 336 73 442 c 0,0,1
279 474 m 0,51,52
 279 387 279 387 294 308 c 128,-1,53
 309 229 309 229 344.5 168.5 c 128,-1,54
 380 108 380 108 439 72 c 128,-1,55
 498 36 498 36 586 36 c 0,56,57
 652 36 652 36 698.5 69.5 c 128,-1,58
 745 103 745 103 774.5 156.5 c 128,-1,59
 804 210 804 210 817.5 277 c 128,-1,60
 831 344 831 344 831 410 c 0,61,62
 831 502 831 502 817 582.5 c 128,-1,63
 803 663 803 663 769 722.5 c 128,-1,64
 735 782 735 782 677 816 c 128,-1,65
 619 850 619 850 531 850 c 0,66,67
 468 850 468 850 420.5 820.5 c 128,-1,68
 373 791 373 791 341.5 740 c 128,-1,69
 310 689 310 689 294.5 620.5 c 128,-1,70
 279 552 279 552 279 474 c 0,51,52
1461 568 m 0,71,72
 1461 631 1461 631 1451.5 683 c 128,-1,73
 1442 735 1442 735 1421 772 c 128,-1,74
 1400 809 1400 809 1366 829.5 c 128,-1,75
 1332 850 1332 850 1282 850 c 0,76,77
 1224 850 1224 850 1179.5 821 c 128,-1,78
 1135 792 1135 792 1103.5 745 c 128,-1,79
 1072 698 1072 698 1053.5 638 c 128,-1,80
 1035 578 1035 578 1029 517 c 1,81,-1
 1431 532 l 2,82,83
 1443 533 1443 533 1452 542.5 c 128,-1,84
 1461 552 1461 552 1461 568 c 0,71,72
EndSplineSet
Validated: 16385
Substitution2: "'smcp' Lowercase to Small Capitals in Latin lookup 3 subtable" oe.sc
EndChar

StartChar: eth
Encoding: 240 240 71
Width: 1101
Flags: W
HStem: -20 82<395.655 621.578> 823 79<409.658 652.276> 970 76.5<493.346 620.719> 1101.5 76.5<897.312 1037.14> 1313 20G<472 488>
VStem: 76 206<213.028 656.56> 784 206<275.598 727.561 775 861.454>
LayerCount: 2
Fore
SplineSet
678 1100 m 1,0,1
 649 1140 649 1140 618 1173.5 c 128,-1,2
 587 1207 587 1207 558.5 1234 c 128,-1,3
 530 1261 530 1261 506 1281 c 128,-1,4
 482 1301 482 1301 469 1316 c 0,5,6
 467 1318 467 1318 467 1319 c 0,7,8
 467 1322 467 1322 469 1325.5 c 128,-1,9
 471 1329 471 1329 473 1333 c 1,10,11
 503 1322 503 1322 542 1307 c 128,-1,12
 581 1292 581 1292 623.5 1268.5 c 128,-1,13
 666 1245 666 1245 710.5 1211.5 c 128,-1,14
 755 1178 755 1178 797 1132 c 1,15,-1
 904 1161 l 2,16,17
 937 1170 937 1170 960 1174 c 128,-1,18
 983 1178 983 1178 1000 1178 c 0,19,20
 1026 1178 1026 1178 1037.5 1166 c 128,-1,21
 1049 1154 1049 1154 1049 1132 c 0,22,23
 1049 1122 1049 1122 1043 1115 c 128,-1,24
 1037 1108 1037 1108 1022.5 1101.5 c 128,-1,25
 1008 1095 1008 1095 985 1088 c 128,-1,26
 962 1081 962 1081 928 1072 c 2,27,-1
 858 1053 l 1,28,29
 886 1009 886 1009 910.5 955 c 128,-1,30
 935 901 935 901 952.5 836 c 128,-1,31
 970 771 970 771 980 694 c 128,-1,32
 990 617 990 617 990 527 c 0,33,34
 990 385 990 385 949 282 c 128,-1,35
 908 179 908 179 841.5 112 c 128,-1,36
 775 45 775 45 690.5 12.5 c 128,-1,37
 606 -20 606 -20 519 -20 c 0,38,39
 435 -20 435 -20 355.5 8.5 c 128,-1,40
 276 37 276 37 213.5 92.5 c 128,-1,41
 151 148 151 148 113.5 228 c 128,-1,42
 76 308 76 308 76 412 c 0,43,44
 76 527 76 527 106 618 c 128,-1,45
 136 709 136 709 190 772 c 128,-1,46
 244 835 244 835 320 868.5 c 128,-1,47
 396 902 396 902 488 902 c 0,48,49
 552 902 552 902 606 882 c 128,-1,50
 660 862 660 862 700 838 c 0,51,52
 747 810 747 810 784 775 c 1,53,54
 784 846 784 846 768 906 c 128,-1,55
 752 966 752 966 726 1018 c 1,56,-1
 626 991 l 2,57,58
 588 980 588 980 563.5 975 c 128,-1,59
 539 970 539 970 523 970 c 0,60,61
 504 970 504 970 493 980.5 c 128,-1,62
 482 991 482 991 482 1014 c 0,63,64
 482 1023 482 1023 487.5 1031 c 128,-1,65
 493 1039 493 1039 506.5 1046.5 c 128,-1,66
 520 1054 520 1054 543 1062 c 128,-1,67
 566 1070 566 1070 600 1079 c 2,68,-1
 678 1100 l 1,0,1
784 683 m 1,69,70
 749 722 749 722 709 753 c 0,71,72
 674 779 674 779 627 801 c 128,-1,73
 580 823 580 823 526 823 c 0,74,75
 461 823 461 823 414.5 788.5 c 128,-1,76
 368 754 368 754 338.5 697.5 c 128,-1,77
 309 641 309 641 295.5 567.5 c 128,-1,78
 282 494 282 494 282 416 c 0,79,80
 282 329 282 329 301 263 c 128,-1,81
 320 197 320 197 351 152 c 128,-1,82
 382 107 382 107 422.5 84.5 c 128,-1,83
 463 62 463 62 507 62 c 0,84,85
 557 62 557 62 606.5 92.5 c 128,-1,86
 656 123 656 123 695.5 184.5 c 128,-1,87
 735 246 735 246 759.5 339.5 c 128,-1,88
 784 433 784 433 784 559 c 2,89,-1
 784 683 l 1,69,70
EndSplineSet
Validated: 16385
Substitution2: "'smcp' Lowercase to Small Capitals in Latin lookup 3 subtable" eth.sc
EndChar

StartChar: thorn
Encoding: 254 254 77
Width: 1114
Flags: W
HStem: -360 49<-16.9717 112.932> -17 83<404.784 726.681> 790 112<502.122 733.712> 1294 20G<247.286 361>
VStem: 155 206<-285.906 33 106.754 691.398 729 1170.4> 832 205<208.354 657.283>
LayerCount: 2
Fore
SplineSet
360 -228 m 2,0,1
 360 -252 360 -252 374.5 -266 c 128,-1,2
 389 -280 389 -280 411 -288 c 128,-1,3
 433 -296 433 -296 458.5 -300.5 c 128,-1,4
 484 -305 484 -305 506 -309.5 c 128,-1,5
 528 -314 528 -314 542.5 -321.5 c 128,-1,6
 557 -329 557 -329 557 -343 c 0,7,8
 557 -347 557 -347 553 -360 c 1,9,-1
 -13 -360 l 1,10,11
 -18 -350 -18 -350 -18 -342 c 0,12,13
 -18 -329 -18 -329 -5 -322.5 c 128,-1,14
 8 -316 8 -316 27 -311 c 128,-1,15
 46 -306 46 -306 68.5 -301 c 128,-1,16
 91 -296 91 -296 110 -288 c 128,-1,17
 129 -280 129 -280 142 -266 c 128,-1,18
 155 -252 155 -252 155 -228 c 2,19,-1
 155 1122 l 2,20,21
 155 1139 155 1139 140.5 1151.5 c 128,-1,22
 126 1164 126 1164 104 1173 c 128,-1,23
 82 1182 82 1182 57 1188.5 c 128,-1,24
 32 1195 32 1195 10 1201 c 128,-1,25
 -12 1207 -12 1207 -26.5 1213 c 128,-1,26
 -41 1219 -41 1219 -41 1227 c 256,27,28
 -41 1235 -41 1235 -37 1244 c 1,29,-1
 361 1314 l 1,30,-1
 361 729 l 1,31,32
 397 777 397 777 443 815 c 0,33,34
 462 831 462 831 485 846.5 c 128,-1,35
 508 862 508 862 534.5 874.5 c 128,-1,36
 561 887 561 887 590.5 894.5 c 128,-1,37
 620 902 620 902 652 902 c 0,38,39
 726 902 726 902 795.5 868 c 128,-1,40
 865 834 865 834 918.5 773.5 c 128,-1,41
 972 713 972 713 1004.5 628.5 c 128,-1,42
 1037 544 1037 544 1037 443 c 0,43,44
 1037 326 1037 326 1005 239.5 c 128,-1,45
 973 153 973 153 918 96 c 128,-1,46
 863 39 863 39 790 11 c 128,-1,47
 717 -17 717 -17 635 -17 c 0,48,49
 574 -17 574 -17 524 -9.5 c 128,-1,50
 474 -2 474 -2 437 8 c 0,51,52
 394 19 394 19 360 33 c 1,53,-1
 360 -228 l 2,0,1
832 433 m 0,54,55
 832 527 832 527 815.5 594.5 c 128,-1,56
 799 662 799 662 769 705.5 c 128,-1,57
 739 749 739 749 696.5 769.5 c 128,-1,58
 654 790 654 790 602 790 c 0,59,60
 549 790 549 790 505 766 c 128,-1,61
 461 742 461 742 429 713 c 0,62,63
 391 680 391 680 361 637 c 1,64,-1
 361 134 l 1,65,66
 385 115 385 115 421 100 c 0,67,68
 452 87 452 87 498.5 76.5 c 128,-1,69
 545 66 545 66 610 66 c 0,70,71
 667 66 667 66 709 94 c 128,-1,72
 751 122 751 122 778.5 171 c 128,-1,73
 806 220 806 220 819 287.5 c 128,-1,74
 832 355 832 355 832 433 c 0,54,55
EndSplineSet
Validated: 16385
Substitution2: "'smcp' Lowercase to Small Capitals in Latin lookup 3 subtable" thorn.sc
EndChar

StartChar: k
Encoding: 107 107 78
Width: 1119
Flags: W
HStem: 0 33.5<609.749 710.809> 420 55<398 460> 836 32<683.239 795.574> 1294 20G<284.286 398>
VStem: 192 206<67.6758 420 475 1170.4>
LayerCount: 2
Fore
SplineSet
192 1122 m 2,0,1
 192 1139 192 1139 177.5 1151.5 c 128,-1,2
 163 1164 163 1164 141 1173 c 128,-1,3
 119 1182 119 1182 94 1188.5 c 128,-1,4
 69 1195 69 1195 47 1201 c 128,-1,5
 25 1207 25 1207 10.5 1213 c 128,-1,6
 -4 1219 -4 1219 -4 1227 c 256,7,8
 -4 1235 -4 1235 0 1244 c 1,9,-1
 398 1314 l 1,10,-1
 398 475 l 1,11,-1
 460 475 l 1,12,-1
 810 778 l 1,13,14
 812 784 812 784 812 788 c 128,-1,15
 812 792 812 792 812 794 c 0,16,17
 812 815 812 815 792 821.5 c 128,-1,18
 772 828 772 828 747.5 830 c 128,-1,19
 723 832 723 832 703 836 c 128,-1,20
 683 840 683 840 683 855 c 0,21,22
 683 860 683 860 686 868 c 1,23,-1
 1080 868 l 1,24,-1
 1083 855 l 1,25,26
 1083 844 1083 844 1061.5 834.5 c 128,-1,27
 1040 825 1040 825 1000 817 c 0,28,29
 963 809 963 809 938 798 c 128,-1,30
 913 787 913 787 898 774 c 2,31,-1
 602 522 l 1,32,-1
 936 94 l 2,33,34
 943 86 943 86 959 79 c 128,-1,35
 975 72 975 72 994.5 65 c 128,-1,36
 1014 58 1014 58 1034.5 52 c 128,-1,37
 1055 46 1055 46 1072.5 39.5 c 128,-1,38
 1090 33 1090 33 1101 26.5 c 128,-1,39
 1112 20 1112 20 1112 13 c 0,40,41
 1112 10 1112 10 1111.5 6.5 c 128,-1,42
 1111 3 1111 3 1109 0 c 1,43,-1
 614 0 l 1,44,45
 609 9 609 9 609 12 c 0,46,47
 609 21 609 21 617.5 26 c 128,-1,48
 626 31 626 31 639 33.5 c 128,-1,49
 652 36 652 36 667.5 38 c 128,-1,50
 683 40 683 40 696 44 c 128,-1,51
 709 48 709 48 717.5 54.5 c 128,-1,52
 726 61 726 61 726 74 c 0,53,54
 726 76 726 76 723.5 82 c 128,-1,55
 721 88 721 88 713 97 c 2,56,-1
 463 420 l 1,57,-1
 398 420 l 1,58,-1
 398 116 l 2,59,60
 398 95 398 95 409.5 82.5 c 128,-1,61
 421 70 421 70 437.5 62.5 c 128,-1,62
 454 55 454 55 474 51 c 128,-1,63
 494 47 494 47 510.5 42.5 c 128,-1,64
 527 38 527 38 538.5 31.5 c 128,-1,65
 550 25 550 25 550 14 c 0,66,67
 550 12 550 12 549 8.5 c 128,-1,68
 548 5 548 5 546 0 c 1,69,-1
 22 0 l 1,70,71
 20 5 20 5 19.5 7.5 c 128,-1,72
 19 10 19 10 19 12 c 0,73,74
 19 23 19 23 32 29.5 c 128,-1,75
 45 36 45 36 64 42 c 128,-1,76
 83 48 83 48 105.5 53.5 c 128,-1,77
 128 59 128 59 147 67.5 c 128,-1,78
 166 76 166 76 179 88.5 c 128,-1,79
 192 101 192 101 192 120 c 2,80,-1
 192 1122 l 2,0,1
EndSplineSet
Validated: 16385
Substitution2: "'smcp' Lowercase to Small Capitals in Latin lookup 3 subtable" k.sc
EndChar

StartChar: r
Encoding: 114 114 79
Width: 809
Flags: W
HStem: 0 28<49 78.1108> 811 91<518.275 663> 866 20G<199.526 372.758>
VStem: 207 206<79.9266 741.123>
LayerCount: 2
Fore
SplineSet
524 796 m 0,0,1
 493 779 493 779 472 757 c 128,-1,2
 451 735 451 735 438 712.5 c 128,-1,3
 425 690 425 690 419 669.5 c 128,-1,4
 413 649 413 649 413 636 c 2,5,-1
 413 120 l 2,6,7
 413 97 413 97 426.5 84 c 128,-1,8
 440 71 440 71 460 63.5 c 128,-1,9
 480 56 480 56 503 52.5 c 128,-1,10
 526 49 526 49 546 45.5 c 128,-1,11
 566 42 566 42 579.5 36 c 128,-1,12
 593 30 593 30 593 18 c 0,13,14
 593 9 593 9 589 0 c 1,15,-1
 49 0 l 1,16,-1
 47 6 l 2,17,18
 45 14 45 14 45 17 c 0,19,20
 45 25 45 25 49 28 c 0,21,22
 76 44 76 44 104.5 49 c 128,-1,23
 133 54 133 54 155.5 60 c 128,-1,24
 178 66 178 66 192.5 79.5 c 128,-1,25
 207 93 207 93 207 126 c 2,26,-1
 207 738 l 2,27,28
 207 759 207 759 195 771 c 128,-1,29
 183 783 183 783 164.5 789.5 c 128,-1,30
 146 796 146 796 124.5 799 c 128,-1,31
 103 802 103 802 84.5 805 c 128,-1,32
 66 808 66 808 54 813.5 c 128,-1,33
 42 819 42 819 42 830 c 0,34,35
 42 836 42 836 47 848 c 1,36,-1
 369 886 l 1,37,-1
 400 721 l 1,38,39
 422 768 422 768 453.5 802 c 128,-1,40
 485 836 485 836 520 858.5 c 128,-1,41
 555 881 555 881 592 891.5 c 128,-1,42
 629 902 629 902 663 902 c 0,43,44
 718 902 718 902 755.5 875.5 c 128,-1,45
 793 849 793 849 793 801 c 0,46,47
 793 781 793 781 787 763 c 128,-1,48
 781 745 781 745 770 731 c 128,-1,49
 759 717 759 717 742.5 708.5 c 128,-1,50
 726 700 726 700 704 700 c 0,51,52
 676 700 676 700 658.5 708 c 128,-1,53
 641 716 641 716 630.5 728.5 c 128,-1,54
 620 741 620 741 614.5 755.5 c 128,-1,55
 609 770 609 770 603.5 782.5 c 128,-1,56
 598 795 598 795 590.5 803 c 128,-1,57
 583 811 583 811 570 811 c 0,58,59
 562 811 562 811 550.5 807.5 c 128,-1,60
 539 804 539 804 524 796 c 0,0,1
EndSplineSet
Validated: 16385
Substitution2: "'smcp' Lowercase to Small Capitals in Latin lookup 3 subtable" r.sc
EndChar

StartChar: x
Encoding: 120 120 85
Width: 986
Flags: W
HStem: 0 36.5<16.0935 133.945> 848 20G<25.5 496.5 555.5 918>
LayerCount: 2
Fore
SplineSet
917 868 m 1,0,1
 919 863 919 863 919 859 c 128,-1,2
 919 855 919 855 919 853 c 0,3,4
 919 848 919 848 912 844 c 128,-1,5
 905 840 905 840 895.5 836 c 128,-1,6
 886 832 886 832 874.5 829.5 c 128,-1,7
 863 827 863 827 854 825 c 0,8,9
 817 816 817 816 795.5 804.5 c 128,-1,10
 774 793 774 793 755 767 c 2,11,-1
 560 498 l 1,12,-1
 833 96 l 2,13,14
 851 69 851 69 871.5 59.5 c 128,-1,15
 892 50 892 50 930 45 c 0,16,17
 939 44 939 44 950.5 40.5 c 128,-1,18
 962 37 962 37 972 32.5 c 128,-1,19
 982 28 982 28 989 23 c 128,-1,20
 996 18 996 18 996 12 c 0,21,22
 996 10 996 10 993 0 c 1,23,-1
 488 0 l 1,24,25
 486 3 486 3 485.5 6.5 c 128,-1,26
 485 10 485 10 485 13 c 0,27,28
 485 25 485 25 505 32 c 128,-1,29
 525 39 525 39 549 46 c 128,-1,30
 573 53 573 53 593 61.5 c 128,-1,31
 613 70 613 70 613 84 c 0,32,33
 613 93 613 93 608 101 c 2,34,-1
 444 367 l 1,35,-1
 274 89 l 1,36,37
 267 81 267 81 267 74 c 0,38,39
 267 64 267 64 280.5 58 c 128,-1,40
 294 52 294 52 312.5 47 c 128,-1,41
 331 42 331 42 351.5 36 c 128,-1,42
 372 30 372 30 387 20 c 0,43,44
 390 18 390 18 390 12 c 0,45,46
 390 10 390 10 387 0 c 1,47,-1
 17 0 l 1,48,49
 14 6 14 6 14 13 c 0,50,51
 14 18 14 18 21 22.5 c 128,-1,52
 28 27 28 27 37.5 30.5 c 128,-1,53
 47 34 47 34 58 36.5 c 128,-1,54
 69 39 69 39 78 40 c 0,55,56
 115 47 115 47 140.5 57 c 128,-1,57
 166 67 166 67 185 94 c 2,58,-1
 409 420 l 1,59,-1
 175 759 l 2,60,61
 166 772 166 772 158.5 781.5 c 128,-1,62
 151 791 151 791 142 797.5 c 128,-1,63
 133 804 133 804 120.5 808 c 128,-1,64
 108 812 108 812 89 816 c 0,65,66
 79 818 79 818 67.5 822 c 128,-1,67
 56 826 56 826 46.5 831.5 c 128,-1,68
 37 837 37 837 30.5 843 c 128,-1,69
 24 849 24 849 24 855 c 0,70,71
 24 856 24 856 27 868 c 1,72,-1
 495 868 l 1,73,74
 498 859 498 859 498 854 c 0,75,76
 498 843 498 843 480.5 834.5 c 128,-1,77
 463 826 463 826 442.5 817 c 128,-1,78
 422 808 422 808 404.5 798 c 128,-1,79
 387 788 387 788 387 775 c 0,80,81
 387 769 387 769 393 759 c 2,82,-1
 523 558 l 1,83,-1
 673 769 l 2,84,85
 679 778 679 778 679 786 c 0,86,87
 679 796 679 796 665 803 c 128,-1,88
 651 810 651 810 631.5 816.5 c 128,-1,89
 612 823 612 823 591 830 c 128,-1,90
 570 837 570 837 557 847 c 1,91,92
 554 848 554 848 554 855 c 0,93,94
 554 856 554 856 557 868 c 1,95,-1
 917 868 l 1,0,1
EndSplineSet
Validated: 16385
Substitution2: "'smcp' Lowercase to Small Capitals in Latin lookup 3 subtable" x.sc
EndChar

StartChar: v
Encoding: 118 118 86
Width: 952
Flags: W
HStem: -12 21G<462 483.5> 817.5 50.5<341.934 473.773> 827 41<373.844 471.637 577.031 651.08>
LayerCount: 2
Fore
SplineSet
119 776 m 2,0,1
 110 798 110 798 93.5 807 c 128,-1,2
 77 816 77 816 58 819.5 c 128,-1,3
 39 823 39 823 19 827 c 128,-1,4
 -1 831 -1 831 -18 845 c 1,5,-1
 -14 868 l 1,6,-1
 462 868 l 1,7,8
 464 863 464 863 469 853 c 128,-1,9
 474 843 474 843 474 842 c 0,10,11
 474 833 474 833 462.5 827 c 128,-1,12
 451 821 451 821 434 817.5 c 128,-1,13
 417 814 417 814 398.5 811 c 128,-1,14
 380 808 380 808 367 805 c 0,15,16
 336 798 336 798 336 777 c 0,17,18
 336 773 336 773 337 769 c 128,-1,19
 338 765 338 765 340 760 c 2,20,-1
 536 250 l 1,21,-1
 702 704 l 2,22,23
 714 735 714 735 714 752 c 256,24,25
 714 769 714 769 704.5 778.5 c 128,-1,26
 695 788 695 788 678 795.5 c 128,-1,27
 661 803 661 803 636.5 812 c 128,-1,28
 612 821 612 821 582 837 c 0,29,30
 577 839 577 839 577 849 c 0,31,32
 577 855 577 855 582 868 c 1,33,-1
 966 868 l 1,34,35
 969 863 969 863 969.5 858.5 c 128,-1,36
 970 854 970 854 970 849 c 0,37,38
 970 841 970 841 960.5 833 c 128,-1,39
 951 825 951 825 936 818.5 c 128,-1,40
 921 812 921 812 903.5 807 c 128,-1,41
 886 802 886 802 871 799 c 0,42,43
 854 796 854 796 843 790.5 c 128,-1,44
 832 785 832 785 823.5 775 c 128,-1,45
 815 765 815 765 808 750.5 c 128,-1,46
 801 736 801 736 792 715 c 2,47,-1
 500 2 l 2,48,49
 494 -12 494 -12 473 -12 c 0,50,51
 451 -12 451 -12 446 2 c 2,52,-1
 119 776 l 2,0,1
EndSplineSet
Validated: 16385
Substitution2: "'smcp' Lowercase to Small Capitals in Latin lookup 3 subtable" v.sc
EndChar

StartChar: w
Encoding: 119 119 87
Width: 1355
Flags: W
HStem: -17 21G<423.5 446 927 950> 833 35<366.113 442.561 864.815 942.664> 848 20<500 522.279 1005.24 1029.33>
LayerCount: 2
Fore
SplineSet
679 642 m 1,0,-1
 462 -3 l 2,1,2
 457 -17 457 -17 435 -17 c 0,3,4
 412 -17 412 -17 407 -3 c 2,5,-1
 120 763 l 2,6,7
 111 787 111 787 92.5 799 c 128,-1,8
 74 811 74 811 53 818.5 c 128,-1,9
 32 826 32 826 11.5 832.5 c 128,-1,10
 -9 839 -9 839 -23 853 c 1,11,-1
 -19 868 l 1,12,-1
 439 868 l 1,13,14
 443 859 443 859 443 855 c 0,15,16
 443 839 443 839 425 833 c 128,-1,17
 407 827 407 827 385.5 821.5 c 128,-1,18
 364 816 364 816 346 807 c 128,-1,19
 328 798 328 798 328 777 c 0,20,21
 328 772 328 772 328 768.5 c 128,-1,22
 328 765 328 765 330 760 c 2,23,-1
 496 283 l 1,24,-1
 653 718 l 1,25,-1
 621 791 l 2,26,27
 615 804 615 804 601 811.5 c 128,-1,28
 587 819 587 819 569.5 824 c 128,-1,29
 552 829 552 829 533.5 834.5 c 128,-1,30
 515 840 515 840 500 848 c 1,31,32
 495 848 495 848 495 855 c 1,33,-1
 500 868 l 1,34,-1
 939 868 l 1,35,36
 941 863 941 863 942 860 c 128,-1,37
 943 857 943 857 943 855 c 0,38,39
 943 838 943 838 926 832 c 128,-1,40
 909 826 909 826 888.5 822 c 128,-1,41
 868 818 868 818 851 810 c 128,-1,42
 834 802 834 802 834 781 c 0,43,44
 834 771 834 771 838 760 c 2,45,-1
 992 284 l 1,46,-1
 1137 758 l 2,47,48
 1139 762 1139 762 1139 766 c 128,-1,49
 1139 770 1139 770 1139 774 c 0,50,51
 1139 794 1139 794 1128 803 c 128,-1,52
 1117 812 1117 812 1098.5 817.5 c 128,-1,53
 1080 823 1080 823 1057 828.5 c 128,-1,54
 1034 834 1034 834 1010 848 c 1,55,56
 1005 848 1005 848 1005 855 c 256,57,58
 1005 862 1005 862 1010 868 c 1,59,-1
 1370 868 l 1,60,61
 1381 865 1381 865 1381 861 c 0,62,63
 1381 852 1381 852 1368.5 846 c 128,-1,64
 1356 840 1356 840 1337 834.5 c 128,-1,65
 1318 829 1318 829 1295.5 822.5 c 128,-1,66
 1273 816 1273 816 1252 808 c 128,-1,67
 1231 800 1231 800 1215.5 788.5 c 128,-1,68
 1200 777 1200 777 1195 760 c 2,69,-1
 966 -3 l 1,70,71
 961 -16 961 -16 939 -16 c 0,72,73
 915 -16 915 -16 910 -3 c 2,74,-1
 679 642 l 1,0,-1
EndSplineSet
Validated: 16385
Substitution2: "'smcp' Lowercase to Small Capitals in Latin lookup 3 subtable" w.sc
EndChar

StartChar: y
Encoding: 121 121 88
Width: 957
Flags: W
HStem: -401 142<181.5 322.323> 817.5 50.5<345.934 493.781 834.565 971.482> 837 31<580.353 585>
LayerCount: 2
Fore
SplineSet
450 13 m 1,0,-1
 117 776 l 2,1,2
 107 798 107 798 91 806.5 c 128,-1,3
 75 815 75 815 56 819 c 128,-1,4
 37 823 37 823 17 827 c 128,-1,5
 -3 831 -3 831 -20 845 c 1,6,-1
 -16 868 l 1,7,-1
 482 868 l 1,8,9
 484 863 484 863 489 853 c 128,-1,10
 494 843 494 843 494 842 c 0,11,12
 494 833 494 833 480 827 c 128,-1,13
 466 821 466 821 446 817.5 c 128,-1,14
 426 814 426 814 405 811 c 128,-1,15
 384 808 384 808 371 805 c 0,16,17
 340 798 340 798 340 777 c 0,18,19
 340 773 340 773 341 769 c 128,-1,20
 342 765 342 765 344 760 c 2,21,-1
 545 250 l 1,22,-1
 705 700 l 2,23,24
 717 731 717 731 717 751 c 0,25,26
 717 769 717 769 708 780.5 c 128,-1,27
 699 792 699 792 682 801 c 128,-1,28
 665 810 665 810 640.5 818 c 128,-1,29
 616 826 616 826 585 837 c 0,30,31
 580 839 580 839 580 849 c 0,32,33
 580 855 580 855 585 868 c 1,34,-1
 969 868 l 1,35,36
 972 863 972 863 972.5 858.5 c 128,-1,37
 973 854 973 854 973 849 c 0,38,39
 973 841 973 841 964 834.5 c 128,-1,40
 955 828 955 828 941.5 823 c 128,-1,41
 928 818 928 818 912 815 c 128,-1,42
 896 812 896 812 882 812 c 0,43,44
 865 812 865 812 853.5 807.5 c 128,-1,45
 842 803 842 803 835 793 c 128,-1,46
 828 783 828 783 823.5 766.5 c 128,-1,47
 819 750 819 750 815 727 c 1,48,-1
 440 -161 l 2,49,50
 422 -203 422 -203 402 -246 c 128,-1,51
 382 -289 382 -289 354.5 -323.5 c 128,-1,52
 327 -358 327 -358 288.5 -379.5 c 128,-1,53
 250 -401 250 -401 196 -401 c 0,54,55
 167 -401 167 -401 142 -393.5 c 128,-1,56
 117 -386 117 -386 97.5 -371 c 128,-1,57
 78 -356 78 -356 67 -334.5 c 128,-1,58
 56 -313 56 -313 56 -285 c 0,59,60
 56 -260 56 -260 65 -241 c 128,-1,61
 74 -222 74 -222 90 -208.5 c 128,-1,62
 106 -195 106 -195 126 -188 c 128,-1,63
 146 -181 146 -181 169 -181 c 0,64,65
 199 -181 199 -181 215.5 -193 c 128,-1,66
 232 -205 232 -205 244 -220 c 128,-1,67
 256 -235 256 -235 267.5 -247 c 128,-1,68
 279 -259 279 -259 298 -259 c 0,69,70
 322 -259 322 -259 338 -244.5 c 128,-1,71
 354 -230 354 -230 365.5 -209.5 c 128,-1,72
 377 -189 377 -189 384.5 -166 c 128,-1,73
 392 -143 392 -143 399 -125 c 2,74,-1
 450 13 l 1,0,-1
EndSplineSet
Validated: 16385
Substitution2: "'smcp' Lowercase to Small Capitals in Latin lookup 3 subtable" y.sc
EndChar

StartChar: ae
Encoding: 230 230 93
Width: 1503
Flags: W
HStem: -17 148<883.862 1371> -17 112<923.638 1286.72> -17 78<211 545.801> 472 60<956.299 1248.72> 846 56<321.141 543.25 979.629 1175.61>
VStem: 67 216<77.3406 290.845> 102 175<652.45 807.574> 615 214<228.912 427 445.125 472 511 686.252> 1258 179<523.5 720.723>
LayerCount: 2
Fore
SplineSet
829 472 m 1,0,1
 829 385 829 385 834.5 315 c 128,-1,2
 840 245 840 245 868.5 196.5 c 128,-1,3
 897 148 897 148 957 121.5 c 128,-1,4
 1017 95 1017 95 1125 95 c 0,5,6
 1172 95 1172 95 1204.5 98 c 128,-1,7
 1237 101 1237 101 1263 106 c 128,-1,8
 1289 111 1289 111 1314 117.5 c 128,-1,9
 1339 124 1339 124 1371 131 c 1,10,11
 1382 131 1382 131 1382 117 c 2,12,-1
 1382 107 l 2,13,14
 1382 95 1382 95 1377 90 c 0,15,16
 1320 37 1320 37 1246 10 c 128,-1,17
 1172 -17 1172 -17 1080 -17 c 0,18,19
 1020 -17 1020 -17 970.5 -7 c 128,-1,20
 921 3 921 3 880 20 c 128,-1,21
 839 37 839 37 804.5 60 c 128,-1,22
 770 83 770 83 740 109 c 1,23,24
 700 80 700 80 645.5 57 c 128,-1,25
 591 34 591 34 531 17.5 c 128,-1,26
 471 1 471 1 410 -8 c 128,-1,27
 349 -17 349 -17 296 -17 c 0,28,29
 252 -17 252 -17 211 -8 c 128,-1,30
 170 1 170 1 138 20.5 c 128,-1,31
 106 40 106 40 86.5 71.5 c 128,-1,32
 67 103 67 103 67 148 c 0,33,34
 67 216 67 216 91 260 c 128,-1,35
 115 304 115 304 156.5 331.5 c 128,-1,36
 198 359 198 359 252.5 375.5 c 128,-1,37
 307 392 307 392 367.5 403.5 c 128,-1,38
 428 415 428 415 492 427 c 128,-1,39
 556 439 556 439 615 459 c 1,40,-1
 615 587 l 2,41,42
 615 637 615 637 610.5 683.5 c 128,-1,43
 606 730 606 730 588.5 766 c 128,-1,44
 571 802 571 802 536 824 c 128,-1,45
 501 846 501 846 439 846 c 0,46,47
 420 846 420 846 392 841 c 128,-1,48
 364 836 364 836 338.5 826 c 128,-1,49
 313 816 313 816 295 802 c 128,-1,50
 277 788 277 788 277 770 c 0,51,52
 277 753 277 753 287 732.5 c 128,-1,53
 297 712 297 712 297 687 c 0,54,55
 297 670 297 670 289.5 654 c 128,-1,56
 282 638 282 638 269.5 625.5 c 128,-1,57
 257 613 257 613 240.5 605 c 128,-1,58
 224 597 224 597 206 597 c 0,59,60
 186 597 186 597 167 605.5 c 128,-1,61
 148 614 148 614 133.5 629 c 128,-1,62
 119 644 119 644 110.5 663 c 128,-1,63
 102 682 102 682 102 703 c 0,64,65
 102 745 102 745 121.5 776 c 128,-1,66
 141 807 141 807 172 829 c 128,-1,67
 203 851 203 851 242.5 865.5 c 128,-1,68
 282 880 282 880 322 888 c 128,-1,69
 362 896 362 896 398.5 899 c 128,-1,70
 435 902 435 902 462 902 c 0,71,72
 551 902 551 902 609 878.5 c 128,-1,73
 667 855 667 855 701 827 c 0,74,75
 741 794 741 794 761 752 c 1,76,77
 791 794 791 794 839 827 c 0,78,79
 879 855 879 855 942 878.5 c 128,-1,80
 1005 902 1005 902 1094 902 c 0,81,82
 1173 902 1173 902 1237 872 c 128,-1,83
 1301 842 1301 842 1345 791 c 128,-1,84
 1389 740 1389 740 1413 673 c 128,-1,85
 1437 606 1437 606 1437 531 c 0,86,87
 1437 516 1437 516 1436 501.5 c 128,-1,88
 1435 487 1435 487 1433 472 c 1,89,-1
 829 472 l 1,0,1
1258 568 m 0,90,91
 1258 631 1258 631 1248.5 682.5 c 128,-1,92
 1239 734 1239 734 1218 770.5 c 128,-1,93
 1197 807 1197 807 1163 826.5 c 128,-1,94
 1129 846 1129 846 1079 846 c 0,95,96
 1021 846 1021 846 977 816.5 c 128,-1,97
 933 787 933 787 902.5 740 c 128,-1,98
 872 693 872 693 854 632.5 c 128,-1,99
 836 572 836 572 830 511 c 1,100,-1
 1228 532 l 2,101,102
 1240 532 1240 532 1249 542 c 128,-1,103
 1258 552 1258 552 1258 568 c 0,90,91
283 160 m 0,104,105
 283 132 283 132 292.5 113 c 128,-1,106
 302 94 302 94 319 82.5 c 128,-1,107
 336 71 336 71 358.5 66 c 128,-1,108
 381 61 381 61 408 61 c 0,109,110
 449 61 449 61 495 70.5 c 128,-1,111
 541 80 541 80 584 92.5 c 128,-1,112
 627 105 627 105 662 118 c 128,-1,113
 697 131 697 131 716 138 c 1,114,115
 689 169 689 169 671 205 c 128,-1,116
 653 241 653 241 642.5 279.5 c 128,-1,117
 632 318 632 318 628 355.5 c 128,-1,118
 624 393 624 393 623 427 c 1,119,-1
 615 426 l 1,120,121
 541 403 541 403 487.5 385.5 c 128,-1,122
 434 368 434 368 397 352 c 128,-1,123
 360 336 360 336 338 319.5 c 128,-1,124
 316 303 316 303 303.5 281 c 128,-1,125
 291 259 291 259 287 230 c 128,-1,126
 283 201 283 201 283 160 c 0,104,105
EndSplineSet
Validated: 16385
Substitution2: "'smcp' Lowercase to Small Capitals in Latin lookup 3 subtable" ae.sc
EndChar

StartChar: g
Encoding: 103 103 94
Width: 965
Flags: W
HStem: -298 56<290.789 617.219> 334 49<367.2 532.042> 811 92<768.188 882.5> 846 56<350.447 523.42>
VStem: 109 174<474.125 771.206> 109 106<-197.248 -37.6255 205.263 322.659> 594 167<469.127 789.957> 734 141<-168.684 -21.3113>
LayerCount: 2
Fore
SplineSet
314 43 m 1,0,1
 288 26 288 26 269 4.5 c 128,-1,2
 250 -17 250 -17 238 -39 c 128,-1,3
 226 -61 226 -61 220.5 -81.5 c 128,-1,4
 215 -102 215 -102 215 -117 c 0,5,6
 215 -150 215 -150 234 -173.5 c 128,-1,7
 253 -197 253 -197 285 -212 c 128,-1,8
 317 -227 317 -227 358.5 -234.5 c 128,-1,9
 400 -242 400 -242 445 -242 c 0,10,11
 497 -242 497 -242 548.5 -232.5 c 128,-1,12
 600 -223 600 -223 641.5 -205 c 128,-1,13
 683 -187 683 -187 708.5 -160.5 c 128,-1,14
 734 -134 734 -134 734 -101 c 0,15,16
 734 -78 734 -78 720.5 -55.5 c 128,-1,17
 707 -33 707 -33 679 -14 c 128,-1,18
 651 5 651 5 608 17.5 c 128,-1,19
 565 30 565 30 507 33 c 2,20,-1
 314 43 l 1,0,1
715 788 m 1,21,22
 736 760 736 760 748.5 722.5 c 128,-1,23
 761 685 761 685 761 637 c 0,24,25
 761 568 761 568 738 512 c 128,-1,26
 715 456 715 456 673 416.5 c 128,-1,27
 631 377 631 377 572 355.5 c 128,-1,28
 513 334 513 334 440 334 c 0,29,30
 373 334 373 334 315 354 c 1,31,32
 309 351 309 351 295 348.5 c 128,-1,33
 281 346 281 346 266 337.5 c 128,-1,34
 251 329 251 329 240 312 c 128,-1,35
 229 295 229 295 229 264 c 0,36,37
 229 242 229 242 257 231.5 c 128,-1,38
 285 221 285 221 330 215.5 c 128,-1,39
 375 210 375 210 433 207.5 c 128,-1,40
 491 205 491 205 552 198 c 128,-1,41
 613 191 613 191 671 176.5 c 128,-1,42
 729 162 729 162 774 134.5 c 128,-1,43
 819 107 819 107 847 62.5 c 128,-1,44
 875 18 875 18 875 -50 c 0,45,46
 875 -93 875 -93 857 -128.5 c 128,-1,47
 839 -164 839 -164 807.5 -191.5 c 128,-1,48
 776 -219 776 -219 733.5 -239 c 128,-1,49
 691 -259 691 -259 642 -272 c 128,-1,50
 593 -285 593 -285 539.5 -291.5 c 128,-1,51
 486 -298 486 -298 433 -298 c 0,52,53
 369 -298 369 -298 310.5 -289 c 128,-1,54
 252 -280 252 -280 207 -262 c 128,-1,55
 162 -244 162 -244 135.5 -218 c 128,-1,56
 109 -192 109 -192 109 -158 c 0,57,58
 109 -139 109 -139 116.5 -113.5 c 128,-1,59
 124 -88 124 -88 139 -61 c 128,-1,60
 154 -34 154 -34 178 -7 c 128,-1,61
 202 20 202 20 235 43 c 1,62,63
 210 52 210 52 187.5 68 c 128,-1,64
 165 84 165 84 148 105.5 c 128,-1,65
 131 127 131 127 121 153.5 c 128,-1,66
 111 180 111 180 111 210 c 0,67,68
 111 253 111 253 126.5 283.5 c 128,-1,69
 142 314 142 314 166 334 c 128,-1,70
 190 354 190 354 218 363.5 c 128,-1,71
 246 373 246 373 270 373 c 1,72,73
 237 391 237 391 207.5 415.5 c 128,-1,74
 178 440 178 440 156 471 c 128,-1,75
 134 502 134 502 121.5 538.5 c 128,-1,76
 109 575 109 575 109 617 c 0,77,78
 109 682 109 682 133.5 735 c 128,-1,79
 158 788 158 788 202.5 825 c 128,-1,80
 247 862 247 862 307.5 882 c 128,-1,81
 368 902 368 902 440 902 c 0,82,83
 515 902 515 902 578.5 880.5 c 128,-1,84
 642 859 642 859 687 818 c 1,85,-1
 791 876 l 2,86,87
 802 882 802 882 824.5 892.5 c 128,-1,88
 847 903 847 903 873 903 c 0,89,90
 892 903 892 903 907.5 895.5 c 128,-1,91
 923 888 923 888 934 876 c 128,-1,92
 945 864 945 864 951.5 848.5 c 128,-1,93
 958 833 958 833 958 817 c 0,94,95
 958 784 958 784 939 757.5 c 128,-1,96
 920 731 920 731 882 731 c 0,97,98
 848 731 848 731 834 743.5 c 128,-1,99
 820 756 820 756 813 771 c 128,-1,100
 806 786 806 786 800 798.5 c 128,-1,101
 794 811 794 811 777 811 c 0,102,103
 758 811 758 811 715 788 c 1,21,22
283 637 m 0,104,105
 283 585 283 585 291.5 538.5 c 128,-1,106
 300 492 300 492 320 457.5 c 128,-1,107
 340 423 340 423 373 403 c 128,-1,108
 406 383 406 383 454 383 c 0,109,110
 494 383 494 383 521 399.5 c 128,-1,111
 548 416 548 416 564.5 445.5 c 128,-1,112
 581 475 581 475 587.5 514.5 c 128,-1,113
 594 554 594 554 594 600 c 0,114,115
 594 654 594 654 586.5 699 c 128,-1,116
 579 744 579 744 560.5 776.5 c 128,-1,117
 542 809 542 809 509.5 827.5 c 128,-1,118
 477 846 477 846 428 846 c 0,119,120
 395 846 395 846 368 830.5 c 128,-1,121
 341 815 341 815 322.5 787 c 128,-1,122
 304 759 304 759 293.5 720.5 c 128,-1,123
 283 682 283 682 283 637 c 0,104,105
EndSplineSet
Validated: 16385
Substitution2: "'smcp' Lowercase to Small Capitals in Latin lookup 3 subtable" g.sc
EndChar

StartChar: j
Encoding: 106 106 95
Width: 550
Flags: W
HStem: -296 72<57.6207 147.363> 863 20G<288.941 396> 983 245<177.406 367.312>
VStem: -98 154<-223.746 -137.625> 150 245<1009.96 1200.5> 190 206<-115.742 755.919>
LayerCount: 2
Fore
SplineSet
396 119 m 2,0,1
 396 0 396 0 366.5 -80 c 128,-1,2
 337 -160 337 -160 291 -208 c 128,-1,3
 245 -256 245 -256 189 -276 c 128,-1,4
 133 -296 133 -296 80 -296 c 0,5,6
 44 -296 44 -296 11.5 -288 c 128,-1,7
 -21 -280 -21 -280 -45.5 -266.5 c 128,-1,8
 -70 -253 -70 -253 -84 -235.5 c 128,-1,9
 -98 -218 -98 -218 -98 -198 c 0,10,11
 -98 -150 -98 -150 -76.5 -133.5 c 128,-1,12
 -55 -117 -55 -117 -23 -117 c 0,13,14
 18 -117 18 -117 37 -137 c 128,-1,15
 56 -157 56 -157 56 -178 c 0,16,17
 56 -194 56 -194 69 -209 c 128,-1,18
 82 -224 82 -224 100 -224 c 0,19,20
 115 -224 115 -224 130.5 -210.5 c 128,-1,21
 146 -197 146 -197 159.5 -162.5 c 128,-1,22
 173 -128 173 -128 181.5 -68.5 c 128,-1,23
 190 -9 190 -9 190 82 c 2,24,-1
 190 705 l 2,25,26
 190 726 190 726 178 737.5 c 128,-1,27
 166 749 166 749 148 755 c 128,-1,28
 130 761 130 761 109 764 c 128,-1,29
 88 767 88 767 70 770.5 c 128,-1,30
 52 774 52 774 40 779.5 c 128,-1,31
 28 785 28 785 28 798 c 0,32,33
 28 800 28 800 32 815 c 1,34,-1
 396 883 l 1,35,-1
 396 119 l 2,0,1
150 1104 m 256,36,37
 150 1130 150 1130 159.5 1152.5 c 128,-1,38
 169 1175 169 1175 185 1192 c 128,-1,39
 201 1209 201 1209 223 1218.5 c 128,-1,40
 245 1228 245 1228 271 1228 c 256,41,42
 297 1228 297 1228 320 1218.5 c 128,-1,43
 343 1209 343 1209 359.5 1192 c 128,-1,44
 376 1175 376 1175 385.5 1152.5 c 128,-1,45
 395 1130 395 1130 395 1104 c 256,46,47
 395 1078 395 1078 385.5 1056 c 128,-1,48
 376 1034 376 1034 359.5 1018 c 128,-1,49
 343 1002 343 1002 320 992.5 c 128,-1,50
 297 983 297 983 271 983 c 256,51,52
 245 983 245 983 223 992.5 c 128,-1,53
 201 1002 201 1002 185 1018 c 128,-1,54
 169 1034 169 1034 159.5 1056 c 128,-1,55
 150 1078 150 1078 150 1104 c 256,36,37
EndSplineSet
Validated: 16385
Substitution2: "'smcp' Lowercase to Small Capitals in Latin lookup 3 subtable" j.sc
EndChar

StartChar: f
Encoding: 102 102 96
Width: 660
Flags: W
HStem: 0 44.5<45.6602 178.23> 809 59<62 205 411 622> 1256 41<463.272 588.164>
VStem: 205 206<60.3804 809 868 1162.42> 587 187<1097.39 1247.52>
LayerCount: 2
Fore
SplineSet
62 868 m 1,0,-1
 205 868 l 1,1,-1
 205 965 l 2,2,3
 205 1062 205 1062 232 1126.5 c 128,-1,4
 259 1191 259 1191 302.5 1228.5 c 128,-1,5
 346 1266 346 1266 402 1281.5 c 128,-1,6
 458 1297 458 1297 516 1297 c 0,7,8
 565 1297 565 1297 611.5 1290 c 128,-1,9
 658 1283 658 1283 694 1267.5 c 128,-1,10
 730 1252 730 1252 752 1226.5 c 128,-1,11
 774 1201 774 1201 774 1164 c 0,12,13
 774 1125 774 1125 750 1096.5 c 128,-1,14
 726 1068 726 1068 674 1068 c 0,15,16
 630 1068 630 1068 608.5 1092 c 128,-1,17
 587 1116 587 1116 587 1150 c 0,18,19
 587 1170 587 1170 594 1186.5 c 128,-1,20
 601 1203 601 1203 601 1217 c 0,21,22
 601 1240 601 1240 581.5 1248 c 128,-1,23
 562 1256 562 1256 527 1256 c 0,24,25
 500 1256 500 1256 478.5 1246.5 c 128,-1,26
 457 1237 457 1237 442 1205 c 128,-1,27
 427 1173 427 1173 419 1111.5 c 128,-1,28
 411 1050 411 1050 411 947 c 2,29,-1
 411 868 l 1,30,-1
 622 868 l 1,31,-1
 622 809 l 1,32,-1
 411 809 l 1,33,-1
 411 110 l 2,34,35
 411 89 411 89 424 77.5 c 128,-1,36
 437 66 437 66 457 60 c 128,-1,37
 477 54 477 54 500 51 c 128,-1,38
 523 48 523 48 543 44.5 c 128,-1,39
 563 41 563 41 576 35 c 128,-1,40
 589 29 589 29 589 17 c 0,41,42
 589 15 589 15 585 0 c 1,43,-1
 49 0 l 1,44,45
 45 15 45 15 45 17 c 0,46,47
 45 29 45 29 57 35 c 128,-1,48
 69 41 69 41 86.5 44.5 c 128,-1,49
 104 48 104 48 125 51 c 128,-1,50
 146 54 146 54 163.5 60 c 128,-1,51
 181 66 181 66 193 77.5 c 128,-1,52
 205 89 205 89 205 110 c 2,53,-1
 205 809 l 1,54,-1
 62 809 l 1,55,-1
 62 868 l 1,0,-1
EndSplineSet
Validated: 16385
Substitution2: "'smcp' Lowercase to Small Capitals in Latin lookup 3 subtable" f.sc
EndChar

StartChar: Z
Encoding: 90 90 97
Width: 1151
Flags: W
HStem: -22 21G<1003 1020.75> 0 56<372.221 890.103> 1109 77<242.906 817.996> 1178 20G<160.75 179>
LayerCount: 2
Fore
SplineSet
796 1073 m 2,0,1
 801 1081 801 1081 809.5 1091.5 c 128,-1,2
 818 1102 818 1102 818 1110 c 256,3,4
 818 1118 818 1118 801 1118 c 2,5,-1
 351 1109 l 2,6,7
 318 1108 318 1108 295 1102.5 c 128,-1,8
 272 1097 272 1097 254 1082 c 128,-1,9
 236 1067 236 1067 222 1039.5 c 128,-1,10
 208 1012 208 1012 193 969 c 0,11,12
 184 944 184 944 174.5 919.5 c 128,-1,13
 165 895 165 895 154.5 875 c 128,-1,14
 144 855 144 855 133.5 842.5 c 128,-1,15
 123 830 123 830 114 830 c 0,16,17
 112 830 112 830 107.5 831 c 128,-1,18
 103 832 103 832 91 835 c 1,19,-1
 154 1196 l 1,20,21
 159 1198 159 1198 162.5 1198 c 128,-1,22
 166 1198 166 1198 169 1198 c 2,23,-1
 176 1198 l 2,24,25
 182 1198 182 1198 199 1196 c 128,-1,26
 216 1194 216 1194 237 1191.5 c 128,-1,27
 258 1189 258 1189 279 1187.5 c 128,-1,28
 300 1186 300 1186 315 1186 c 2,29,-1
 1039 1176 l 2,30,31
 1058 1176 1058 1176 1064 1166.5 c 128,-1,32
 1070 1157 1070 1157 1070 1146 c 0,33,34
 1070 1138 1070 1138 1068 1130 c 0,35,36
 1067 1126 1067 1126 1066 1123 c 2,37,-1
 380 136 l 2,38,39
 372 125 372 125 368.5 113.5 c 128,-1,40
 365 102 365 102 365 91 c 0,41,42
 365 76 365 76 372 65.5 c 128,-1,43
 379 55 379 55 395 56 c 2,44,-1
 813 67 l 2,45,46
 846 68 846 68 869.5 75 c 128,-1,47
 893 82 893 82 910 99 c 128,-1,48
 927 116 927 116 938.5 144.5 c 128,-1,49
 950 173 950 173 959 217 c 0,50,51
 964 242 964 242 971 266.5 c 128,-1,52
 978 291 978 291 985.5 311 c 128,-1,53
 993 331 993 331 1002 343.5 c 128,-1,54
 1011 356 1011 356 1021 356 c 0,55,56
 1023 356 1023 356 1027.5 353.5 c 128,-1,57
 1032 351 1032 351 1045 351 c 1,58,-1
 1028 -20 l 1,59,60
 1023 -22 1023 -22 1018.5 -22 c 128,-1,61
 1014 -22 1014 -22 1006 -22 c 0,62,63
 1000 -22 1000 -22 982 -18.5 c 128,-1,64
 964 -15 964 -15 941.5 -11 c 128,-1,65
 919 -7 919 -7 896.5 -3.5 c 128,-1,66
 874 0 874 0 859 0 c 2,67,-1
 74 0 l 1,68,-1
 65 18 l 1,69,-1
 796 1073 l 2,0,1
EndSplineSet
Validated: 16385
EndChar

StartChar: bracketleft
Encoding: 91 91 98
Width: 662
Flags: W
HStem: -214 158<317.71 746.601> -199 137<316 668.527> 1380 149<329 809.089>
VStem: 178.5 132.5<-62 1379.81>
LayerCount: 2
Fore
SplineSet
243 -199 m 0,0,1
 232 -199 232 -199 220 -195 c 128,-1,2
 208 -191 208 -191 198 -183 c 128,-1,3
 188 -175 188 -175 181.5 -162 c 128,-1,4
 175 -149 175 -149 175 -132 c 0,5,6
 175 -126 175 -126 176 -119 c 128,-1,7
 177 -112 177 -112 179 -104 c 1,8,9
 179 156 179 156 178.5 357 c 128,-1,10
 178 558 178 558 178 711 c 128,-1,11
 178 864 178 864 177.5 973.5 c 128,-1,12
 177 1083 177 1083 176 1159.5 c 128,-1,13
 175 1236 175 1236 174.5 1285 c 128,-1,14
 174 1334 174 1334 174 1365 c 128,-1,15
 174 1396 174 1396 173.5 1414.5 c 128,-1,16
 173 1433 173 1433 173 1449 c 0,17,18
 173 1454 173 1454 177.5 1466.5 c 128,-1,19
 182 1479 182 1479 192 1491.5 c 128,-1,20
 202 1504 202 1504 218.5 1514 c 128,-1,21
 235 1524 235 1524 260 1524 c 0,22,23
 324 1524 324 1524 382.5 1525 c 128,-1,24
 441 1526 441 1526 496.5 1527 c 128,-1,25
 552 1528 552 1528 606.5 1528.5 c 128,-1,26
 661 1529 661 1529 717 1529 c 0,27,28
 745 1529 745 1529 764 1522 c 128,-1,29
 783 1515 783 1515 794.5 1504.5 c 128,-1,30
 806 1494 806 1494 811 1481 c 128,-1,31
 816 1468 816 1468 816 1455 c 0,32,33
 816 1443 816 1443 811 1429.5 c 128,-1,34
 806 1416 806 1416 796 1405 c 128,-1,35
 786 1394 786 1394 771 1386.5 c 128,-1,36
 756 1379 756 1379 735 1379 c 0,37,38
 732 1379 732 1379 728.5 1379 c 128,-1,39
 725 1379 725 1379 721 1380 c 1,40,-1
 329 1380 l 1,41,42
 329 1374 329 1374 328.5 1365 c 128,-1,43
 328 1356 328 1356 327 1348 c 0,44,45
 326 1338 326 1338 326 1329 c 0,46,47
 322 1222 322 1222 318 1094 c 0,48,49
 315 985 315 985 313 840.5 c 128,-1,50
 311 696 311 696 311 532 c 0,51,52
 311 406 311 406 312.5 259 c 128,-1,53
 314 112 314 112 316 -62 c 1,54,-1
 432 -62 l 2,55,56
 438 -62 438 -62 445.5 -62.5 c 128,-1,57
 453 -63 453 -63 461 -63 c 0,58,59
 485 -63 485 -63 514.5 -62 c 128,-1,60
 544 -61 544 -61 574 -59.5 c 128,-1,61
 604 -58 604 -58 632.5 -57 c 128,-1,62
 661 -56 661 -56 682 -56 c 0,63,64
 687 -56 687 -56 699.5 -60.5 c 128,-1,65
 712 -65 712 -65 724.5 -75 c 128,-1,66
 737 -85 737 -85 747 -101.5 c 128,-1,67
 757 -118 757 -118 757 -143 c 0,68,69
 757 -169 757 -169 747.5 -183.5 c 128,-1,70
 738 -198 738 -198 724.5 -205 c 128,-1,71
 711 -212 711 -212 696 -213 c 128,-1,72
 681 -214 681 -214 669 -214 c 0,73,74
 654 -214 654 -214 623.5 -211.5 c 128,-1,75
 593 -209 593 -209 542 -206.5 c 128,-1,76
 491 -204 491 -204 417.5 -201.5 c 128,-1,77
 344 -199 344 -199 243 -199 c 0,0,1
EndSplineSet
Validated: 16385
EndChar

StartChar: backslash
Encoding: 92 92 99
Width: 849
Flags: W
VStem: 40 157<1181.6 1356.84>
LayerCount: 2
Fore
SplineSet
788 -122 m 2,0,1
 797 -145 797 -145 797 -165 c 0,2,3
 797 -197 797 -197 781 -218 c 128,-1,4
 765 -239 765 -239 745 -239 c 2,5,-1
 740 -239 l 2,6,7
 728 -239 728 -239 714 -237.5 c 128,-1,8
 700 -236 700 -236 687 -229.5 c 128,-1,9
 674 -223 674 -223 662 -208.5 c 128,-1,10
 650 -194 650 -194 641 -168 c 0,11,12
 550 97 550 97 469.5 304.5 c 128,-1,13
 389 512 389 512 322.5 669 c 128,-1,14
 256 826 256 826 203.5 937 c 128,-1,15
 151 1048 151 1048 115 1120.5 c 128,-1,16
 79 1193 79 1193 60 1231.5 c 128,-1,17
 41 1270 41 1270 41 1283 c 0,18,19
 41 1288 41 1288 40.5 1294 c 128,-1,20
 40 1300 40 1300 40 1306 c 0,21,22
 40 1316 40 1316 42 1326.5 c 128,-1,23
 44 1337 44 1337 51 1344.5 c 128,-1,24
 58 1352 58 1352 71 1357 c 128,-1,25
 84 1362 84 1362 106 1362 c 0,26,27
 136 1362 136 1362 153.5 1356.5 c 128,-1,28
 171 1351 171 1351 181 1343.5 c 128,-1,29
 191 1336 191 1336 194 1328.5 c 128,-1,30
 197 1321 197 1321 197 1316 c 0,31,32
 197 1301 197 1301 206.5 1269.5 c 128,-1,33
 216 1238 216 1238 229 1202.5 c 128,-1,34
 242 1167 242 1167 256 1133.5 c 128,-1,35
 270 1100 270 1100 278 1079 c 2,36,-1
 788 -122 l 2,0,1
EndSplineSet
Validated: 16385
EndChar

StartChar: bracketright
Encoding: 93 93 100
Width: 664
Flags: W
HStem: -199 137<0.472534 353> 1380 149<-140.089 340>
VStem: 343 151.5<876.07 1380> 356.5 132<-62 1379.77>
LayerCount: 2
Fore
SplineSet
426 -199 m 0,0,1
 325 -199 325 -199 251.5 -201.5 c 128,-1,2
 178 -204 178 -204 127 -206.5 c 128,-1,3
 76 -209 76 -209 45.5 -211.5 c 128,-1,4
 15 -214 15 -214 0 -214 c 0,5,6
 -12 -214 -12 -214 -27.5 -213 c 128,-1,7
 -43 -212 -43 -212 -56.5 -205 c 128,-1,8
 -70 -198 -70 -198 -79 -183.5 c 128,-1,9
 -88 -169 -88 -169 -88 -143 c 0,10,11
 -88 -118 -88 -118 -78 -101.5 c 128,-1,12
 -68 -85 -68 -85 -55.5 -75 c 128,-1,13
 -43 -65 -43 -65 -30.5 -60.5 c 128,-1,14
 -18 -56 -18 -56 -13 -56 c 0,15,16
 8 -56 8 -56 36 -57 c 128,-1,17
 64 -58 64 -58 94 -59.5 c 128,-1,18
 124 -61 124 -61 154 -62 c 128,-1,19
 184 -63 184 -63 208 -63 c 0,20,21
 216 -63 216 -63 223.5 -62.5 c 128,-1,22
 231 -62 231 -62 237 -62 c 2,23,-1
 353 -62 l 1,24,25
 355 112 355 112 356.5 259 c 128,-1,26
 358 406 358 406 358 532 c 0,27,28
 358 696 358 696 355.5 840.5 c 128,-1,29
 353 985 353 985 350 1094 c 0,30,31
 346 1222 346 1222 343 1329 c 0,32,33
 342 1338 342 1338 341 1348 c 0,34,35
 340 1356 340 1356 340 1365 c 128,-1,36
 340 1374 340 1374 340 1380 c 1,37,-1
 -52 1380 l 1,38,39
 -56 1379 -56 1379 -59.5 1379 c 128,-1,40
 -63 1379 -63 1379 -66 1379 c 0,41,42
 -87 1379 -87 1379 -102 1386.5 c 128,-1,43
 -117 1394 -117 1394 -127 1405 c 128,-1,44
 -137 1416 -137 1416 -142 1429.5 c 128,-1,45
 -147 1443 -147 1443 -147 1455 c 0,46,47
 -147 1468 -147 1468 -142 1481 c 128,-1,48
 -137 1494 -137 1494 -125.5 1504.5 c 128,-1,49
 -114 1515 -114 1515 -95 1522 c 128,-1,50
 -76 1529 -76 1529 -48 1529 c 0,51,52
 8 1529 8 1529 62.5 1528.5 c 128,-1,53
 117 1528 117 1528 172.5 1527 c 128,-1,54
 228 1526 228 1526 286 1525 c 128,-1,55
 344 1524 344 1524 409 1524 c 0,56,57
 434 1524 434 1524 450.5 1514 c 128,-1,58
 467 1504 467 1504 477 1491.5 c 128,-1,59
 487 1479 487 1479 491.5 1466.5 c 128,-1,60
 496 1454 496 1454 496 1449 c 0,61,62
 496 1379 496 1379 495.5 1335.5 c 128,-1,63
 495 1292 495 1292 494.5 1263 c 128,-1,64
 494 1234 494 1234 493.5 1214 c 128,-1,65
 493 1194 493 1194 492 1170.5 c 128,-1,66
 491 1147 491 1147 490.5 1114.5 c 128,-1,67
 490 1082 490 1082 489.5 1028.5 c 128,-1,68
 489 975 489 975 488.5 894.5 c 128,-1,69
 488 814 488 814 488 695 c 0,70,71
 488 627 488 627 488 544.5 c 128,-1,72
 488 462 488 462 488 363.5 c 128,-1,73
 488 265 488 265 488.5 148.5 c 128,-1,74
 489 32 489 32 490 -104 c 1,75,76
 492 -112 492 -112 493 -119 c 128,-1,77
 494 -126 494 -126 494 -132 c 0,78,79
 494 -149 494 -149 487.5 -162 c 128,-1,80
 481 -175 481 -175 471 -183 c 128,-1,81
 461 -191 461 -191 449 -195 c 128,-1,82
 437 -199 437 -199 426 -199 c 0,0,1
EndSplineSet
Validated: 16385
EndChar

StartChar: asciicircum
Encoding: 94 94 101
Width: 1500
Flags: W
HStem: 778 608
VStem: 426 640<799 827>
LayerCount: 2
Fore
SplineSet
440 863 m 0,0,1
 503 992 503 992 557.5 1105 c 128,-1,2
 612 1218 612 1218 661 1331 c 1,3,4
 672 1353 672 1353 695.5 1369.5 c 128,-1,5
 719 1386 719 1386 746 1386 c 0,6,7
 774 1385 774 1385 797 1369.5 c 128,-1,8
 820 1354 820 1354 831 1331 c 0,9,10
 839 1314 839 1314 846 1298.5 c 128,-1,11
 853 1283 853 1283 862.5 1262 c 128,-1,12
 872 1241 872 1241 886 1210.5 c 128,-1,13
 900 1180 900 1180 922 1133.5 c 128,-1,14
 944 1087 944 1087 975.5 1021 c 128,-1,15
 1007 955 1007 955 1052 863 c 0,16,17
 1058 850 1058 850 1062 838.5 c 128,-1,18
 1066 827 1066 827 1066 816 c 0,19,20
 1066 799 1066 799 1054.5 788.5 c 128,-1,21
 1043 778 1043 778 1015 778 c 0,22,23
 1009 778 1009 778 997 788 c 128,-1,24
 985 798 985 798 971.5 812.5 c 128,-1,25
 958 827 958 827 946 842 c 128,-1,26
 934 857 934 857 928 866 c 0,27,28
 913 887 913 887 892 917 c 128,-1,29
 871 947 871 947 846.5 980.5 c 128,-1,30
 822 1014 822 1014 796 1050 c 128,-1,31
 770 1086 770 1086 746 1119 c 1,32,33
 721 1086 721 1086 695 1050 c 128,-1,34
 669 1014 669 1014 644.5 980.5 c 128,-1,35
 620 947 620 947 599 917 c 128,-1,36
 578 887 578 887 564 866 c 0,37,38
 558 857 558 857 546 842 c 128,-1,39
 534 827 534 827 520.5 812.5 c 128,-1,40
 507 798 507 798 495 788 c 128,-1,41
 483 778 483 778 477 778 c 0,42,43
 449 778 449 778 437.5 788.5 c 128,-1,44
 426 799 426 799 426 816 c 0,45,46
 426 827 426 827 430 838.5 c 128,-1,47
 434 850 434 850 440 863 c 0,0,1
EndSplineSet
Validated: 16385
EndChar

StartChar: underscore
Encoding: 95 95 102
Width: 817
Flags: W
HStem: -1 92<124.674 695.326>
VStem: 119 582<21.7982 67.2333>
LayerCount: 2
Fore
SplineSet
566 91 m 1,0,1
 606 91 606 91 632.5 88 c 128,-1,2
 659 85 659 85 674 79 c 128,-1,3
 689 73 689 73 695 63.5 c 128,-1,4
 701 54 701 54 701 41 c 0,5,6
 701 26 701 26 695.5 17.5 c 128,-1,7
 690 9 690 9 675 5 c 128,-1,8
 660 1 660 1 634 0 c 128,-1,9
 608 -1 608 -1 566 -1 c 2,10,-1
 254 -1 l 2,11,12
 212 -1 212 -1 186 0.5 c 128,-1,13
 160 2 160 2 145 7 c 128,-1,14
 130 12 130 12 124.5 21.5 c 128,-1,15
 119 31 119 31 119 46 c 0,16,17
 119 59 119 59 124.5 67.5 c 128,-1,18
 130 76 130 76 144.5 81.5 c 128,-1,19
 159 87 159 87 184.5 89 c 128,-1,20
 210 91 210 91 251 91 c 2,21,-1
 566 91 l 1,0,1
EndSplineSet
Validated: 16385
EndChar

StartChar: quoteleft
Encoding: 8216 8216 103
Width: 472
Flags: W
HStem: 1126.5 72.5<320.5 340.108>
LayerCount: 2
Fore
SplineSet
394 860 m 0,0,1
 394 831 394 831 383 804.5 c 128,-1,2
 372 778 372 778 352 757.5 c 128,-1,3
 332 737 332 737 303.5 724.5 c 128,-1,4
 275 712 275 712 241 712 c 0,5,6
 199 712 199 712 169 725.5 c 128,-1,7
 139 739 139 739 120 762 c 128,-1,8
 101 785 101 785 92 815.5 c 128,-1,9
 83 846 83 846 83 881 c 0,10,11
 83 934 83 934 101 990 c 128,-1,12
 119 1046 119 1046 150 1092.5 c 128,-1,13
 181 1139 181 1139 222.5 1169 c 128,-1,14
 264 1199 264 1199 311 1199 c 0,15,16
 328 1199 328 1199 340.5 1190.5 c 128,-1,17
 353 1182 353 1182 353 1160 c 0,18,19
 353 1147 353 1147 343.5 1140 c 128,-1,20
 334 1133 334 1133 320.5 1126.5 c 128,-1,21
 307 1120 307 1120 290.5 1112.5 c 128,-1,22
 274 1105 274 1105 260.5 1092.5 c 128,-1,23
 247 1080 247 1080 237.5 1060 c 128,-1,24
 228 1040 228 1040 228 1008 c 1,25,26
 269 1008 269 1008 300 996.5 c 128,-1,27
 331 985 331 985 352 964.5 c 128,-1,28
 373 944 373 944 383.5 917 c 128,-1,29
 394 890 394 890 394 860 c 0,0,1
EndSplineSet
Validated: 16385
EndChar

StartChar: A
Encoding: 65 65 104
Width: 1224
Flags: W
HStem: 0 51.5<-16.8157 111.973 670.953 828.652> 0 28<417.173 457> 514 60<406 692>
LayerCount: 2
Fore
SplineSet
1075 124 m 2,0,1
 1084 101 1084 101 1102 88.5 c 128,-1,2
 1120 76 1120 76 1142 68.5 c 128,-1,3
 1164 61 1164 61 1186.5 57.5 c 128,-1,4
 1209 54 1209 54 1228 50 c 128,-1,5
 1247 46 1247 46 1259 38.5 c 128,-1,6
 1271 31 1271 31 1271 17 c 0,7,8
 1271 13 1271 13 1267 0 c 1,9,-1
 673 0 l 1,10,11
 668 10 668 10 668 18 c 0,12,13
 668 29 668 29 689 37 c 128,-1,14
 710 45 710 45 737.5 51.5 c 128,-1,15
 765 58 765 58 791.5 63 c 128,-1,16
 818 68 818 68 829 73 c 0,17,18
 848 82 848 82 848 103 c 0,19,20
 848 115 848 115 842 130 c 2,21,-1
 715 514 l 1,22,-1
 386 514 l 1,23,-1
 243 124 l 2,24,25
 239 113 239 113 239 100 c 0,26,27
 239 76 239 76 261 67.5 c 128,-1,28
 283 59 283 59 315.5 55.5 c 128,-1,29
 348 52 348 52 386 47.5 c 128,-1,30
 424 43 424 43 457 28 c 1,31,32
 461 25 461 25 461 17 c 0,33,34
 461 14 461 14 459 6 c 2,35,-1
 457 0 l 1,36,-1
 -14 0 l 1,37,38
 -18 8 -18 8 -18 18 c 0,39,40
 -18 31 -18 31 -7 38.5 c 128,-1,41
 4 46 4 46 21.5 51 c 128,-1,42
 39 56 39 56 60 60.5 c 128,-1,43
 81 65 81 65 101 72.5 c 128,-1,44
 121 80 121 80 137.5 93.5 c 128,-1,45
 154 107 154 107 163 130 c 2,46,-1
 522 1098 l 2,47,48
 536 1136 536 1136 546.5 1160.5 c 128,-1,49
 557 1185 557 1185 566 1199.5 c 128,-1,50
 575 1214 575 1214 585 1220 c 128,-1,51
 595 1226 595 1226 609 1226 c 0,52,53
 612 1226 612 1226 617.5 1224.5 c 128,-1,54
 623 1223 623 1223 631.5 1212.5 c 128,-1,55
 640 1202 640 1202 652 1180 c 128,-1,56
 664 1158 664 1158 681 1117 c 2,57,-1
 1075 124 l 2,0,1
406 574 m 1,58,-1
 692 574 l 1,59,-1
 540 981 l 1,60,-1
 406 574 l 1,58,-1
EndSplineSet
Validated: 16385
EndChar

StartChar: z
Encoding: 122 122 105
Width: 891
Flags: W
HStem: -26 21G<786.5 795> 0 42<336.189 678.305> 814 54<218.247 570.997> 864 20G<133.5 142>
LayerCount: 2
Fore
SplineSet
555 792 m 2,0,1
 559 798 559 798 565 806 c 128,-1,2
 571 814 571 814 571 819 c 0,3,4
 571 825 571 825 559 825 c 2,5,-1
 291 814 l 2,6,7
 267 813 267 813 251 808.5 c 128,-1,8
 235 804 235 804 223.5 793 c 128,-1,9
 212 782 212 782 203 762 c 128,-1,10
 194 742 194 742 183 709 c 0,11,12
 177 691 177 691 167.5 672.5 c 128,-1,13
 158 654 158 654 147 639 c 128,-1,14
 136 624 136 624 124.5 615 c 128,-1,15
 113 606 113 606 103 606 c 0,16,17
 95 606 95 606 85 608 c 0,18,19
 81 609 81 609 76 610 c 1,20,-1
 123 883 l 1,21,22
 127 884 127 884 140 884 c 0,23,24
 144 884 144 884 160 881.5 c 128,-1,25
 176 879 176 879 195 876 c 128,-1,26
 214 873 214 873 233 870.5 c 128,-1,27
 252 868 252 868 263 868 c 2,28,-1
 782 868 l 1,29,30
 796 867 796 867 800.5 860 c 128,-1,31
 805 853 805 853 805 845 c 0,32,33
 805 840 805 840 803 834 c 0,34,35
 802 831 802 831 802 829 c 1,36,-1
 341 102 l 2,37,38
 330 86 330 86 330 69 c 0,39,40
 330 58 330 58 336 50 c 128,-1,41
 342 42 342 42 353 42 c 2,42,-1
 629 50 l 2,43,44
 653 51 653 51 668.5 57.5 c 128,-1,45
 684 64 684 64 694 78 c 128,-1,46
 704 92 704 92 711.5 114.5 c 128,-1,47
 719 137 719 137 727 169 c 0,48,49
 741 222 741 222 761 242 c 128,-1,50
 781 262 781 262 795 262 c 0,51,52
 802 262 802 262 810 260 c 0,53,54
 814 259 814 259 817 259 c 1,55,-1
 805 -25 l 1,56,57
 801 -26 801 -26 789 -26 c 0,58,59
 784 -26 784 -26 769 -22 c 128,-1,60
 754 -18 754 -18 735.5 -13 c 128,-1,61
 717 -8 717 -8 698.5 -4 c 128,-1,62
 680 0 680 0 669 0 c 2,63,-1
 64 0 l 1,64,-1
 57 14 l 1,65,-1
 555 792 l 2,0,1
EndSplineSet
Validated: 16385
Substitution2: "'smcp' Lowercase to Small Capitals in Latin lookup 3 subtable" z.sc
EndChar

StartChar: s
Encoding: 115 115 106
Width: 802
Flags: W
HStem: -17 64<274.863 511.883> 846 56<291.718 484.809>
VStem: 85 84<128.505 286.557> 101 161<651.764 812.913> 552 179<85.876 258.065>
LayerCount: 2
Fore
SplineSet
252 430 m 2,0,1
 175 479 175 479 138 537 c 128,-1,2
 101 595 101 595 101 677 c 0,3,4
 101 740 101 740 125.5 783.5 c 128,-1,5
 150 827 150 827 190.5 853 c 128,-1,6
 231 879 231 879 283.5 890.5 c 128,-1,7
 336 902 336 902 393 902 c 0,8,9
 465 902 465 902 535 887 c 128,-1,10
 605 872 605 872 658 850 c 1,11,-1
 674 626 l 1,12,13
 670 624 670 624 660.5 623.5 c 128,-1,14
 651 623 651 623 648 623 c 0,15,16
 643 623 643 623 635.5 629.5 c 128,-1,17
 628 636 628 636 621 645.5 c 128,-1,18
 614 655 614 655 608.5 666.5 c 128,-1,19
 603 678 603 678 601 687 c 0,20,21
 594 722 594 722 570 751.5 c 128,-1,22
 546 781 546 781 513.5 802 c 128,-1,23
 481 823 481 823 443.5 834.5 c 128,-1,24
 406 846 406 846 372 846 c 0,25,26
 326 846 326 846 294 823 c 128,-1,27
 262 800 262 800 262 747 c 0,28,29
 262 702 262 702 284 675 c 128,-1,30
 306 648 306 648 347 622 c 2,31,-1
 534 499 l 2,32,33
 638 431 638 431 684.5 363 c 128,-1,34
 731 295 731 295 731 222 c 0,35,36
 731 157 731 157 704 111.5 c 128,-1,37
 677 66 677 66 631.5 37.5 c 128,-1,38
 586 9 586 9 527 -4 c 128,-1,39
 468 -17 468 -17 404 -17 c 0,40,41
 360 -17 360 -17 316.5 -11.5 c 128,-1,42
 273 -6 273 -6 231.5 4.5 c 128,-1,43
 190 15 190 15 152.5 30 c 128,-1,44
 115 45 115 45 85 64 c 1,45,-1
 96 290 l 1,46,47
 99 292 99 292 104 295 c 0,48,49
 109 297 109 297 115.5 299 c 128,-1,50
 122 301 122 301 132 301 c 0,51,52
 143 301 143 301 156 287 c 128,-1,53
 169 273 169 273 169 238 c 0,54,55
 169 192 169 192 190.5 156.5 c 128,-1,56
 212 121 212 121 246 96.5 c 128,-1,57
 280 72 280 72 321.5 59.5 c 128,-1,58
 363 47 363 47 404 47 c 0,59,60
 434 47 434 47 460.5 54 c 128,-1,61
 487 61 487 61 507.5 75.5 c 128,-1,62
 528 90 528 90 540 111.5 c 128,-1,63
 552 133 552 133 552 162 c 0,64,65
 552 190 552 190 542 211.5 c 128,-1,66
 532 233 532 233 511.5 254 c 128,-1,67
 491 275 491 275 459.5 296.5 c 128,-1,68
 428 318 428 318 384 346 c 2,69,-1
 252 430 l 2,0,1
EndSplineSet
Validated: 16385
Substitution2: "'smcp' Lowercase to Small Capitals in Latin lookup 3 subtable" s.sc
EndChar

StartChar: t
Encoding: 116 116 107
Width: 655
Flags: W
HStem: -17 81<411.299 608.852> 809 59<381 592> 809 29<32 67.6479>
VStem: 175 206<107.859 809>
LayerCount: 2
Fore
SplineSet
32 838 m 1,0,1
 86 857 86 857 127.5 884.5 c 128,-1,2
 169 912 169 912 201 942 c 128,-1,3
 233 972 233 972 257 1001.5 c 128,-1,4
 281 1031 281 1031 298.5 1054 c 128,-1,5
 316 1077 316 1077 328.5 1091.5 c 128,-1,6
 341 1106 341 1106 352 1106 c 0,7,8
 355 1106 355 1106 359.5 1104 c 128,-1,9
 364 1102 364 1102 367.5 1096 c 128,-1,10
 371 1090 371 1090 373.5 1079 c 128,-1,11
 376 1068 376 1068 376 1050 c 2,12,-1
 376 868 l 1,13,-1
 592 868 l 1,14,-1
 592 809 l 1,15,-1
 381 809 l 1,16,-1
 381 333 l 2,17,18
 381 253 381 253 386 201 c 128,-1,19
 391 149 391 149 404 118.5 c 128,-1,20
 417 88 417 88 440 76 c 128,-1,21
 463 64 463 64 499 64 c 0,22,23
 529 64 529 64 553 70 c 128,-1,24
 577 76 577 76 594 82.5 c 128,-1,25
 611 89 611 89 620.5 95 c 128,-1,26
 630 101 630 101 632 101 c 0,27,28
 639 101 639 101 642.5 96.5 c 128,-1,29
 646 92 646 92 648 86 c 128,-1,30
 650 80 650 80 650.5 74.5 c 128,-1,31
 651 69 651 69 651 66 c 0,32,33
 651 65 651 65 641 52 c 128,-1,34
 631 39 631 39 609 23.5 c 128,-1,35
 587 8 587 8 551.5 -4.5 c 128,-1,36
 516 -17 516 -17 464 -17 c 0,37,38
 402 -17 402 -17 349 -1.5 c 128,-1,39
 296 14 296 14 257.5 54 c 128,-1,40
 219 94 219 94 197 162 c 128,-1,41
 175 230 175 230 175 334 c 2,42,-1
 175 809 l 1,43,-1
 32 809 l 1,44,-1
 32 838 l 1,0,1
EndSplineSet
Validated: 16385
Substitution2: "'smcp' Lowercase to Small Capitals in Latin lookup 3 subtable" t.sc
EndChar

StartChar: slash
Encoding: 47 47 108
Width: 813
Flags: W
VStem: 613 157<1187.3 1356.84>
LayerCount: 2
Fore
SplineSet
532 1079 m 2,0,1
 541 1099 541 1099 554.5 1133 c 128,-1,2
 568 1167 568 1167 581 1202.5 c 128,-1,3
 594 1238 594 1238 603.5 1269.5 c 128,-1,4
 613 1301 613 1301 613 1316 c 0,5,6
 613 1321 613 1321 616 1328.5 c 128,-1,7
 619 1336 619 1336 629 1343.5 c 128,-1,8
 639 1351 639 1351 656.5 1356.5 c 128,-1,9
 674 1362 674 1362 704 1362 c 0,10,11
 726 1362 726 1362 739 1357 c 128,-1,12
 752 1352 752 1352 759 1344.5 c 128,-1,13
 766 1337 766 1337 768 1326.5 c 128,-1,14
 770 1316 770 1316 770 1306 c 0,15,16
 770 1300 770 1300 769.5 1294 c 128,-1,17
 769 1288 769 1288 769 1283 c 0,18,19
 769 1271 769 1271 753 1240 c 128,-1,20
 737 1209 737 1209 705 1148.5 c 128,-1,21
 673 1088 673 1088 626 991.5 c 128,-1,22
 579 895 579 895 517 750 c 128,-1,23
 455 605 455 605 377.5 406 c 128,-1,24
 300 207 300 207 209 -58 c 0,25,26
 200 -84 200 -84 188 -98.5 c 128,-1,27
 176 -113 176 -113 163 -119.5 c 128,-1,28
 150 -126 150 -126 136 -127.5 c 128,-1,29
 122 -129 122 -129 110 -129 c 2,30,-1
 105 -129 l 2,31,32
 85 -129 85 -129 69 -108 c 128,-1,33
 53 -87 53 -87 53 -55 c 0,34,35
 53 -35 53 -35 62 -12 c 2,36,-1
 532 1079 l 2,0,1
EndSplineSet
Validated: 16385
EndChar

StartChar: oslash
Encoding: 248 248 109
Width: 1112
Flags: W
HStem: -17 83<476.79 696.164> 850 52<449.173 650.888>
VStem: 74 206<240.672 648.197> 752.5 156.5<981.375 1118.04> 832 206<235.469 647.569>
LayerCount: 2
Fore
SplineSet
74 442 m 0,0,1
 74 556 74 556 115.5 642.5 c 128,-1,2
 157 729 157 729 224.5 786.5 c 128,-1,3
 292 844 292 844 378.5 873 c 128,-1,4
 465 902 465 902 555 902 c 0,5,6
 623 902 623 902 691 885 c 1,7,-1
 696 900 l 2,8,9
 708 937 708 937 722.5 978.5 c 128,-1,10
 737 1020 737 1020 752.5 1054 c 128,-1,11
 768 1088 768 1088 784 1110.5 c 128,-1,12
 800 1133 800 1133 816 1133 c 0,13,14
 856 1133 856 1133 882.5 1118.5 c 128,-1,15
 909 1104 909 1104 909 1067 c 0,16,17
 909 1058 909 1058 902 1045 c 128,-1,18
 895 1032 895 1032 880.5 1008.5 c 128,-1,19
 866 985 866 985 843.5 946.5 c 128,-1,20
 821 908 821 908 790 848 c 1,21,22
 843 822 843 822 888.5 783.5 c 128,-1,23
 934 745 934 745 967 694.5 c 128,-1,24
 1000 644 1000 644 1019 580.5 c 128,-1,25
 1038 517 1038 517 1038 442 c 0,26,27
 1038 327 1038 327 996.5 241 c 128,-1,28
 955 155 955 155 887.5 97.5 c 128,-1,29
 820 40 820 40 734 11.5 c 128,-1,30
 648 -17 648 -17 558 -17 c 0,31,32
 500 -17 500 -17 445 -5 c 1,33,-1
 393 -158 l 2,34,35
 384 -185 384 -185 372 -201.5 c 128,-1,36
 360 -218 360 -218 346.5 -226 c 128,-1,37
 333 -234 333 -234 319.5 -236.5 c 128,-1,38
 306 -239 306 -239 293 -239 c 0,39,40
 273 -239 273 -239 259 -218 c 128,-1,41
 245 -197 245 -197 245 -167 c 0,42,43
 245 -143 245 -143 255 -120 c 2,44,-1
 323 35 l 1,45,46
 270 61 270 61 224.5 99.5 c 128,-1,47
 179 138 179 138 145.5 189 c 128,-1,48
 112 240 112 240 93 303 c 128,-1,49
 74 366 74 366 74 442 c 0,0,1
280 474 m 0,50,51
 280 365 280 365 306.5 286.5 c 128,-1,52
 333 208 333 208 377 157 c 1,53,-1
 667 815 l 1,54,55
 611 850 611 850 550 850 c 0,56,57
 499 850 499 850 450.5 825.5 c 128,-1,58
 402 801 402 801 364 753.5 c 128,-1,59
 326 706 326 706 303 635.5 c 128,-1,60
 280 565 280 565 280 474 c 0,50,51
741 747 m 1,61,62
 716 694 716 694 687 627.5 c 128,-1,63
 658 561 658 561 625 479 c 128,-1,64
 592 397 592 397 555 298.5 c 128,-1,65
 518 200 518 200 476 83 c 1,66,67
 521 66 521 66 564 66 c 0,68,69
 615 66 615 66 663 88.5 c 128,-1,70
 711 111 711 111 748.5 154.5 c 128,-1,71
 786 198 786 198 809 262.5 c 128,-1,72
 832 327 832 327 832 412 c 0,73,74
 832 527 832 527 807.5 610 c 128,-1,75
 783 693 783 693 741 747 c 1,61,62
EndSplineSet
Validated: 16385
Substitution2: "'smcp' Lowercase to Small Capitals in Latin lookup 3 subtable" oslash.sc
EndChar

StartChar: Lslash
Encoding: 321 321 110
Width: 1119
Flags: W
HStem: -26 21G<1032.5 1046> 0 61<47.0625 250.564 496.357 933.345> 755 76<721.9 813.232> 1133 43<562.748 725.882>
VStem: 276 215<98.4722 1087.04>
LayerCount: 2
Fore
SplineSet
243 524 m 2,0,1
 201 507 201 507 176 499 c 128,-1,2
 151 491 151 491 135 491 c 0,3,4
 110 491 110 491 100 517 c 0,5,6
 98 522 98 522 97 526 c 128,-1,7
 96 530 96 530 96 534 c 0,8,9
 96 543 96 543 101.5 551 c 128,-1,10
 107 559 107 559 120 568 c 128,-1,11
 133 577 133 577 154 587 c 128,-1,12
 175 597 175 597 206 609 c 2,13,-1
 683 802 l 2,14,15
 721 817 721 817 746 824 c 128,-1,16
 771 831 771 831 788 831 c 256,17,18
 805 831 805 831 813.5 824.5 c 128,-1,19
 822 818 822 818 827 806 c 0,20,21
 831 797 831 797 831 787 c 0,22,23
 831 769 831 769 806 755 c 128,-1,24
 781 741 781 741 718 716 c 2,25,-1
 489 623 l 1,26,-1
 243 524 l 2,0,1
491 136 m 2,27,28
 491 121 491 121 493 106.5 c 128,-1,29
 495 92 495 92 500.5 80.5 c 128,-1,30
 506 69 506 69 514.5 62.5 c 128,-1,31
 523 56 523 56 536 56 c 2,32,-1
 842 67 l 2,33,34
 874 68 874 68 897.5 74 c 128,-1,35
 921 80 921 80 938.5 95 c 128,-1,36
 956 110 956 110 968.5 136.5 c 128,-1,37
 981 163 981 163 992 207 c 0,38,39
 998 232 998 232 1005 256.5 c 128,-1,40
 1012 281 1012 281 1020.5 301 c 128,-1,41
 1029 321 1029 321 1038 333.5 c 128,-1,42
 1047 346 1047 346 1057 346 c 0,43,44
 1059 346 1059 346 1062.5 345 c 128,-1,45
 1066 344 1066 344 1077 342 c 0,46,47
 1078 342 1078 342 1079 341.5 c 128,-1,48
 1080 341 1080 341 1081 341 c 2,49,-1
 1053 -20 l 2,50,51
 1052 -24 1052 -24 1049 -25 c 0,52,53
 1047 -26 1047 -26 1045 -26 c 0,54,55
 1020 -19 1020 -19 994 -13 c 0,56,57
 971 -8 971 -8 943 -4 c 128,-1,58
 915 0 915 0 886 0 c 2,59,-1
 50 0 l 1,60,61
 46 12 46 12 46 22 c 0,62,63
 46 41 46 41 63 49 c 128,-1,64
 80 57 80 57 105.5 61 c 128,-1,65
 131 65 131 65 161 67 c 128,-1,66
 191 69 191 69 216.5 76 c 128,-1,67
 242 83 242 83 259 98 c 128,-1,68
 276 113 276 113 276 142 c 2,69,-1
 276 1038 l 2,70,71
 276 1065 276 1065 262.5 1079.5 c 128,-1,72
 249 1094 249 1094 228 1102 c 128,-1,73
 207 1110 207 1110 181 1113.5 c 128,-1,74
 155 1117 155 1117 129.5 1121.5 c 128,-1,75
 104 1126 104 1126 82 1134 c 128,-1,76
 60 1142 60 1142 48 1159 c 1,77,78
 48 1161 48 1161 52 1176 c 1,79,-1
 722 1176 l 1,80,81
 726 1165 726 1165 726 1157 c 0,82,83
 726 1140 726 1140 708.5 1133 c 128,-1,84
 691 1126 691 1126 665 1123 c 128,-1,85
 639 1120 639 1120 608.5 1118 c 128,-1,86
 578 1116 578 1116 552 1109 c 128,-1,87
 526 1102 526 1102 508.5 1087.5 c 128,-1,88
 491 1073 491 1073 491 1044 c 2,89,-1
 491 136 l 2,27,28
EndSplineSet
Validated: 16389
EndChar

StartChar: florin
Encoding: 402 402 111
Width: 640
Flags: W
HStem: -253 41<-43.8342 54.3629> 793 59<83 224 427 636> 1256 41<518.637 617.151>
VStem: -222 169<-207.963 -69.6754> 626 169<1113.68 1251.96>
LayerCount: 2
Fore
SplineSet
224 793 m 1,0,-1
 76 793 l 1,1,-1
 83 852 l 1,2,-1
 231 852 l 1,3,-1
 245 965 l 2,4,5
 257 1062 257 1062 289.5 1126.5 c 128,-1,6
 322 1191 322 1191 366.5 1228.5 c 128,-1,7
 411 1266 411 1266 464 1281.5 c 128,-1,8
 517 1297 517 1297 571 1297 c 0,9,10
 614 1297 614 1297 654.5 1291 c 128,-1,11
 695 1285 695 1285 726.5 1270.5 c 128,-1,12
 758 1256 758 1256 776.5 1233.5 c 128,-1,13
 795 1211 795 1211 795 1178 c 0,14,15
 795 1155 795 1155 786.5 1135 c 128,-1,16
 778 1115 778 1115 762.5 1100 c 128,-1,17
 747 1085 747 1085 726 1076.5 c 128,-1,18
 705 1068 705 1068 680 1068 c 0,19,20
 641 1068 641 1068 622 1088 c 128,-1,21
 603 1108 603 1108 603 1137 c 0,22,23
 603 1159 603 1159 613 1178 c 128,-1,24
 623 1197 623 1197 626 1223 c 1,25,26
 626 1242 626 1242 611 1249 c 128,-1,27
 596 1256 596 1256 571 1256 c 0,28,29
 551 1256 551 1256 532.5 1246.5 c 128,-1,30
 514 1237 514 1237 497.5 1205 c 128,-1,31
 481 1173 481 1173 466.5 1111.5 c 128,-1,32
 452 1050 452 1050 439 947 c 2,33,-1
 427 852 l 1,34,-1
 643 852 l 1,35,-1
 636 793 l 1,36,-1
 420 793 l 1,37,-1
 328 79 l 2,38,39
 316 -19 316 -19 283.5 -83 c 128,-1,40
 251 -147 251 -147 206.5 -184.5 c 128,-1,41
 162 -222 162 -222 109 -237.5 c 128,-1,42
 56 -253 56 -253 2 -253 c 0,43,44
 -42 -253 -42 -253 -82 -247 c 128,-1,45
 -122 -241 -122 -241 -153.5 -226.5 c 128,-1,46
 -185 -212 -185 -212 -203.5 -189.5 c 128,-1,47
 -222 -167 -222 -167 -222 -134 c 0,48,49
 -222 -111 -222 -111 -213.5 -91 c 128,-1,50
 -205 -71 -205 -71 -189.5 -56 c 128,-1,51
 -174 -41 -174 -41 -153 -32.5 c 128,-1,52
 -132 -24 -132 -24 -107 -24 c 0,53,54
 -68 -24 -68 -24 -49 -44 c 128,-1,55
 -30 -64 -30 -64 -30 -93 c 0,56,57
 -30 -115 -30 -115 -40 -134 c 128,-1,58
 -50 -153 -50 -153 -53 -179 c 1,59,60
 -53 -198 -53 -198 -38 -205 c 128,-1,61
 -23 -212 -23 -212 2 -212 c 0,62,63
 22 -212 22 -212 40.5 -202.5 c 128,-1,64
 59 -193 59 -193 75.5 -161 c 128,-1,65
 92 -129 92 -129 106.5 -68 c 128,-1,66
 121 -7 121 -7 134 97 c 2,67,-1
 224 793 l 1,0,-1
EndSplineSet
Validated: 16385
EndChar

StartChar: section
Encoding: 167 167 112
Width: 832
Flags: W
HStem: -17 50<274.907 553.683> 1234 46<273.593 513.25>
VStem: 101 92<670.875 834.437> 122 86<1032.47 1185.08> 633 97<496.541 664.531> 648 105<100.835 273.844>
LayerCount: 2
Fore
SplineSet
279 456 m 2,0,1
 190 505 190 505 145.5 568.5 c 128,-1,2
 101 632 101 632 101 701 c 0,3,4
 101 760 101 760 128.5 808.5 c 128,-1,5
 156 857 156 857 207 889 c 1,6,7
 165 927 165 927 143.5 971 c 128,-1,8
 122 1015 122 1015 122 1061 c 256,9,10
 122 1107 122 1107 141 1147 c 128,-1,11
 160 1187 160 1187 195 1216.5 c 128,-1,12
 230 1246 230 1246 278.5 1263 c 128,-1,13
 327 1280 327 1280 387 1280 c 0,14,15
 417 1280 417 1280 455.5 1276 c 128,-1,16
 494 1272 494 1272 532.5 1265.5 c 128,-1,17
 571 1259 571 1259 605 1250.5 c 128,-1,18
 639 1242 639 1242 660 1232 c 1,19,-1
 674 1044 l 1,20,21
 670 1043 670 1043 661 1042.5 c 128,-1,22
 652 1042 652 1042 649 1042 c 0,23,24
 644 1042 644 1042 636.5 1048 c 128,-1,25
 629 1054 629 1054 622.5 1063.5 c 128,-1,26
 616 1073 616 1073 610.5 1083.5 c 128,-1,27
 605 1094 605 1094 603 1103 c 0,28,29
 595 1144 595 1144 571.5 1169.5 c 128,-1,30
 548 1195 548 1195 517.5 1209.5 c 128,-1,31
 487 1224 487 1224 453 1229 c 128,-1,32
 419 1234 419 1234 389 1234 c 0,33,34
 304 1234 304 1234 256 1201.5 c 128,-1,35
 208 1169 208 1169 208 1108 c 0,36,37
 208 1076 208 1076 231 1050.5 c 128,-1,38
 254 1025 254 1025 299 1002 c 2,39,-1
 554 868 l 2,40,41
 612 838 612 838 647 810.5 c 128,-1,42
 682 783 682 783 700.5 755 c 128,-1,43
 719 727 719 727 724.5 697 c 128,-1,44
 730 667 730 667 730 631 c 0,45,46
 730 573 730 573 705.5 527.5 c 128,-1,47
 681 482 681 482 637 451 c 1,48,49
 674 425 674 425 697 401 c 128,-1,50
 720 377 720 377 732.5 351.5 c 128,-1,51
 745 326 745 326 749 298.5 c 128,-1,52
 753 271 753 271 753 240 c 0,53,54
 753 181 753 181 728.5 133.5 c 128,-1,55
 704 86 704 86 661 52.5 c 128,-1,56
 618 19 618 19 559.5 1 c 128,-1,57
 501 -17 501 -17 433 -17 c 0,58,59
 393 -17 393 -17 344 -11 c 128,-1,60
 295 -5 295 -5 247 5.5 c 128,-1,61
 199 16 199 16 155.5 31.5 c 128,-1,62
 112 47 112 47 84 67 c 1,63,-1
 95 280 l 1,64,65
 99 283 99 283 104 286 c 0,66,67
 109 288 109 288 115.5 290 c 128,-1,68
 122 292 122 292 133 292 c 256,69,70
 144 292 144 292 157.5 276.5 c 128,-1,71
 171 261 171 261 171 222 c 0,72,73
 171 165 171 165 192 128 c 128,-1,74
 213 91 213 91 249.5 70 c 128,-1,75
 286 49 286 49 336 41 c 128,-1,76
 386 33 386 33 444 33 c 0,77,78
 485 33 485 33 522 45 c 128,-1,79
 559 57 559 57 587 77.5 c 128,-1,80
 615 98 615 98 631.5 125.5 c 128,-1,81
 648 153 648 153 648 184 c 0,82,83
 648 214 648 214 637 235 c 128,-1,84
 626 256 626 256 602.5 274.5 c 128,-1,85
 579 293 579 293 542.5 312.5 c 128,-1,86
 506 332 506 332 454 361 c 2,87,-1
 279 456 l 2,0,1
288 833 m 2,88,89
 278 838 278 838 269 844 c 128,-1,90
 260 850 260 850 251 855 c 1,91,92
 223 838 223 838 208 812 c 128,-1,93
 193 786 193 786 193 751 c 256,94,95
 193 716 193 716 217.5 689 c 128,-1,96
 242 662 242 662 290 637 c 2,97,-1
 582 484 l 1,98,99
 605 503 605 503 619 527.5 c 128,-1,100
 633 552 633 552 633 579 c 0,101,102
 633 607 633 607 622.5 626.5 c 128,-1,103
 612 646 612 646 590 663.5 c 128,-1,104
 568 681 568 681 533.5 699.5 c 128,-1,105
 499 718 499 718 451 744 c 2,106,-1
 288 833 l 2,88,89
EndSplineSet
Validated: 16385
EndChar

StartChar: period
Encoding: 46 46 113
Width: 500
Flags: W
HStem: -16 296<143.142 358.211>
VStem: 98 306<30.0042 234.496>
LayerCount: 2
Fore
SplineSet
98 132 m 0,0,1
 98 160 98 160 110 187 c 128,-1,2
 122 214 122 214 142.5 234.5 c 128,-1,3
 163 255 163 255 191 267.5 c 128,-1,4
 219 280 219 280 251 280 c 256,5,6
 283 280 283 280 311 267.5 c 128,-1,7
 339 255 339 255 359.5 234.5 c 128,-1,8
 380 214 380 214 392 187 c 128,-1,9
 404 160 404 160 404 132 c 256,10,11
 404 104 404 104 392 77.5 c 128,-1,12
 380 51 380 51 359.5 30 c 128,-1,13
 339 9 339 9 311 -3.5 c 128,-1,14
 283 -16 283 -16 251 -16 c 256,15,16
 219 -16 219 -16 191.5 -4.5 c 128,-1,17
 164 7 164 7 143 27.5 c 128,-1,18
 122 48 122 48 110 75 c 128,-1,19
 98 102 98 102 98 132 c 0,0,1
EndSplineSet
Validated: 16385
EndChar

StartChar: uniFB00
Encoding: 64256 64256 114
Width: 1240
Flags: W
HStem: 0 44.5<45.6602 178.23 625.66 758.23> 809 59<62 205 411 785 991 1202> 1068 199.5<1189.18 1329.24> 1256 41<506.431 689.391 1043.15 1168.16>
VStem: 205 206<60.3804 809 868 1140.29> 785 206<60.3804 809 868 1067.62> 1167 187<1097.39 1247.52>
LayerCount: 2
Fore
SplineSet
62 868 m 1,0,-1
 205 868 l 1,1,-1
 205 965 l 2,2,3
 205 1062 205 1062 241 1126.5 c 128,-1,4
 277 1191 277 1191 332 1228.5 c 128,-1,5
 387 1266 387 1266 452.5 1281.5 c 128,-1,6
 518 1297 518 1297 576 1297 c 0,7,8
 617 1297 617 1297 661 1292 c 128,-1,9
 705 1287 705 1287 744.5 1276.5 c 128,-1,10
 784 1266 784 1266 815 1249 c 128,-1,11
 846 1232 846 1232 861 1208 c 1,12,13
 906 1257 906 1257 968.5 1277 c 128,-1,14
 1031 1297 1031 1297 1096 1297 c 0,15,16
 1145 1297 1145 1297 1191.5 1290 c 128,-1,17
 1238 1283 1238 1283 1274 1267.5 c 128,-1,18
 1310 1252 1310 1252 1332 1226.5 c 128,-1,19
 1354 1201 1354 1201 1354 1164 c 0,20,21
 1354 1125 1354 1125 1330 1096.5 c 128,-1,22
 1306 1068 1306 1068 1254 1068 c 0,23,24
 1210 1068 1210 1068 1188.5 1092 c 128,-1,25
 1167 1116 1167 1116 1167 1150 c 0,26,27
 1167 1170 1167 1170 1174 1186.5 c 128,-1,28
 1181 1203 1181 1203 1181 1217 c 0,29,30
 1181 1240 1181 1240 1161.5 1248 c 128,-1,31
 1142 1256 1142 1256 1107 1256 c 0,32,33
 1080 1256 1080 1256 1058.5 1246.5 c 128,-1,34
 1037 1237 1037 1237 1022 1205 c 128,-1,35
 1007 1173 1007 1173 999 1111.5 c 128,-1,36
 991 1050 991 1050 991 947 c 2,37,-1
 991 868 l 1,38,-1
 1202 868 l 1,39,-1
 1202 809 l 1,40,-1
 991 809 l 1,41,-1
 991 110 l 2,42,43
 991 89 991 89 1004 77.5 c 128,-1,44
 1017 66 1017 66 1037 60 c 128,-1,45
 1057 54 1057 54 1080 51 c 128,-1,46
 1103 48 1103 48 1123 44.5 c 128,-1,47
 1143 41 1143 41 1156 35 c 128,-1,48
 1169 29 1169 29 1169 17 c 0,49,50
 1169 15 1169 15 1165 0 c 1,51,-1
 629 0 l 1,52,53
 625 15 625 15 625 17 c 0,54,55
 625 29 625 29 637 35 c 128,-1,56
 649 41 649 41 666.5 44.5 c 128,-1,57
 684 48 684 48 705 51 c 128,-1,58
 726 54 726 54 743.5 60 c 128,-1,59
 761 66 761 66 773 77.5 c 128,-1,60
 785 89 785 89 785 110 c 2,61,-1
 785 809 l 1,62,-1
 411 809 l 1,63,-1
 411 110 l 2,64,65
 411 89 411 89 424 77.5 c 128,-1,66
 437 66 437 66 457 60 c 128,-1,67
 477 54 477 54 500 51 c 128,-1,68
 523 48 523 48 543 44.5 c 128,-1,69
 563 41 563 41 576 35 c 128,-1,70
 589 29 589 29 589 17 c 0,71,72
 589 15 589 15 585 0 c 1,73,-1
 49 0 l 1,74,75
 45 15 45 15 45 17 c 0,76,77
 45 29 45 29 57 35 c 128,-1,78
 69 41 69 41 86.5 44.5 c 128,-1,79
 104 48 104 48 125 51 c 128,-1,80
 146 54 146 54 163.5 60 c 128,-1,81
 181 66 181 66 193 77.5 c 128,-1,82
 205 89 205 89 205 110 c 2,83,-1
 205 809 l 1,84,-1
 62 809 l 1,85,-1
 62 868 l 1,0,-1
785 965 m 2,86,87
 785 1025 785 1025 795 1069 c 1,88,89
 790 1068 790 1068 784.5 1068 c 128,-1,90
 779 1068 779 1068 774 1068 c 0,91,92
 730 1068 730 1068 708.5 1092 c 128,-1,93
 687 1116 687 1116 687 1150 c 0,94,95
 687 1170 687 1170 694 1186.5 c 128,-1,96
 701 1203 701 1203 701 1217 c 0,97,98
 701 1228 701 1228 690 1235.5 c 128,-1,99
 679 1243 679 1243 662 1247.5 c 128,-1,100
 645 1252 645 1252 625 1254 c 128,-1,101
 605 1256 605 1256 587 1256 c 0,102,103
 560 1256 560 1256 529.5 1246.5 c 128,-1,104
 499 1237 499 1237 472.5 1205 c 128,-1,105
 446 1173 446 1173 428.5 1111.5 c 128,-1,106
 411 1050 411 1050 411 947 c 2,107,-1
 411 868 l 1,108,-1
 785 868 l 1,109,-1
 785 965 l 2,86,87
EndSplineSet
Validated: 16385
Substitution2: "'smcp' Lowercase to Small Capitals in Latin lookup 3 subtable" f_f.sc
Ligature2: "'liga' Standard Ligatures in Latin lookup 2 subtable" f f
EndChar

StartChar: uniFB01
Encoding: 64257 64257 115
Width: 1219
Flags: W
HStem: 0 49.5<46.5625 189.116 635.318 783.974> 809 59<62 205 411 819> 1256 41<522.836 738.191>
VStem: 205 206<60.3804 809 868 1140.29> 780 245<1010.5 1161.66> 819 206<69.7054 809>
LayerCount: 2
Fore
SplineSet
780 1104 m 0,0,1
 780 1124 780 1124 784 1137.5 c 128,-1,2
 788 1151 788 1151 794 1162 c 1,3,4
 793 1174 793 1174 786.5 1190.5 c 128,-1,5
 780 1207 780 1207 762 1221.5 c 128,-1,6
 744 1236 744 1236 711.5 1246 c 128,-1,7
 679 1256 679 1256 627 1256 c 0,8,9
 590 1256 590 1256 551.5 1246.5 c 128,-1,10
 513 1237 513 1237 482 1205 c 128,-1,11
 451 1173 451 1173 431 1111.5 c 128,-1,12
 411 1050 411 1050 411 947 c 2,13,-1
 411 868 l 1,14,-1
 1025 868 l 1,15,-1
 1025 120 l 2,16,17
 1025 97 1025 97 1038 84 c 128,-1,18
 1051 71 1051 71 1071 63.5 c 128,-1,19
 1091 56 1091 56 1114 52.5 c 128,-1,20
 1137 49 1137 49 1157 45.5 c 128,-1,21
 1177 42 1177 42 1190 36 c 128,-1,22
 1203 30 1203 30 1203 18 c 0,23,24
 1203 9 1203 9 1199 0 c 1,25,-1
 638 0 l 1,26,27
 634 13 634 13 634 17 c 0,28,29
 634 31 634 31 647.5 38 c 128,-1,30
 661 45 661 45 682 49.5 c 128,-1,31
 703 54 703 54 726.5 57.5 c 128,-1,32
 750 61 750 61 771 68.5 c 128,-1,33
 792 76 792 76 805.5 89 c 128,-1,34
 819 102 819 102 819 126 c 2,35,-1
 819 809 l 1,36,-1
 411 809 l 1,37,-1
 411 110 l 2,38,39
 411 89 411 89 424 77.5 c 128,-1,40
 437 66 437 66 457 60 c 128,-1,41
 477 54 477 54 500 51 c 128,-1,42
 523 48 523 48 543 44.5 c 128,-1,43
 563 41 563 41 576 35 c 128,-1,44
 589 29 589 29 589 17 c 0,45,46
 589 15 589 15 585 0 c 1,47,-1
 49 0 l 1,48,49
 45 15 45 15 45 17 c 0,50,51
 45 29 45 29 57 35 c 128,-1,52
 69 41 69 41 86.5 44.5 c 128,-1,53
 104 48 104 48 125 51 c 128,-1,54
 146 54 146 54 163.5 60 c 128,-1,55
 181 66 181 66 193 77.5 c 128,-1,56
 205 89 205 89 205 110 c 2,57,-1
 205 809 l 1,58,-1
 62 809 l 1,59,-1
 62 868 l 1,60,-1
 205 868 l 1,61,-1
 205 965 l 2,62,63
 205 1062 205 1062 241 1126.5 c 128,-1,64
 277 1191 277 1191 335.5 1228.5 c 128,-1,65
 394 1266 394 1266 467.5 1281.5 c 128,-1,66
 541 1297 541 1297 616 1297 c 0,67,68
 646 1297 646 1297 687.5 1295 c 128,-1,69
 729 1293 729 1293 774.5 1286 c 128,-1,70
 820 1279 820 1279 865 1266.5 c 128,-1,71
 910 1254 910 1254 945.5 1233 c 128,-1,72
 981 1212 981 1212 1003 1181.5 c 128,-1,73
 1025 1151 1025 1151 1025 1109 c 0,74,75
 1025 1082 1025 1082 1015.5 1059 c 128,-1,76
 1006 1036 1006 1036 989.5 1019 c 128,-1,77
 973 1002 973 1002 950.5 992.5 c 128,-1,78
 928 983 928 983 901 983 c 0,79,80
 875 983 875 983 853 992.5 c 128,-1,81
 831 1002 831 1002 815 1018 c 128,-1,82
 799 1034 799 1034 789.5 1056 c 128,-1,83
 780 1078 780 1078 780 1104 c 0,0,1
EndSplineSet
Validated: 16385
Substitution2: "'smcp' Lowercase to Small Capitals in Latin lookup 3 subtable" f_i.sc
Ligature2: "'liga' Standard Ligatures in Latin lookup 2 subtable" f i
EndChar

StartChar: t_t
Encoding: 65539 -1 116
Width: 1195
Flags: W
HStem: -17 71<416.936 599.953 962.936 1145.95> 809 59<381 720.477 927 1138> 809 29<32 67.6479>
VStem: 175 206<107.859 809> 721 206<107.859 809>
LayerCount: 2
Fore
SplineSet
32 838 m 1,0,1
 86 857 86 857 127.5 884.5 c 128,-1,2
 169 912 169 912 201 942 c 128,-1,3
 233 972 233 972 257 1001.5 c 128,-1,4
 281 1031 281 1031 298.5 1054 c 128,-1,5
 316 1077 316 1077 328.5 1091.5 c 128,-1,6
 341 1106 341 1106 352 1106 c 0,7,8
 355 1106 355 1106 359.5 1104 c 128,-1,9
 364 1102 364 1102 367.5 1096 c 128,-1,10
 371 1090 371 1090 373.5 1079 c 128,-1,11
 376 1068 376 1068 376 1050 c 2,12,-1
 376 868 l 1,13,-1
 680 868 l 1,14,15
 738 901 738 901 774.5 942.5 c 128,-1,16
 811 984 811 984 833.5 1020 c 128,-1,17
 856 1056 856 1056 870 1081 c 128,-1,18
 884 1106 884 1106 898 1106 c 0,19,20
 901 1106 901 1106 905.5 1104 c 128,-1,21
 910 1102 910 1102 913.5 1096 c 128,-1,22
 917 1090 917 1090 919.5 1079 c 128,-1,23
 922 1068 922 1068 922 1050 c 2,24,-1
 922 868 l 1,25,-1
 1138 868 l 1,26,-1
 1138 809 l 1,27,-1
 927 809 l 1,28,-1
 927 333 l 2,29,30
 927 253 927 253 932 199 c 128,-1,31
 937 145 937 145 950 113 c 128,-1,32
 963 81 963 81 986 67.5 c 128,-1,33
 1009 54 1009 54 1045 54 c 0,34,35
 1064 54 1064 54 1082.5 59 c 128,-1,36
 1101 64 1101 64 1117 71 c 128,-1,37
 1133 78 1133 78 1145 85 c 128,-1,38
 1157 92 1157 92 1162 95 c 0,39,40
 1166 98 1166 98 1170 98 c 0,41,42
 1176 98 1176 98 1180.5 92.5 c 128,-1,43
 1185 87 1185 87 1189 81 c 0,44,45
 1193 74 1193 74 1197 65 c 1,46,47
 1181 42 1181 42 1155 24 c 0,48,49
 1132 8 1132 8 1097 -4.5 c 128,-1,50
 1062 -17 1062 -17 1010 -17 c 0,51,52
 948 -17 948 -17 895 -1.5 c 128,-1,53
 842 14 842 14 803.5 54 c 128,-1,54
 765 94 765 94 743 162 c 128,-1,55
 721 230 721 230 721 334 c 2,56,-1
 721 809 l 1,57,-1
 381 809 l 1,58,-1
 381 333 l 2,59,60
 381 253 381 253 386 199 c 128,-1,61
 391 145 391 145 404 113 c 128,-1,62
 417 81 417 81 440 67.5 c 128,-1,63
 463 54 463 54 499 54 c 0,64,65
 518 54 518 54 536.5 59 c 128,-1,66
 555 64 555 64 571 71 c 128,-1,67
 587 78 587 78 599 85 c 128,-1,68
 611 92 611 92 616 95 c 0,69,70
 620 98 620 98 624 98 c 0,71,72
 630 98 630 98 634.5 92.5 c 128,-1,73
 639 87 639 87 643 81 c 0,74,75
 647 74 647 74 651 65 c 1,76,77
 635 42 635 42 609 24 c 0,78,79
 586 8 586 8 551 -4.5 c 128,-1,80
 516 -17 516 -17 464 -17 c 0,81,82
 402 -17 402 -17 349 -1.5 c 128,-1,83
 296 14 296 14 257.5 54 c 128,-1,84
 219 94 219 94 197 162 c 128,-1,85
 175 230 175 230 175 334 c 2,86,-1
 175 809 l 1,87,-1
 32 809 l 1,88,-1
 32 838 l 1,0,1
EndSplineSet
Validated: 16385
Substitution2: "'smcp' Lowercase to Small Capitals in Latin lookup 3 subtable" t_t.sc
Ligature2: "'liga' Standard Ligatures in Latin lookup 2 subtable" t t
EndChar

StartChar: uniFB03
Encoding: 64259 64259 117
Width: 1804
Flags: W
HStem: 0 49.5<46.5625 189.116 631.562 774.116 1220.32 1368.97> 809 59<62 205 411 790 996 1404> 1256 41<528.041 727.246 1108.42 1323.19>
VStem: 205 206<60.3804 809 868 1131.77> 790 206<60.3804 809 868 1067.28> 1365 245<1010.5 1161.66> 1404 206<69.7054 809>
LayerCount: 2
Fore
SplineSet
1365 1104 m 0,0,1
 1365 1124 1365 1124 1369 1137.5 c 128,-1,2
 1373 1151 1373 1151 1379 1162 c 1,3,4
 1378 1174 1378 1174 1371.5 1190.5 c 128,-1,5
 1365 1207 1365 1207 1347 1221.5 c 128,-1,6
 1329 1236 1329 1236 1296.5 1246 c 128,-1,7
 1264 1256 1264 1256 1212 1256 c 0,8,9
 1175 1256 1175 1256 1136.5 1246.5 c 128,-1,10
 1098 1237 1098 1237 1067 1205 c 128,-1,11
 1036 1173 1036 1173 1016 1111.5 c 128,-1,12
 996 1050 996 1050 996 947 c 2,13,-1
 996 868 l 1,14,-1
 1610 868 l 1,15,-1
 1610 120 l 2,16,17
 1610 97 1610 97 1623 84 c 128,-1,18
 1636 71 1636 71 1656 63.5 c 128,-1,19
 1676 56 1676 56 1699 52.5 c 128,-1,20
 1722 49 1722 49 1742 45.5 c 128,-1,21
 1762 42 1762 42 1775 36 c 128,-1,22
 1788 30 1788 30 1788 18 c 0,23,24
 1788 9 1788 9 1784 0 c 1,25,-1
 1223 0 l 1,26,27
 1219 13 1219 13 1219 17 c 0,28,29
 1219 31 1219 31 1232.5 38 c 128,-1,30
 1246 45 1246 45 1267 49.5 c 128,-1,31
 1288 54 1288 54 1311.5 57.5 c 128,-1,32
 1335 61 1335 61 1356 68.5 c 128,-1,33
 1377 76 1377 76 1390.5 89 c 128,-1,34
 1404 102 1404 102 1404 126 c 2,35,-1
 1404 809 l 1,36,-1
 996 809 l 1,37,-1
 996 110 l 2,38,39
 996 89 996 89 1009 77.5 c 128,-1,40
 1022 66 1022 66 1042 60 c 128,-1,41
 1062 54 1062 54 1085 51 c 128,-1,42
 1108 48 1108 48 1128 44.5 c 128,-1,43
 1148 41 1148 41 1161 35 c 128,-1,44
 1174 29 1174 29 1174 17 c 0,45,46
 1174 15 1174 15 1170 0 c 1,47,-1
 634 0 l 1,48,49
 630 15 630 15 630 17 c 0,50,51
 630 29 630 29 642 35 c 128,-1,52
 654 41 654 41 671.5 44.5 c 128,-1,53
 689 48 689 48 710 51 c 128,-1,54
 731 54 731 54 748.5 60 c 128,-1,55
 766 66 766 66 778 77.5 c 128,-1,56
 790 89 790 89 790 110 c 2,57,-1
 790 809 l 1,58,-1
 411 809 l 1,59,-1
 411 110 l 2,60,61
 411 89 411 89 424 77.5 c 128,-1,62
 437 66 437 66 457 60 c 128,-1,63
 477 54 477 54 500 51 c 128,-1,64
 523 48 523 48 543 44.5 c 128,-1,65
 563 41 563 41 576 35 c 128,-1,66
 589 29 589 29 589 17 c 0,67,68
 589 15 589 15 585 0 c 1,69,-1
 49 0 l 1,70,71
 45 15 45 15 45 17 c 0,72,73
 45 29 45 29 57 35 c 128,-1,74
 69 41 69 41 86.5 44.5 c 128,-1,75
 104 48 104 48 125 51 c 128,-1,76
 146 54 146 54 163.5 60 c 128,-1,77
 181 66 181 66 193 77.5 c 128,-1,78
 205 89 205 89 205 110 c 2,79,-1
 205 809 l 1,80,-1
 62 809 l 1,81,-1
 62 868 l 1,82,-1
 205 868 l 1,83,-1
 205 965 l 2,84,85
 205 1030 205 1030 224 1080 c 128,-1,86
 243 1130 243 1130 274.5 1167 c 128,-1,87
 306 1204 306 1204 347.5 1228.5 c 128,-1,88
 389 1253 389 1253 433.5 1268.5 c 128,-1,89
 478 1284 478 1284 522.5 1290.5 c 128,-1,90
 567 1297 567 1297 606 1297 c 0,91,92
 646 1297 646 1297 690.5 1292.5 c 128,-1,93
 735 1288 735 1288 775 1278 c 128,-1,94
 815 1268 815 1268 847.5 1251.5 c 128,-1,95
 880 1235 880 1235 897 1212 c 1,96,97
 957 1259 957 1259 1037.5 1278 c 128,-1,98
 1118 1297 1118 1297 1201 1297 c 0,99,100
 1231 1297 1231 1297 1272.5 1295 c 128,-1,101
 1314 1293 1314 1293 1359.5 1286 c 128,-1,102
 1405 1279 1405 1279 1450 1266.5 c 128,-1,103
 1495 1254 1495 1254 1530.5 1233 c 128,-1,104
 1566 1212 1566 1212 1588 1181.5 c 128,-1,105
 1610 1151 1610 1151 1610 1109 c 0,106,107
 1610 1082 1610 1082 1600.5 1059 c 128,-1,108
 1591 1036 1591 1036 1574.5 1019 c 128,-1,109
 1558 1002 1558 1002 1535.5 992.5 c 128,-1,110
 1513 983 1513 983 1486 983 c 0,111,112
 1460 983 1460 983 1438 992.5 c 128,-1,113
 1416 1002 1416 1002 1400 1018 c 128,-1,114
 1384 1034 1384 1034 1374.5 1056 c 128,-1,115
 1365 1078 1365 1078 1365 1104 c 0,0,1
790 965 m 2,116,117
 790 994 790 994 793 1019.5 c 128,-1,118
 796 1045 796 1045 803 1068 c 1,119,120
 765 1072 765 1072 746 1095 c 128,-1,121
 727 1118 727 1118 727 1150 c 0,122,123
 727 1170 727 1170 734 1186.5 c 128,-1,124
 741 1203 741 1203 741 1217 c 0,125,126
 741 1228 741 1228 728 1235.5 c 128,-1,127
 715 1243 715 1243 696.5 1247.5 c 128,-1,128
 678 1252 678 1252 656.5 1254 c 128,-1,129
 635 1256 635 1256 617 1256 c 0,130,131
 590 1256 590 1256 554.5 1246.5 c 128,-1,132
 519 1237 519 1237 487 1205 c 128,-1,133
 455 1173 455 1173 433 1111.5 c 128,-1,134
 411 1050 411 1050 411 947 c 2,135,-1
 411 868 l 1,136,-1
 790 868 l 1,137,-1
 790 965 l 2,116,117
EndSplineSet
Validated: 16385
Substitution2: "'smcp' Lowercase to Small Capitals in Latin lookup 3 subtable" f_f_i.sc
Ligature2: "'liga' Standard Ligatures in Latin lookup 2 subtable" f f i
EndChar

StartChar: uniFB02
Encoding: 64258 64258 118
Width: 1219
Flags: W
HStem: 0 43<45.4951 173.9 638 759.658> 809 59<62 205 411 817> 1256 41<522.701 764.939>
VStem: 205 206<60.3804 809 868 1140.29> 817 209<68.597 809 868 1225.52>
LayerCount: 2
Fore
SplineSet
817 809 m 1,0,-1
 411 809 l 1,1,-1
 411 110 l 2,2,3
 411 89 411 89 424 77.5 c 128,-1,4
 437 66 437 66 457 60 c 128,-1,5
 477 54 477 54 500 51 c 128,-1,6
 523 48 523 48 543 44.5 c 128,-1,7
 563 41 563 41 576 35 c 128,-1,8
 589 29 589 29 589 17 c 0,9,10
 589 15 589 15 585 0 c 1,11,-1
 49 0 l 1,12,13
 45 15 45 15 45 17 c 0,14,15
 45 29 45 29 57 35 c 128,-1,16
 69 41 69 41 86.5 44.5 c 128,-1,17
 104 48 104 48 125 51 c 128,-1,18
 146 54 146 54 163.5 60 c 128,-1,19
 181 66 181 66 193 77.5 c 128,-1,20
 205 89 205 89 205 110 c 2,21,-1
 205 809 l 1,22,-1
 62 809 l 1,23,-1
 62 868 l 1,24,-1
 205 868 l 1,25,-1
 205 965 l 2,26,27
 205 1062 205 1062 241 1126.5 c 128,-1,28
 277 1191 277 1191 335.5 1228.5 c 128,-1,29
 394 1266 394 1266 467.5 1281.5 c 128,-1,30
 541 1297 541 1297 616 1297 c 0,31,32
 707 1297 707 1297 773 1290 c 128,-1,33
 839 1283 839 1283 884.5 1271 c 128,-1,34
 930 1259 930 1259 958 1242 c 128,-1,35
 986 1225 986 1225 1001 1206 c 128,-1,36
 1016 1187 1016 1187 1021 1165.5 c 128,-1,37
 1026 1144 1026 1144 1026 1123 c 0,38,39
 1025 843 1025 843 1025 622 c 2,40,-1
 1025 120 l 2,41,42
 1025 99 1025 99 1038.5 86.5 c 128,-1,43
 1052 74 1052 74 1071.5 67 c 128,-1,44
 1091 60 1091 60 1114 55.5 c 128,-1,45
 1137 51 1137 51 1157 47 c 128,-1,46
 1177 43 1177 43 1190 36.5 c 128,-1,47
 1203 30 1203 30 1203 18 c 0,48,49
 1203 9 1203 9 1199 0 c 1,50,-1
 638 0 l 1,51,52
 636 6 636 6 635 9 c 128,-1,53
 634 12 634 12 634 17 c 0,54,55
 634 24 634 24 638.5 30 c 128,-1,56
 643 36 643 36 658 43 c 1,57,58
 676 50 676 50 703.5 53.5 c 128,-1,59
 731 57 731 57 756.5 63.5 c 128,-1,60
 782 70 782 70 800 84 c 128,-1,61
 818 98 818 98 818 126 c 2,62,-1
 817 809 l 1,0,-1
817 1016 m 2,63,64
 817 1048 817 1048 819 1076 c 128,-1,65
 821 1104 821 1104 821 1128 c 0,66,67
 821 1158 821 1158 814.5 1182 c 128,-1,68
 808 1206 808 1206 787.5 1222.5 c 128,-1,69
 767 1239 767 1239 728.5 1247.5 c 128,-1,70
 690 1256 690 1256 627 1256 c 0,71,72
 590 1256 590 1256 551.5 1246.5 c 128,-1,73
 513 1237 513 1237 482 1205 c 128,-1,74
 451 1173 451 1173 431 1111.5 c 128,-1,75
 411 1050 411 1050 411 947 c 2,76,-1
 411 868 l 1,77,-1
 817 868 l 1,78,-1
 817 1016 l 2,63,64
EndSplineSet
Validated: 16385
Substitution2: "'smcp' Lowercase to Small Capitals in Latin lookup 3 subtable" f_l.sc
Ligature2: "'liga' Standard Ligatures in Latin lookup 2 subtable" f l
EndChar

StartChar: uniFB04
Encoding: 64260 64260 119
Width: 1805
Flags: W
HStem: 0 44.5<45.6602 178.23 631.66 764.23 1244 1353.3> 809 59<62 205 411 791 997 1403> 1256 41<528.041 727.246 1109.16 1364.76>
VStem: 205 206<60.3804 809 868 1131.77> 791 206<60.3804 809 868 1067.28> 1403 208<68.5731 809 868 1207.19>
LayerCount: 2
Fore
SplineSet
1403 809 m 1,0,-1
 997 809 l 1,1,-1
 997 110 l 2,2,3
 997 89 997 89 1010 77.5 c 128,-1,4
 1023 66 1023 66 1043 60 c 128,-1,5
 1063 54 1063 54 1086 51 c 128,-1,6
 1109 48 1109 48 1129 44.5 c 128,-1,7
 1149 41 1149 41 1162 35 c 128,-1,8
 1175 29 1175 29 1175 17 c 0,9,10
 1175 15 1175 15 1171 0 c 1,11,-1
 635 0 l 1,12,13
 631 15 631 15 631 17 c 0,14,15
 631 29 631 29 643 35 c 128,-1,16
 655 41 655 41 672.5 44.5 c 128,-1,17
 690 48 690 48 711 51 c 128,-1,18
 732 54 732 54 749.5 60 c 128,-1,19
 767 66 767 66 779 77.5 c 128,-1,20
 791 89 791 89 791 110 c 2,21,-1
 791 809 l 1,22,-1
 411 809 l 1,23,-1
 411 110 l 2,24,25
 411 89 411 89 424 77.5 c 128,-1,26
 437 66 437 66 457 60 c 128,-1,27
 477 54 477 54 500 51 c 128,-1,28
 523 48 523 48 543 44.5 c 128,-1,29
 563 41 563 41 576 35 c 128,-1,30
 589 29 589 29 589 17 c 0,31,32
 589 15 589 15 585 0 c 1,33,-1
 49 0 l 1,34,35
 45 15 45 15 45 17 c 0,36,37
 45 29 45 29 57 35 c 128,-1,38
 69 41 69 41 86.5 44.5 c 128,-1,39
 104 48 104 48 125 51 c 128,-1,40
 146 54 146 54 163.5 60 c 128,-1,41
 181 66 181 66 193 77.5 c 128,-1,42
 205 89 205 89 205 110 c 2,43,-1
 205 809 l 1,44,-1
 62 809 l 1,45,-1
 62 868 l 1,46,-1
 205 868 l 1,47,-1
 205 965 l 2,48,49
 205 1030 205 1030 224 1080 c 128,-1,50
 243 1130 243 1130 274.5 1167 c 128,-1,51
 306 1204 306 1204 347.5 1228.5 c 128,-1,52
 389 1253 389 1253 433.5 1268.5 c 128,-1,53
 478 1284 478 1284 522.5 1290.5 c 128,-1,54
 567 1297 567 1297 606 1297 c 0,55,56
 646 1297 646 1297 690.5 1292.5 c 128,-1,57
 735 1288 735 1288 775 1277.5 c 128,-1,58
 815 1267 815 1267 847.5 1251 c 128,-1,59
 880 1235 880 1235 898 1211 c 1,60,61
 928 1235 928 1235 964 1251.5 c 128,-1,62
 1000 1268 1000 1268 1039 1278 c 128,-1,63
 1078 1288 1078 1288 1119.5 1292.5 c 128,-1,64
 1161 1297 1161 1297 1202 1297 c 0,65,66
 1232 1297 1232 1297 1273.5 1295 c 128,-1,67
 1315 1293 1315 1293 1360.5 1286 c 128,-1,68
 1406 1279 1406 1279 1451 1266.5 c 128,-1,69
 1496 1254 1496 1254 1531.5 1233 c 128,-1,70
 1567 1212 1567 1212 1589 1181.5 c 128,-1,71
 1611 1151 1611 1151 1611 1109 c 2,72,-1
 1611 120 l 2,73,74
 1611 97 1611 97 1624 84 c 128,-1,75
 1637 71 1637 71 1657 63.5 c 128,-1,76
 1677 56 1677 56 1700 52.5 c 128,-1,77
 1723 49 1723 49 1743 45.5 c 128,-1,78
 1763 42 1763 42 1776 36 c 128,-1,79
 1789 30 1789 30 1789 18 c 0,80,81
 1789 9 1789 9 1785 0 c 1,82,-1
 1224 0 l 1,83,84
 1222 6 1222 6 1221 9 c 128,-1,85
 1220 12 1220 12 1220 17 c 0,86,87
 1220 32 1220 32 1235 39 c 2,88,-1
 1244 43 l 2,89,90
 1262 50 1262 50 1289.5 53.5 c 128,-1,91
 1317 57 1317 57 1342.5 63.5 c 128,-1,92
 1368 70 1368 70 1386 84 c 128,-1,93
 1404 98 1404 98 1404 126 c 2,94,-1
 1403 809 l 1,0,-1
1403 1016 m 2,95,96
 1403 1057 1403 1057 1409 1092 c 128,-1,97
 1415 1127 1415 1127 1415 1156 c 0,98,99
 1415 1180 1415 1180 1407.5 1198.5 c 128,-1,100
 1400 1217 1400 1217 1378 1229.5 c 128,-1,101
 1356 1242 1356 1242 1316.5 1249 c 128,-1,102
 1277 1256 1277 1256 1213 1256 c 0,103,104
 1176 1256 1176 1256 1137.5 1246.5 c 128,-1,105
 1099 1237 1099 1237 1068 1205 c 128,-1,106
 1037 1173 1037 1173 1017 1111.5 c 128,-1,107
 997 1050 997 1050 997 947 c 2,108,-1
 997 868 l 1,109,-1
 1403 868 l 1,110,-1
 1403 1016 l 2,95,96
791 965 m 2,111,112
 791 994 791 994 794 1019.5 c 128,-1,113
 797 1045 797 1045 804 1068 c 1,114,115
 765 1071 765 1071 746 1094.5 c 128,-1,116
 727 1118 727 1118 727 1150 c 0,117,118
 727 1170 727 1170 734 1186.5 c 128,-1,119
 741 1203 741 1203 741 1217 c 0,120,121
 741 1228 741 1228 728 1235.5 c 128,-1,122
 715 1243 715 1243 696.5 1247.5 c 128,-1,123
 678 1252 678 1252 656.5 1254 c 128,-1,124
 635 1256 635 1256 617 1256 c 0,125,126
 590 1256 590 1256 554.5 1246.5 c 128,-1,127
 519 1237 519 1237 487 1205 c 128,-1,128
 455 1173 455 1173 433 1111.5 c 128,-1,129
 411 1050 411 1050 411 947 c 2,130,-1
 411 868 l 1,131,-1
 791 868 l 1,132,-1
 791 965 l 2,111,112
EndSplineSet
Validated: 16385
Substitution2: "'smcp' Lowercase to Small Capitals in Latin lookup 3 subtable" f_f_l.sc
Ligature2: "'liga' Standard Ligatures in Latin lookup 2 subtable" f f l
EndChar

StartChar: grave
Encoding: 96 96 120
Width: 1350
Flags: W
HStem: 29 403
VStem: 429 535
LayerCount: 2
Fore
SplineSet
928 118 m 0,0,1
 945 106 945 106 954.5 93 c 128,-1,2
 964 80 964 80 964 66 c 0,3,4
 964 46 964 46 949 37.5 c 128,-1,5
 934 29 934 29 918 29 c 0,6,7
 913 29 913 29 901 33.5 c 128,-1,8
 889 38 889 38 875.5 45 c 128,-1,9
 862 52 862 52 848.5 59.5 c 128,-1,10
 835 67 835 67 826 72 c 0,11,12
 795 90 795 90 746 116 c 128,-1,13
 697 142 697 142 644.5 169.5 c 128,-1,14
 592 197 592 197 543.5 222.5 c 128,-1,15
 495 248 495 248 465 265 c 0,16,17
 429 285 429 285 429 327 c 0,18,19
 429 346 429 346 435 365 c 128,-1,20
 441 384 441 384 451.5 399 c 128,-1,21
 462 414 462 414 476 423 c 128,-1,22
 490 432 490 432 505 432 c 0,23,24
 513 432 513 432 522.5 429.5 c 128,-1,25
 532 427 532 427 540.5 423.5 c 128,-1,26
 549 420 549 420 556 416 c 128,-1,27
 563 412 563 412 565 410 c 0,28,29
 578 399 578 399 589 388.5 c 128,-1,30
 600 378 600 378 615 363.5 c 128,-1,31
 630 349 630 349 652.5 329 c 128,-1,32
 675 309 675 309 711.5 280 c 128,-1,33
 748 251 748 251 800.5 211.5 c 128,-1,34
 853 172 853 172 928 118 c 0,0,1
EndSplineSet
Validated: 16385
EndChar

StartChar: acute
Encoding: 180 180 121
Width: 1350
Flags: W
HStem: 39 393
VStem: 533 520
LayerCount: 2
Fore
SplineSet
567 123 m 0,0,1
 642 177 642 177 694 216.5 c 128,-1,2
 746 256 746 256 780.5 284 c 128,-1,3
 815 312 815 312 836 331.5 c 128,-1,4
 857 351 857 351 870.5 365 c 128,-1,5
 884 379 884 379 894 389.5 c 128,-1,6
 904 400 904 400 917 411 c 0,7,8
 922 415 922 415 941 423.5 c 128,-1,9
 960 432 960 432 977 432 c 0,10,11
 992 432 992 432 1006 423 c 128,-1,12
 1020 414 1020 414 1030.5 399 c 128,-1,13
 1041 384 1041 384 1047 365 c 128,-1,14
 1053 346 1053 346 1053 327 c 0,15,16
 1053 307 1053 307 1051.5 295 c 128,-1,17
 1050 283 1050 283 1041 277 c 0,18,19
 1021 265 1021 265 989.5 249.5 c 128,-1,20
 958 234 958 234 921 216 c 128,-1,21
 884 198 884 198 844 179 c 128,-1,22
 804 160 804 160 768 142 c 128,-1,23
 732 124 732 124 702.5 107.5 c 128,-1,24
 673 91 673 91 656 78 c 0,25,26
 648 72 648 72 636 65 c 128,-1,27
 624 58 624 58 612.5 52 c 128,-1,28
 601 46 601 46 590.5 42.5 c 128,-1,29
 580 39 580 39 575 39 c 0,30,31
 559 39 559 39 546 45.5 c 128,-1,32
 533 52 533 52 533 71 c 0,33,34
 533 98 533 98 567 123 c 0,0,1
EndSplineSet
Validated: 16385
EndChar

StartChar: dieresis
Encoding: 168 168 122
Width: 1707
Flags: W
HStem: 104.5 203<473.384 662.551 1029.38 1218.55>
VStem: 458 220<117.087 294.727> 1014 220<117.087 294.727>
LayerCount: 2
Fore
SplineSet
458 205 m 256,0,1
 458 228 458 228 466.5 248.5 c 128,-1,2
 475 269 475 269 489.5 284 c 128,-1,3
 504 299 504 299 524 307.5 c 128,-1,4
 544 316 544 316 567 316 c 256,5,6
 590 316 590 316 610.5 307.5 c 128,-1,7
 631 299 631 299 646 284 c 128,-1,8
 661 269 661 269 669.5 248.5 c 128,-1,9
 678 228 678 228 678 205 c 256,10,11
 678 182 678 182 669.5 162 c 128,-1,12
 661 142 661 142 646 127.5 c 128,-1,13
 631 113 631 113 610.5 104.5 c 128,-1,14
 590 96 590 96 567 96 c 256,15,16
 544 96 544 96 524 104.5 c 128,-1,17
 504 113 504 113 489.5 127.5 c 128,-1,18
 475 142 475 142 466.5 162 c 128,-1,19
 458 182 458 182 458 205 c 256,0,1
1014 205 m 256,20,21
 1014 228 1014 228 1022.5 248.5 c 128,-1,22
 1031 269 1031 269 1045.5 284 c 128,-1,23
 1060 299 1060 299 1080 307.5 c 128,-1,24
 1100 316 1100 316 1123 316 c 256,25,26
 1146 316 1146 316 1166.5 307.5 c 128,-1,27
 1187 299 1187 299 1202 284 c 128,-1,28
 1217 269 1217 269 1225.5 248.5 c 128,-1,29
 1234 228 1234 228 1234 205 c 256,30,31
 1234 182 1234 182 1225.5 162 c 128,-1,32
 1217 142 1217 142 1202 127.5 c 128,-1,33
 1187 113 1187 113 1166.5 104.5 c 128,-1,34
 1146 96 1146 96 1123 96 c 256,35,36
 1100 96 1100 96 1080 104.5 c 128,-1,37
 1060 113 1060 113 1045.5 127.5 c 128,-1,38
 1031 142 1031 142 1022.5 162 c 128,-1,39
 1014 182 1014 182 1014 205 c 256,20,21
EndSplineSet
Validated: 16385
EndChar

StartChar: cedilla
Encoding: 184 184 123
Width: 702
Flags: W
HStem: -448 110<223.379 370.248>
VStem: 395 184<-328.517 -201.469>
LayerCount: 2
Fore
SplineSet
283 13 m 1,0,-1
 357 13 l 1,1,-1
 327 -99 l 1,2,3
 390 -99 390 -99 437.5 -114.5 c 128,-1,4
 485 -130 485 -130 516.5 -155.5 c 128,-1,5
 548 -181 548 -181 563.5 -213.5 c 128,-1,6
 579 -246 579 -246 579 -280 c 0,7,8
 579 -321 579 -321 560.5 -352.5 c 128,-1,9
 542 -384 542 -384 511.5 -405 c 128,-1,10
 481 -426 481 -426 442 -437 c 128,-1,11
 403 -448 403 -448 363 -448 c 0,12,13
 318 -448 318 -448 276.5 -434.5 c 128,-1,14
 235 -421 235 -421 203 -393 c 1,15,-1
 223 -305 l 1,16,17
 235 -320 235 -320 261.5 -329 c 128,-1,18
 288 -338 288 -338 316 -338 c 0,19,20
 347 -338 347 -338 371 -324.5 c 128,-1,21
 395 -311 395 -311 395 -279 c 0,22,23
 395 -255 395 -255 384.5 -236.5 c 128,-1,24
 374 -218 374 -218 356.5 -205.5 c 128,-1,25
 339 -193 339 -193 317 -186.5 c 128,-1,26
 295 -180 295 -180 272 -180 c 0,27,28
 255 -180 255 -180 233 -185 c 1,29,-1
 283 13 l 1,0,-1
EndSplineSet
Validated: 16385
EndChar

StartChar: breve
Encoding: 728 728 124
Width: 702
Flags: W
HStem: 51 104<254.64 452.891>
VStem: 155 95<162.82 255.563> 457 96<161.924 256>
LayerCount: 2
Fore
SplineSet
354 155 m 256,0,1
 389 155 389 155 409.5 161 c 128,-1,2
 430 167 430 167 441 178.5 c 128,-1,3
 452 190 452 190 455 206 c 128,-1,4
 458 222 458 222 458 243 c 0,5,6
 458 246 458 246 457.5 248 c 128,-1,7
 457 250 457 250 457 252 c 2,8,-1
 457 256 l 1,9,-1
 548 256 l 1,10,11
 550 242 550 242 551.5 229 c 128,-1,12
 553 216 553 216 553 202 c 0,13,14
 553 171 553 171 544 143.5 c 128,-1,15
 535 116 535 116 512 95.5 c 128,-1,16
 489 75 489 75 450.5 63 c 128,-1,17
 412 51 412 51 354 51 c 0,18,19
 295 51 295 51 257 63 c 128,-1,20
 219 75 219 75 196 95.5 c 128,-1,21
 173 116 173 116 164 143.5 c 128,-1,22
 155 171 155 171 155 202 c 0,23,24
 155 216 155 216 156.5 229 c 128,-1,25
 158 242 158 242 160 256 c 1,26,-1
 251 256 l 1,27,28
 250 254 250 254 250 252 c 2,29,-1
 250 243 l 2,30,31
 250 222 250 222 253 206 c 128,-1,32
 256 190 256 190 267 178.5 c 128,-1,33
 278 167 278 167 298.5 161 c 128,-1,34
 319 155 319 155 354 155 c 256,0,1
EndSplineSet
Validated: 16385
EndChar

StartChar: macron
Encoding: 175 175 125
Width: 1022
Flags: W
HStem: 71 118<271 764>
VStem: 271 493<71 189>
LayerCount: 2
Fore
SplineSet
764 71 m 1,0,-1
 271 71 l 1,1,-1
 271 189 l 1,2,-1
 764 189 l 1,3,-1
 764 71 l 1,0,-1
EndSplineSet
Validated: 16385
EndChar

StartChar: circumflex
Encoding: 710 710 126
Width: 1500
Flags: W
HStem: 47 608
VStem: 426 640<68 96>
LayerCount: 2
Fore
SplineSet
440 132 m 0,0,1
 503 261 503 261 557.5 374 c 128,-1,2
 612 487 612 487 661 600 c 1,3,4
 672 622 672 622 695.5 638.5 c 128,-1,5
 719 655 719 655 746 655 c 0,6,7
 774 654 774 654 797 638.5 c 128,-1,8
 820 623 820 623 831 600 c 0,9,10
 839 583 839 583 846 567.5 c 128,-1,11
 853 552 853 552 862.5 531 c 128,-1,12
 872 510 872 510 886 479.5 c 128,-1,13
 900 449 900 449 922 402.5 c 128,-1,14
 944 356 944 356 975.5 290 c 128,-1,15
 1007 224 1007 224 1052 132 c 0,16,17
 1058 119 1058 119 1062 107.5 c 128,-1,18
 1066 96 1066 96 1066 85 c 0,19,20
 1066 68 1066 68 1054.5 57.5 c 128,-1,21
 1043 47 1043 47 1015 47 c 0,22,23
 1009 47 1009 47 997 57 c 128,-1,24
 985 67 985 67 971.5 81.5 c 128,-1,25
 958 96 958 96 946 111 c 128,-1,26
 934 126 934 126 928 135 c 0,27,28
 913 156 913 156 892 186 c 128,-1,29
 871 216 871 216 846.5 249.5 c 128,-1,30
 822 283 822 283 796 319 c 128,-1,31
 770 355 770 355 746 388 c 1,32,33
 721 355 721 355 695 319 c 128,-1,34
 669 283 669 283 644.5 249.5 c 128,-1,35
 620 216 620 216 599 186 c 128,-1,36
 578 156 578 156 564 135 c 0,37,38
 558 126 558 126 546 111 c 128,-1,39
 534 96 534 96 520.5 81.5 c 128,-1,40
 507 67 507 67 495 57 c 128,-1,41
 483 47 483 47 477 47 c 0,42,43
 449 47 449 47 437.5 57.5 c 128,-1,44
 426 68 426 68 426 85 c 0,45,46
 426 96 426 96 430 107.5 c 128,-1,47
 434 119 434 119 440 132 c 0,0,1
EndSplineSet
Validated: 16385
EndChar

StartChar: dotaccent
Encoding: 729 729 145
Width: 702
Flags: W
HStem: 96 220<262.087 439.727>
VStem: 241 220<117.087 294.727>
LayerCount: 2
Fore
SplineSet
241 205 m 256,0,1
 241 228 241 228 249.5 248.5 c 128,-1,2
 258 269 258 269 272.5 284 c 128,-1,3
 287 299 287 299 307 307.5 c 128,-1,4
 327 316 327 316 350 316 c 256,5,6
 373 316 373 316 393.5 307.5 c 128,-1,7
 414 299 414 299 429 284 c 128,-1,8
 444 269 444 269 452.5 248.5 c 128,-1,9
 461 228 461 228 461 205 c 256,10,11
 461 182 461 182 452.5 162 c 128,-1,12
 444 142 444 142 429 127.5 c 128,-1,13
 414 113 414 113 393.5 104.5 c 128,-1,14
 373 96 373 96 350 96 c 256,15,16
 327 96 327 96 307 104.5 c 128,-1,17
 287 113 287 113 272.5 127.5 c 128,-1,18
 258 142 258 142 249.5 162 c 128,-1,19
 241 182 241 182 241 205 c 256,0,1
EndSplineSet
Validated: 16385
EndChar

StartChar: dotlessi
Encoding: 305 305 155
Width: 635
Flags: W
HStem: 0 49.5<29.4648 193.232> 850 20G<335.647 438>
VStem: 232 206<71.5059 745.996>
LayerCount: 2
Fore
SplineSet
438 120 m 2,0,1
 438 97 438 97 452 84 c 128,-1,2
 466 71 466 71 487 63.5 c 128,-1,3
 508 56 508 56 532 52.5 c 128,-1,4
 556 49 556 49 577 45.5 c 128,-1,5
 598 42 598 42 612 36 c 128,-1,6
 626 30 626 30 626 18 c 0,7,8
 626 9 626 9 622 0 c 1,9,-1
 32 0 l 1,10,11
 28 13 28 13 28 17 c 0,12,13
 28 31 28 31 43 38 c 128,-1,14
 58 45 58 45 81 49.5 c 128,-1,15
 104 54 104 54 130 57.5 c 128,-1,16
 156 61 156 61 179 68.5 c 128,-1,17
 202 76 202 76 217 89 c 128,-1,18
 232 102 232 102 232 126 c 2,19,-1
 232 692 l 2,20,21
 232 713 232 713 221 725 c 128,-1,22
 210 737 210 737 194 743.5 c 128,-1,23
 178 750 178 750 158.5 753 c 128,-1,24
 139 756 139 756 123 759 c 128,-1,25
 107 762 107 762 96 767.5 c 128,-1,26
 85 773 85 773 85 784 c 0,27,28
 85 790 85 790 90 802 c 1,29,-1
 438 870 l 1,30,-1
 438 120 l 2,0,1
EndSplineSet
Validated: 16385
Substitution2: "'smcp' Lowercase to Small Capitals in Latin lookup 3 subtable" dotlessi.sc
EndChar

